<?xml version="1.0" encoding="UTF-8"?>
<svg xmlns="http://www.w3.org/2000/svg" xmlns:xlink="http://www.w3.org/1999/xlink" width="78pt" height="78pt" viewBox="0 0 78 78" version="1.1">
<g id="surface1">
<path style=" stroke:none;fill-rule:nonzero;fill:rgb(90.196078%,90.588235%,90.980392%);fill-opacity:1;" d="M 69.207031 58.328125 C 69.746094 58.019531 70.183594 57.558594 70.453125 56.984375 C 70.792969 56.25 70.832031 55.429688 70.554688 54.667969 L 70.15625 53.574219 C 75.464844 49.183594 77.722656 41.757812 75.234375 34.921875 C 72.539062 27.511719 65.125 23.15625 57.613281 24.003906 L 57.613281 12.996094 C 57.613281 11.316406 56.246094 9.949219 54.566406 9.949219 L 45.996094 9.949219 C 45.621094 8.691406 44.464844 7.765625 43.085938 7.765625 L 36.527344 7.765625 C 35.898438 5.039062 33.4375 3.042969 30.597656 3.042969 C 27.753906 3.042969 25.292969 5.039062 24.664062 7.765625 L 18.105469 7.765625 C 16.726562 7.765625 15.570312 8.691406 15.195312 9.949219 L 6.628906 9.949219 C 4.949219 9.949219 3.582031 11.316406 3.582031 12.996094 L 3.582031 73.527344 C 3.582031 75.207031 4.949219 76.574219 6.628906 76.574219 L 54.566406 76.574219 C 56.246094 76.574219 57.613281 75.207031 57.613281 73.527344 L 57.613281 57.289062 C 58.238281 57.363281 58.871094 57.410156 59.503906 57.410156 C 59.542969 57.410156 59.585938 57.40625 59.625 57.40625 L 60.023438 58.5 C 60.300781 59.261719 60.855469 59.867188 61.585938 60.210938 C 61.996094 60.398438 62.429688 60.496094 62.867188 60.496094 C 63.046875 60.496094 63.230469 60.476562 63.410156 60.445312 L 67.113281 73.742188 C 67.421875 74.855469 68.191406 75.796875 69.21875 76.324219 C 69.8125 76.632812 70.46875 76.785156 71.125 76.785156 C 71.609375 76.785156 72.089844 76.703125 72.550781 76.535156 C 73.636719 76.140625 74.515625 75.300781 74.964844 74.238281 C 75.414062 73.167969 75.394531 71.953125 74.917969 70.898438 Z M 69.207031 58.328125 "/>
<path style=" stroke:none;fill-rule:nonzero;fill:rgb(42.745098%,78.823529%,96.862745%);fill-opacity:1;" d="M 52.128906 73.527344 L 4.191406 73.527344 C 2.84375 73.527344 1.753906 72.433594 1.753906 71.089844 L 1.753906 10.558594 C 1.753906 9.210938 2.84375 8.121094 4.191406 8.121094 L 52.128906 8.121094 C 53.472656 8.121094 54.566406 9.210938 54.566406 10.558594 L 54.566406 71.089844 C 54.566406 72.433594 53.472656 73.527344 52.128906 73.527344 Z M 52.128906 73.527344 "/>
<path style=" stroke:none;fill-rule:nonzero;fill:rgb(83.137255%,98.431373%,100%);fill-opacity:1;" d="M 49.082031 69.261719 L 7.238281 69.261719 C 6.5625 69.261719 6.019531 68.714844 6.019531 68.042969 L 6.019531 13.605469 C 6.019531 12.929688 6.5625 12.386719 7.238281 12.386719 L 49.082031 12.386719 C 49.753906 12.386719 50.300781 12.929688 50.300781 13.605469 L 50.300781 68.042969 C 50.300781 68.714844 49.753906 69.261719 49.082031 69.261719 Z M 49.082031 69.261719 "/>
<path style=" stroke:none;fill-rule:nonzero;fill:rgb(0%,53.72549%,93.72549%);fill-opacity:1;" d="M 33.582031 5.9375 C 33.210938 3.269531 30.929688 1.214844 28.160156 1.214844 C 25.390625 1.214844 23.105469 3.269531 22.734375 5.9375 L 15.667969 5.9375 C 14.320312 5.9375 13.230469 7.027344 13.230469 8.375 L 13.230469 13.554688 C 13.230469 14.226562 13.773438 14.773438 14.449219 14.773438 L 41.871094 14.773438 C 42.542969 14.773438 43.089844 14.226562 43.089844 13.554688 L 43.089844 8.375 C 43.089844 7.027344 41.996094 5.9375 40.652344 5.9375 Z M 33.582031 5.9375 "/>
<path style=" stroke:none;fill-rule:nonzero;fill:rgb(100%,100%,100%);fill-opacity:1;" d="M 41.871094 12.945312 L 14.449219 12.945312 C 13.773438 12.945312 13.230469 12.398438 13.230469 11.726562 L 13.230469 13.554688 C 13.230469 14.226562 13.773438 14.773438 14.449219 14.773438 L 41.871094 14.773438 C 42.542969 14.773438 43.089844 14.226562 43.089844 13.554688 L 43.089844 11.726562 C 43.089844 12.398438 42.542969 12.945312 41.871094 12.945312 Z M 41.871094 12.945312 "/>
<path style=" stroke:none;fill-rule:nonzero;fill:rgb(100%,100%,100%);fill-opacity:1;" d="M 29.988281 6.699219 C 29.988281 7.707031 29.167969 8.527344 28.160156 8.527344 C 27.148438 8.527344 26.332031 7.707031 26.332031 6.699219 C 26.332031 5.6875 27.148438 4.871094 28.160156 4.871094 C 29.167969 4.871094 29.988281 5.6875 29.988281 6.699219 Z M 29.988281 6.699219 "/>
<path style=" stroke:none;fill-rule:nonzero;fill:rgb(98.039216%,45.882353%,61.960784%);fill-opacity:1;" d="M 39.441406 30.582031 C 39.441406 36.8125 34.390625 41.867188 28.160156 41.867188 C 21.925781 41.867188 16.875 36.8125 16.875 30.582031 C 16.875 24.351562 21.925781 19.296875 28.160156 19.296875 C 34.390625 19.296875 39.441406 24.351562 39.441406 30.582031 Z M 39.441406 30.582031 "/>
<path style=" stroke:none;fill-rule:nonzero;fill:rgb(83.137255%,98.431373%,100%);fill-opacity:1;" d="M 20.117188 38.492188 C 22.164062 40.570312 25.007812 41.867188 28.160156 41.867188 C 31.308594 41.867188 34.152344 40.570312 36.199219 38.492188 L 36.199219 35.96875 C 36.199219 33.703125 34.363281 31.863281 32.097656 31.863281 L 24.21875 31.863281 C 21.953125 31.863281 20.117188 33.703125 20.117188 35.96875 Z M 20.117188 38.492188 "/>
<path style=" stroke:none;fill-rule:nonzero;fill:rgb(0%,53.72549%,93.72549%);fill-opacity:1;" d="M 28.160156 32.605469 C 27.414062 32.605469 26.707031 32.441406 26.066406 32.152344 L 27.289062 35.28125 L 29.027344 35.28125 L 30.25 32.152344 C 29.613281 32.441406 28.90625 32.605469 28.160156 32.605469 Z M 28.160156 32.605469 "/>
<path style=" stroke:none;fill-rule:nonzero;fill:rgb(0%,53.72549%,93.72549%);fill-opacity:1;" d="M 28.160156 41.867188 C 28.585938 41.867188 29.007812 41.835938 29.421875 41.789062 L 29.027344 35.28125 L 27.289062 35.28125 L 26.894531 41.789062 C 27.308594 41.835938 27.730469 41.867188 28.160156 41.867188 Z M 28.160156 41.867188 "/>
<path style=" stroke:none;fill-rule:nonzero;fill:rgb(100%,100%,100%);fill-opacity:1;" d="M 33.210938 27.578125 C 33.210938 30.355469 30.949219 32.605469 28.160156 32.605469 C 25.367188 32.605469 23.105469 30.355469 23.105469 27.578125 C 23.105469 24.796875 25.367188 22.546875 28.160156 22.546875 C 30.949219 22.546875 33.210938 24.796875 33.210938 27.578125 Z M 33.210938 27.578125 "/>
<path style=" stroke:none;fill-rule:nonzero;fill:rgb(98.039216%,45.882353%,61.960784%);fill-opacity:1;" d="M 69.902344 73.527344 C 67.957031 74.234375 65.820312 73.132812 65.261719 71.140625 L 61.394531 57.25 L 65.960938 55.589844 L 71.925781 68.714844 C 72.78125 70.601562 71.851562 72.816406 69.902344 73.527344 Z M 69.902344 73.527344 "/>
<path style=" stroke:none;fill-rule:nonzero;fill:rgb(98.039216%,45.882353%,61.960784%);fill-opacity:1;" d="M 66.996094 50.9375 C 65.695312 51.957031 64.214844 52.792969 62.574219 53.390625 C 60.9375 53.988281 59.265625 54.296875 57.609375 54.355469 L 58.15625 55.855469 C 58.613281 57.109375 60.003906 57.757812 61.257812 57.300781 L 66.097656 55.539062 C 67.355469 55.082031 68 53.695312 67.542969 52.4375 Z M 66.996094 50.9375 "/>
<path style=" stroke:none;fill-rule:nonzero;fill:rgb(100%,84.313725%,89.803922%);fill-opacity:1;" d="M 73.199219 38.214844 C 73.199219 47.132812 65.96875 54.363281 57.050781 54.363281 C 48.132812 54.363281 40.902344 47.132812 40.902344 38.214844 C 40.902344 29.296875 48.132812 22.066406 57.050781 22.066406 C 65.96875 22.066406 73.199219 29.296875 73.199219 38.214844 Z M 73.199219 38.214844 "/>
<path style=" stroke:none;fill-rule:nonzero;fill:rgb(83.137255%,98.431373%,100%);fill-opacity:1;" d="M 69.789062 38.214844 C 69.789062 45.25 64.085938 50.953125 57.050781 50.953125 C 50.015625 50.953125 44.316406 45.25 44.316406 38.214844 C 44.316406 31.179688 50.015625 25.480469 57.050781 25.480469 C 64.085938 25.480469 69.789062 31.179688 69.789062 38.214844 Z M 69.789062 38.214844 "/>
<path style=" stroke:none;fill-rule:nonzero;fill:rgb(22.745098%,17.254902%,37.647059%);fill-opacity:1;" d="M 1.75 27.304688 C 2.089844 27.304688 2.359375 27.03125 2.359375 26.695312 L 2.359375 20.613281 C 2.359375 20.277344 2.089844 20.003906 1.75 20.003906 C 1.414062 20.003906 1.140625 20.277344 1.140625 20.613281 L 1.140625 26.695312 C 1.140625 27.03125 1.414062 27.304688 1.75 27.304688 Z M 1.75 27.304688 "/>
<path style=" stroke:none;fill-rule:nonzero;fill:rgb(22.745098%,17.254902%,37.647059%);fill-opacity:1;" d="M 28.160156 9.136719 C 29.503906 9.136719 30.597656 8.042969 30.597656 6.699219 C 30.597656 5.351562 29.503906 4.261719 28.160156 4.261719 C 26.8125 4.261719 25.722656 5.351562 25.722656 6.699219 C 25.722656 8.042969 26.8125 9.136719 28.160156 9.136719 Z M 28.160156 5.480469 C 28.832031 5.480469 29.378906 6.027344 29.378906 6.699219 C 29.378906 7.371094 28.832031 7.917969 28.160156 7.917969 C 27.488281 7.917969 26.941406 7.371094 26.941406 6.699219 C 26.941406 6.027344 27.488281 5.480469 28.160156 5.480469 Z M 28.160156 5.480469 "/>
<path style=" stroke:none;fill-rule:nonzero;fill:rgb(22.745098%,17.254902%,37.647059%);fill-opacity:1;" d="M 28.160156 42.476562 C 34.714844 42.476562 40.050781 37.140625 40.050781 30.582031 C 40.050781 24.023438 34.714844 18.6875 28.160156 18.6875 C 21.601562 18.6875 16.265625 24.023438 16.265625 30.582031 C 16.265625 37.140625 21.601562 42.476562 28.160156 42.476562 Z M 20.726562 38.226562 L 20.726562 35.96875 C 20.726562 34.042969 22.292969 32.472656 24.21875 32.472656 L 25.363281 32.472656 C 26.1875 32.945312 27.140625 33.21875 28.160156 33.21875 C 29.175781 33.21875 30.128906 32.945312 30.957031 32.472656 L 32.097656 32.472656 C 34.023438 32.472656 35.589844 34.042969 35.589844 35.96875 L 35.589844 38.226562 C 33.667969 40.097656 31.046875 41.253906 28.160156 41.253906 C 25.269531 41.253906 22.652344 40.097656 20.726562 38.226562 Z M 28.160156 32 C 25.707031 32 23.714844 30.015625 23.714844 27.578125 C 23.714844 25.140625 25.707031 23.15625 28.160156 23.15625 C 30.609375 23.15625 32.601562 25.140625 32.601562 27.578125 C 32.601562 30.015625 30.609375 32 28.160156 32 Z M 28.160156 19.90625 C 34.042969 19.90625 38.832031 24.695312 38.832031 30.582031 C 38.832031 32.90625 38.078125 35.054688 36.808594 36.8125 L 36.808594 35.96875 C 36.808594 33.480469 34.871094 31.441406 32.425781 31.273438 C 33.292969 30.28125 33.820312 28.992188 33.820312 27.578125 C 33.820312 24.46875 31.28125 21.9375 28.160156 21.9375 C 25.035156 21.9375 22.496094 24.46875 22.496094 27.578125 C 22.496094 28.992188 23.027344 30.28125 23.890625 31.273438 C 21.445312 31.441406 19.507812 33.480469 19.507812 35.96875 L 19.507812 36.808594 C 18.242188 35.054688 17.484375 32.90625 17.484375 30.582031 C 17.484375 24.695312 22.273438 19.90625 28.160156 19.90625 Z M 28.160156 19.90625 "/>
<path style=" stroke:none;fill-rule:nonzero;fill:rgb(22.745098%,17.254902%,37.647059%);fill-opacity:1;" d="M 44.636719 50.917969 L 22.699219 50.917969 C 22.363281 50.917969 22.089844 51.1875 22.089844 51.527344 C 22.089844 51.863281 22.363281 52.136719 22.699219 52.136719 L 44.636719 52.136719 C 44.972656 52.136719 45.246094 51.863281 45.246094 51.527344 C 45.246094 51.1875 44.972656 50.917969 44.636719 50.917969 Z M 44.636719 50.917969 "/>
<path style=" stroke:none;fill-rule:nonzero;fill:rgb(22.745098%,17.254902%,37.647059%);fill-opacity:1;" d="M 18.953125 44.980469 L 18.207031 45.777344 C 17.875 45.339844 17.351562 45.050781 16.757812 45.050781 L 12.339844 45.050781 C 11.332031 45.050781 10.511719 45.871094 10.511719 46.878906 L 10.511719 51.296875 C 10.511719 52.304688 11.332031 53.125 12.339844 53.125 L 16.757812 53.125 C 17.765625 53.125 18.585938 52.304688 18.585938 51.296875 L 18.585938 47.160156 L 19.84375 45.808594 C 20.074219 45.5625 20.0625 45.175781 19.8125 44.945312 C 19.566406 44.71875 19.183594 44.730469 18.953125 44.980469 Z M 17.367188 51.296875 C 17.367188 51.632812 17.09375 51.90625 16.757812 51.90625 L 12.339844 51.90625 C 12.003906 51.90625 11.730469 51.632812 11.730469 51.296875 L 11.730469 46.878906 C 11.730469 46.542969 12.003906 46.269531 12.339844 46.269531 L 16.757812 46.269531 C 17.035156 46.269531 17.261719 46.460938 17.335938 46.71875 L 14.683594 49.570312 L 13.25 47.980469 C 13.023438 47.730469 12.640625 47.710938 12.386719 47.9375 C 12.140625 48.164062 12.121094 48.546875 12.34375 48.796875 L 14.222656 50.878906 C 14.339844 51.007812 14.5 51.082031 14.671875 51.082031 L 14.675781 51.082031 C 14.84375 51.082031 15.007812 51.011719 15.121094 50.886719 L 17.367188 48.472656 Z M 17.367188 51.296875 "/>
<path style=" stroke:none;fill-rule:nonzero;fill:rgb(22.745098%,17.254902%,37.647059%);fill-opacity:1;" d="M 44.636719 58.230469 L 22.699219 58.230469 C 22.363281 58.230469 22.089844 58.5 22.089844 58.839844 C 22.089844 59.175781 22.363281 59.449219 22.699219 59.449219 L 44.636719 59.449219 C 44.972656 59.449219 45.246094 59.175781 45.246094 58.839844 C 45.246094 58.5 44.972656 58.230469 44.636719 58.230469 Z M 44.636719 58.230469 "/>
<path style=" stroke:none;fill-rule:nonzero;fill:rgb(22.745098%,17.254902%,37.647059%);fill-opacity:1;" d="M 44.636719 63.105469 L 22.699219 63.105469 C 22.363281 63.105469 22.089844 63.375 22.089844 63.714844 C 22.089844 64.050781 22.363281 64.324219 22.699219 64.324219 L 44.636719 64.324219 C 44.972656 64.324219 45.246094 64.050781 45.246094 63.714844 C 45.246094 63.375 44.972656 63.105469 44.636719 63.105469 Z M 44.636719 63.105469 "/>
<path style=" stroke:none;fill-rule:nonzero;fill:rgb(22.745098%,17.254902%,37.647059%);fill-opacity:1;" d="M 18.953125 57.167969 L 18.207031 57.96875 C 17.875 57.527344 17.351562 57.238281 16.757812 57.238281 L 12.339844 57.238281 C 11.332031 57.238281 10.511719 58.058594 10.511719 59.066406 L 10.511719 63.484375 C 10.511719 64.492188 11.332031 65.3125 12.339844 65.3125 L 16.757812 65.3125 C 17.765625 65.3125 18.585938 64.492188 18.585938 63.484375 L 18.585938 59.351562 L 19.84375 57.996094 C 20.074219 57.75 20.0625 57.363281 19.8125 57.136719 C 19.566406 56.90625 19.183594 56.917969 18.953125 57.167969 Z M 17.367188 63.484375 C 17.367188 63.820312 17.09375 64.09375 16.757812 64.09375 L 12.339844 64.09375 C 12.003906 64.09375 11.730469 63.820312 11.730469 63.484375 L 11.730469 59.066406 C 11.730469 58.730469 12.003906 58.457031 12.339844 58.457031 L 16.757812 58.457031 C 17.035156 58.457031 17.261719 58.648438 17.335938 58.90625 L 14.683594 61.757812 L 13.25 60.167969 C 13.023438 59.917969 12.640625 59.898438 12.386719 60.125 C 12.140625 60.351562 12.121094 60.734375 12.34375 60.984375 L 14.222656 63.066406 C 14.339844 63.195312 14.5 63.269531 14.671875 63.269531 L 14.675781 63.269531 C 14.84375 63.269531 15.007812 63.199219 15.121094 63.074219 L 17.367188 60.660156 Z M 17.367188 63.484375 "/>
<path style=" stroke:none;fill-rule:nonzero;fill:rgb(22.745098%,17.254902%,37.647059%);fill-opacity:1;" d="M 66.769531 55.890625 C 67.308594 55.582031 67.746094 55.121094 68.015625 54.546875 C 68.355469 53.8125 68.394531 52.992188 68.117188 52.230469 L 67.722656 51.148438 C 69.621094 49.578125 71.167969 47.597656 72.238281 45.296875 C 74.128906 41.242188 74.328125 36.691406 72.796875 32.484375 C 70.101562 25.074219 62.6875 20.71875 55.175781 21.566406 L 55.175781 10.558594 C 55.175781 8.878906 53.808594 7.511719 52.128906 7.511719 L 43.558594 7.511719 C 43.183594 6.253906 42.027344 5.328125 40.652344 5.328125 L 34.089844 5.328125 C 33.460938 2.597656 31 0.605469 28.160156 0.605469 C 25.316406 0.605469 22.855469 2.597656 22.226562 5.328125 L 15.667969 5.328125 C 14.289062 5.328125 13.132812 6.253906 12.757812 7.511719 L 4.191406 7.511719 C 2.507812 7.511719 1.144531 8.878906 1.144531 10.558594 L 1.144531 17.71875 C 1.144531 18.054688 1.414062 18.328125 1.753906 18.328125 C 2.089844 18.328125 2.363281 18.054688 2.363281 17.71875 L 2.363281 10.558594 C 2.363281 9.550781 3.179688 8.730469 4.191406 8.730469 L 12.617188 8.730469 L 12.617188 11.777344 L 7.238281 11.777344 C 6.226562 11.777344 5.410156 12.597656 5.410156 13.605469 L 5.410156 68.042969 C 5.410156 69.050781 6.226562 69.871094 7.238281 69.871094 L 49.082031 69.871094 C 50.089844 69.871094 50.910156 69.050781 50.910156 68.042969 L 50.910156 53.796875 C 51.890625 54.183594 52.910156 54.46875 53.957031 54.667969 L 53.957031 71.089844 C 53.957031 72.097656 53.136719 72.917969 52.128906 72.917969 L 4.191406 72.917969 C 3.179688 72.917969 2.363281 72.097656 2.363281 71.089844 L 2.363281 29.363281 C 2.363281 29.027344 2.089844 28.753906 1.753906 28.753906 C 1.414062 28.753906 1.144531 29.027344 1.144531 29.363281 L 1.144531 71.089844 C 1.144531 72.769531 2.507812 74.136719 4.191406 74.136719 L 52.128906 74.136719 C 53.808594 74.136719 55.175781 72.769531 55.175781 71.089844 L 55.175781 54.851562 C 55.800781 54.925781 56.433594 54.972656 57.066406 54.972656 C 57.105469 54.972656 57.148438 54.96875 57.1875 54.96875 L 57.585938 56.0625 C 57.859375 56.824219 58.417969 57.429688 59.148438 57.773438 C 59.558594 57.964844 59.992188 58.058594 60.429688 58.058594 C 60.609375 58.058594 60.792969 58.039062 60.972656 58.007812 L 64.675781 71.304688 C 64.984375 72.417969 65.753906 73.359375 66.78125 73.890625 C 67.375 74.195312 68.03125 74.347656 68.6875 74.347656 C 69.167969 74.347656 69.652344 74.265625 70.109375 74.097656 C 71.199219 73.703125 72.078125 72.863281 72.527344 71.796875 C 72.972656 70.730469 72.957031 69.515625 72.476562 68.460938 Z M 71.652344 32.898438 C 73.074219 36.800781 72.890625 41.019531 71.136719 44.78125 C 69.378906 48.542969 66.265625 51.398438 62.367188 52.816406 C 54.3125 55.746094 45.378906 51.582031 42.449219 43.53125 C 39.519531 35.476562 43.683594 26.542969 51.734375 23.613281 C 53.484375 22.976562 55.273438 22.675781 57.035156 22.675781 C 63.382812 22.675781 69.359375 26.597656 71.652344 32.898438 Z M 53.957031 10.558594 L 53.957031 21.746094 C 53.074219 21.914062 52.191406 22.152344 51.320312 22.46875 C 51.179688 22.519531 51.046875 22.574219 50.910156 22.628906 L 50.910156 13.605469 C 50.910156 12.597656 50.089844 11.777344 49.082031 11.777344 L 43.699219 11.777344 L 43.699219 8.730469 L 52.128906 8.730469 C 53.136719 8.730469 53.957031 9.550781 53.957031 10.558594 Z M 13.839844 8.375 C 13.839844 7.367188 14.660156 6.546875 15.667969 6.546875 L 22.734375 6.546875 C 23.039062 6.546875 23.292969 6.320312 23.335938 6.019531 C 23.671875 3.628906 25.742188 1.824219 28.160156 1.824219 C 30.574219 1.824219 32.648438 3.628906 32.980469 6.019531 C 33.023438 6.320312 33.28125 6.546875 33.582031 6.546875 L 40.652344 6.546875 C 41.660156 6.546875 42.480469 7.367188 42.480469 8.375 L 42.480469 13.554688 C 42.480469 13.890625 42.207031 14.164062 41.871094 14.164062 L 14.449219 14.164062 C 14.113281 14.164062 13.839844 13.890625 13.839844 13.554688 Z M 49.691406 68.042969 C 49.691406 68.378906 49.417969 68.652344 49.082031 68.652344 L 7.234375 68.652344 C 6.902344 68.652344 6.625 68.378906 6.625 68.042969 L 6.625 13.605469 C 6.625 13.269531 6.902344 12.996094 7.234375 12.996094 L 12.617188 12.996094 L 12.617188 13.554688 C 12.617188 14.5625 13.4375 15.382812 14.445312 15.382812 L 41.867188 15.382812 C 42.875 15.382812 43.695312 14.5625 43.695312 13.554688 L 43.695312 12.996094 L 49.078125 12.996094 C 49.417969 12.996094 49.6875 13.269531 49.6875 13.605469 L 49.6875 23.160156 C 42.089844 26.871094 38.347656 35.824219 41.304688 43.945312 C 41.570312 44.675781 41.890625 45.371094 42.242188 46.039062 L 22.699219 46.039062 C 22.363281 46.039062 22.089844 46.3125 22.089844 46.648438 C 22.089844 46.988281 22.363281 47.257812 22.699219 47.257812 L 42.953125 47.257812 C 44.632812 49.882812 46.984375 51.933594 49.6875 53.257812 L 49.6875 68.042969 Z M 59.664062 56.667969 C 59.226562 56.464844 58.894531 56.101562 58.730469 55.648438 L 58.460938 54.914062 C 59.90625 54.792969 61.359375 54.480469 62.78125 53.960938 C 64.195312 53.449219 65.507812 52.757812 66.703125 51.914062 L 66.972656 52.648438 C 67.136719 53.101562 67.113281 53.59375 66.910156 54.03125 C 66.707031 54.46875 66.34375 54.800781 65.890625 54.96875 L 61.050781 56.730469 C 60.59375 56.894531 60.105469 56.871094 59.664062 56.667969 Z M 71.402344 71.324219 C 71.082031 72.089844 70.476562 72.667969 69.695312 72.953125 C 68.914062 73.238281 68.078125 73.183594 67.339844 72.804688 C 66.601562 72.425781 66.074219 71.777344 65.851562 70.976562 L 62.132812 57.632812 L 65.640625 56.355469 L 71.371094 68.96875 C 71.714844 69.722656 71.726562 70.5625 71.402344 71.324219 Z M 71.402344 71.324219 "/>
<path style=" stroke:none;fill-rule:nonzero;fill:rgb(22.745098%,17.254902%,37.647059%);fill-opacity:1;" d="M 57.050781 48.605469 C 60.867188 48.605469 63.972656 45.503906 63.972656 41.6875 L 63.972656 39.253906 C 63.972656 38.917969 63.699219 38.644531 63.363281 38.644531 C 63.023438 38.644531 62.753906 38.917969 62.753906 39.253906 L 62.753906 41.6875 C 62.753906 44.832031 60.195312 47.386719 57.050781 47.386719 C 53.910156 47.386719 51.351562 44.832031 51.351562 41.6875 L 51.351562 34.742188 C 51.351562 31.601562 53.910156 29.042969 57.050781 29.042969 C 60.195312 29.042969 62.753906 31.601562 62.753906 34.742188 L 62.753906 37.316406 C 62.753906 37.652344 63.023438 37.925781 63.363281 37.925781 C 63.699219 37.925781 63.972656 37.652344 63.972656 37.316406 L 63.972656 34.742188 C 63.972656 30.925781 60.867188 27.824219 57.050781 27.824219 C 53.234375 27.824219 50.132812 30.925781 50.132812 34.742188 L 50.132812 41.6875 C 50.132812 45.503906 53.234375 48.605469 57.050781 48.605469 Z M 57.050781 48.605469 "/>
<path style=" stroke:none;fill-rule:nonzero;fill:rgb(22.745098%,17.254902%,37.647059%);fill-opacity:1;" d="M 55.066406 32.375 C 55.324219 32.160156 55.355469 31.773438 55.140625 31.515625 C 54.921875 31.257812 54.539062 31.226562 54.28125 31.441406 C 53.300781 32.265625 52.742188 33.46875 52.742188 34.742188 L 52.742188 41.6875 C 52.742188 44.0625 54.675781 46 57.050781 46 C 59.429688 46 61.363281 44.0625 61.363281 41.6875 C 61.363281 41.351562 61.089844 41.078125 60.753906 41.078125 C 60.414062 41.078125 60.144531 41.351562 60.144531 41.6875 C 60.144531 43.390625 58.757812 44.78125 57.050781 44.78125 C 55.347656 44.78125 53.960938 43.390625 53.960938 41.6875 L 53.960938 34.742188 C 53.960938 33.828125 54.363281 32.964844 55.066406 32.375 Z M 55.066406 32.375 "/>
<path style=" stroke:none;fill-rule:nonzero;fill:rgb(22.745098%,17.254902%,37.647059%);fill-opacity:1;" d="M 61.363281 37.648438 C 61.363281 37.3125 61.089844 37.039062 60.753906 37.039062 C 60.414062 37.039062 60.144531 37.3125 60.144531 37.648438 L 60.144531 40.015625 C 60.144531 40.351562 60.414062 40.625 60.753906 40.625 C 61.089844 40.625 61.363281 40.351562 61.363281 40.015625 Z M 61.363281 37.648438 "/>
<path style=" stroke:none;fill-rule:nonzero;fill:rgb(22.745098%,17.254902%,37.647059%);fill-opacity:1;" d="M 61.363281 34.742188 C 61.363281 32.367188 59.429688 30.433594 57.050781 30.433594 C 56.761719 30.433594 56.472656 30.460938 56.1875 30.519531 C 55.859375 30.585938 55.644531 30.910156 55.710938 31.238281 C 55.777344 31.566406 56.097656 31.78125 56.429688 31.714844 C 56.636719 31.671875 56.84375 31.652344 57.054688 31.652344 C 58.757812 31.652344 60.144531 33.039062 60.144531 34.742188 L 60.144531 35.734375 C 60.144531 36.074219 60.414062 36.34375 60.753906 36.34375 C 61.089844 36.34375 61.363281 36.074219 61.363281 35.734375 Z M 61.363281 34.742188 "/>
<path style=" stroke:none;fill-rule:nonzero;fill:rgb(22.745098%,17.254902%,37.647059%);fill-opacity:1;" d="M 55.351562 41.6875 C 55.351562 42.625 56.113281 43.386719 57.050781 43.386719 C 57.988281 43.386719 58.753906 42.625 58.753906 41.6875 L 58.753906 37.648438 C 58.753906 37.3125 58.480469 37.039062 58.144531 37.039062 C 57.804688 37.039062 57.535156 37.3125 57.535156 37.648438 L 57.535156 41.6875 C 57.535156 41.953125 57.316406 42.167969 57.050781 42.167969 C 56.785156 42.167969 56.570312 41.953125 56.570312 41.6875 L 56.570312 41.210938 C 56.570312 40.875 56.296875 40.601562 55.960938 40.601562 C 55.625 40.601562 55.351562 40.875 55.351562 41.210938 Z M 55.351562 41.6875 "/>
<path style=" stroke:none;fill-rule:nonzero;fill:rgb(22.745098%,17.254902%,37.647059%);fill-opacity:1;" d="M 58.144531 36.710938 C 58.480469 36.710938 58.753906 36.4375 58.753906 36.101562 L 58.753906 34.742188 C 58.753906 33.804688 57.988281 33.042969 57.050781 33.042969 C 56.113281 33.042969 55.351562 33.804688 55.351562 34.742188 L 55.351562 39.253906 C 55.351562 39.589844 55.625 39.863281 55.960938 39.863281 C 56.296875 39.863281 56.570312 39.589844 56.570312 39.253906 L 56.570312 34.742188 C 56.570312 34.476562 56.785156 34.261719 57.050781 34.261719 C 57.316406 34.261719 57.535156 34.476562 57.535156 34.742188 L 57.535156 36.101562 C 57.535156 36.4375 57.804688 36.710938 58.144531 36.710938 Z M 58.144531 36.710938 "/>
<path style=" stroke:none;fill-rule:nonzero;fill:rgb(22.745098%,17.254902%,37.647059%);fill-opacity:1;" d="M 44.957031 32.574219 C 43.449219 35.804688 43.292969 39.429688 44.511719 42.78125 C 45.730469 46.128906 48.179688 48.804688 51.410156 50.3125 C 53.207031 51.148438 55.121094 51.566406 57.042969 51.566406 C 58.582031 51.566406 60.128906 51.296875 61.617188 50.753906 C 68.53125 48.238281 72.109375 40.566406 69.59375 33.648438 C 67.078125 26.734375 59.40625 23.15625 52.488281 25.671875 C 49.136719 26.894531 46.460938 29.34375 44.957031 32.574219 Z M 52.902344 26.820312 C 54.269531 26.324219 55.664062 26.085938 57.039062 26.085938 C 61.996094 26.085938 66.65625 29.148438 68.449219 34.066406 C 70.734375 40.351562 67.484375 47.324219 61.199219 49.613281 C 54.914062 51.898438 47.941406 48.648438 45.65625 42.363281 C 44.546875 39.320312 44.691406 36.027344 46.058594 33.089844 C 47.429688 30.152344 49.859375 27.925781 52.902344 26.820312 Z M 52.902344 26.820312 "/>
</g>
</svg>
