<?xml version="1.0" encoding="UTF-8"?>
<svg xmlns="http://www.w3.org/2000/svg" xmlns:xlink="http://www.w3.org/1999/xlink" width="78pt" height="78pt" viewBox="0 0 78 78" version="1.1">
<g id="surface1">
<path style=" stroke:none;fill-rule:nonzero;fill:rgb(100%,71.372549%,62.352941%);fill-opacity:1;" d="M 75.25 51.59375 C 73.742188 50.085938 71.300781 50.085938 69.792969 51.59375 L 60.832031 60.363281 C 60.210938 60.980469 59.367188 61.332031 58.492188 61.332031 L 41.429688 61.332031 C 39.347656 61.332031 37.554688 59.726562 37.460938 57.644531 C 37.359375 55.425781 39.128906 53.597656 41.324219 53.597656 L 48.234375 53.597656 C 50.15625 53.597656 51.777344 52.085938 51.820312 50.164062 C 51.867188 48.179688 50.269531 46.566406 48.308594 46.566406 L 33.699219 46.566406 C 29.40625 46.566406 25.332031 48.476562 22.589844 51.78125 C 21.160156 53.601562 18.972656 54.660156 16.660156 54.660156 L 15.117188 54.660156 L 15.117188 70.425781 L 59.929688 70.425781 C 61.050781 70.425781 62.128906 69.980469 62.925781 69.1875 L 75.25 57.054688 C 76.757812 55.542969 76.757812 53.101562 75.25 51.59375 Z M 75.25 51.59375 "/>
<path style=" stroke:none;fill-rule:nonzero;fill:rgb(44.705882%,75.686275%,90.980392%);fill-opacity:1;" d="M 13.832031 51.414062 L 1.617188 51.414062 L 1.617188 72.347656 L 13.832031 72.347656 C 14.542969 72.347656 15.117188 71.773438 15.117188 71.066406 L 15.117188 52.695312 C 15.117188 51.988281 14.542969 51.414062 13.832031 51.414062 Z M 13.832031 51.414062 "/>
<path style=" stroke:none;fill-rule:nonzero;fill:rgb(98.431373%,87.843137%,88.627451%);fill-opacity:1;" d="M 59.929688 67.691406 L 22.960938 67.691406 C 22.542969 67.691406 22.199219 67.351562 22.199219 66.929688 C 22.199219 66.507812 22.542969 66.167969 22.960938 66.167969 L 59.929688 66.167969 L 72.246094 54.035156 C 72.542969 53.742188 73.027344 53.746094 73.320312 54.046875 C 73.617188 54.34375 73.613281 54.828125 73.3125 55.121094 L 61.003906 67.238281 C 60.710938 67.53125 60.335938 67.691406 59.929688 67.691406 Z M 19.914062 67.691406 L 18.613281 67.691406 C 18.191406 67.691406 17.851562 67.351562 17.851562 66.929688 C 17.851562 66.507812 18.191406 66.167969 18.613281 66.167969 L 19.914062 66.167969 C 20.335938 66.167969 20.675781 66.507812 20.675781 66.929688 C 20.675781 67.351562 20.335938 67.691406 19.914062 67.691406 Z M 19.914062 67.691406 "/>
<path style=" stroke:none;fill-rule:nonzero;fill:rgb(77.254902%,89.803922%,100%);fill-opacity:1;" d="M 10.949219 69.546875 C 10.53125 69.546875 10.1875 69.203125 10.1875 68.785156 L 10.1875 67.5625 C 10.1875 67.144531 10.53125 66.800781 10.949219 66.800781 C 11.371094 66.800781 11.710938 67.144531 11.710938 67.5625 L 11.710938 68.785156 C 11.710938 69.203125 11.371094 69.546875 10.949219 69.546875 Z M 10.949219 65.277344 C 10.53125 65.277344 10.1875 64.9375 10.1875 64.515625 L 10.1875 54.765625 C 10.1875 54.347656 10.53125 54.003906 10.949219 54.003906 C 11.371094 54.003906 11.710938 54.347656 11.710938 54.765625 L 11.710938 64.515625 C 11.710938 64.9375 11.371094 65.277344 10.949219 65.277344 Z M 10.949219 65.277344 "/>
<path style=" stroke:none;fill-rule:nonzero;fill:rgb(94.117647%,75.294118%,12.54902%);fill-opacity:1;" d="M 38.101562 38.953125 L 38.101562 32.546875 C 38.101562 29.746094 40.367188 27.480469 43.167969 27.480469 L 48.328125 27.480469 C 51.128906 27.480469 53.398438 29.746094 53.398438 32.546875 L 53.398438 38.953125 Z M 38.101562 38.953125 "/>
<path style=" stroke:none;fill-rule:nonzero;fill:rgb(98.823529%,36.470588%,23.921569%);fill-opacity:1;" d="M 48.328125 13.503906 L 43.167969 13.503906 C 40.367188 13.503906 38.105469 15.769531 38.101562 18.570312 L 38.101562 32.546875 C 38.101562 29.746094 40.367188 27.480469 43.167969 27.480469 L 48.328125 27.480469 C 51.128906 27.480469 53.398438 29.746094 53.398438 32.546875 C 53.398438 30.09375 53.398438 20.0625 53.398438 18.570312 C 53.394531 15.769531 51.128906 13.503906 48.328125 13.503906 Z M 48.328125 13.503906 "/>
<path style=" stroke:none;fill-rule:nonzero;fill:rgb(100%,71.372549%,62.352941%);fill-opacity:1;" d="M 49.675781 9.578125 C 49.675781 11.746094 47.917969 13.503906 45.75 13.503906 C 43.582031 13.503906 41.824219 11.746094 41.824219 9.578125 C 41.824219 7.410156 43.582031 5.652344 45.75 5.652344 C 47.917969 5.652344 49.675781 7.410156 49.675781 9.578125 Z M 49.675781 9.578125 "/>
<path style=" stroke:none;fill-rule:nonzero;fill:rgb(100%,71.372549%,62.352941%);fill-opacity:1;" d="M 49.675781 23.554688 C 49.675781 25.722656 47.917969 27.480469 45.75 27.480469 C 43.582031 27.480469 41.824219 25.722656 41.824219 23.554688 C 41.824219 21.386719 43.582031 19.628906 45.75 19.628906 C 47.917969 19.628906 49.675781 21.386719 49.675781 23.554688 Z M 49.675781 23.554688 "/>
<path style=" stroke:none;fill-rule:nonzero;fill:rgb(100%,79.607843%,76.078431%);fill-opacity:1;" d="M 50.863281 19.988281 C 50.441406 19.988281 50.101562 19.648438 50.101562 19.226562 L 50.101562 18.570312 C 50.101562 17.59375 49.308594 16.800781 48.332031 16.800781 C 47.910156 16.800781 47.570312 16.457031 47.570312 16.039062 C 47.570312 15.617188 47.910156 15.277344 48.332031 15.277344 C 50.148438 15.277344 51.625 16.753906 51.625 18.570312 L 51.625 19.226562 C 51.625 19.648438 51.285156 19.988281 50.863281 19.988281 Z M 50.863281 19.988281 "/>
<path style=" stroke:none;fill-rule:nonzero;fill:rgb(94.117647%,75.294118%,12.54902%);fill-opacity:1;" d="M 38.101562 18.570312 L 38.101562 32.546875 C 38.101562 29.75 35.835938 27.480469 33.035156 27.480469 L 27.871094 27.480469 C 25.074219 27.480469 22.804688 29.75 22.804688 32.546875 L 22.804688 18.570312 C 22.804688 15.773438 25.074219 13.503906 27.871094 13.503906 L 33.035156 13.503906 C 35.832031 13.503906 38.101562 15.773438 38.101562 18.570312 Z M 38.101562 18.570312 "/>
<path style=" stroke:none;fill-rule:nonzero;fill:rgb(100%,71.372549%,62.352941%);fill-opacity:1;" d="M 34.378906 9.578125 C 34.378906 11.746094 32.621094 13.503906 30.453125 13.503906 C 28.285156 13.503906 26.527344 11.746094 26.527344 9.578125 C 26.527344 7.410156 28.285156 5.652344 30.453125 5.652344 C 32.621094 5.652344 34.378906 7.410156 34.378906 9.578125 Z M 34.378906 9.578125 "/>
<path style=" stroke:none;fill-rule:nonzero;fill:rgb(100%,71.372549%,62.352941%);fill-opacity:1;" d="M 34.378906 23.554688 C 34.378906 25.722656 32.621094 27.480469 30.453125 27.480469 C 28.285156 27.480469 26.527344 25.722656 26.527344 23.554688 C 26.527344 21.386719 28.285156 19.628906 30.453125 19.628906 C 32.621094 19.628906 34.378906 21.386719 34.378906 23.554688 Z M 34.378906 23.554688 "/>
<path style=" stroke:none;fill-rule:nonzero;fill:rgb(98.823529%,36.470588%,23.921569%);fill-opacity:1;" d="M 33.035156 27.476562 L 27.871094 27.476562 C 25.074219 27.476562 22.804688 29.75 22.804688 32.546875 L 22.804688 38.953125 L 38.101562 38.953125 L 38.101562 32.546875 C 38.101562 29.75 35.835938 27.476562 33.035156 27.476562 Z M 33.035156 27.476562 "/>
<path style=" stroke:none;fill-rule:nonzero;fill:rgb(100%,79.607843%,76.078431%);fill-opacity:1;" d="M 35.007812 37.179688 C 34.589844 37.179688 34.246094 36.839844 34.246094 36.417969 L 34.246094 32.546875 C 34.246094 31.570312 33.453125 30.773438 32.476562 30.773438 C 32.054688 30.773438 31.714844 30.433594 31.714844 30.011719 C 31.714844 29.59375 32.054688 29.25 32.476562 29.25 C 34.292969 29.25 35.769531 30.730469 35.769531 32.546875 L 35.769531 36.417969 C 35.769531 36.839844 35.429688 37.179688 35.007812 37.179688 Z M 35.007812 37.179688 "/>
<path style=" stroke:none;fill-rule:nonzero;fill:rgb(94.117647%,75.294118%,12.54902%);fill-opacity:1;" d="M 68.695312 18.570312 L 68.695312 32.546875 C 68.695312 29.75 66.425781 27.480469 63.628906 27.480469 L 58.464844 27.480469 C 55.667969 27.480469 53.398438 29.75 53.398438 32.546875 L 53.398438 18.570312 C 53.398438 15.773438 55.667969 13.503906 58.464844 13.503906 L 63.628906 13.503906 C 66.425781 13.503906 68.695312 15.773438 68.695312 18.570312 Z M 68.695312 18.570312 "/>
<path style=" stroke:none;fill-rule:nonzero;fill:rgb(100%,71.372549%,62.352941%);fill-opacity:1;" d="M 64.972656 9.578125 C 64.972656 11.746094 63.214844 13.503906 61.046875 13.503906 C 58.878906 13.503906 57.121094 11.746094 57.121094 9.578125 C 57.121094 7.410156 58.878906 5.652344 61.046875 5.652344 C 63.214844 5.652344 64.972656 7.410156 64.972656 9.578125 Z M 64.972656 9.578125 "/>
<path style=" stroke:none;fill-rule:nonzero;fill:rgb(100%,71.372549%,62.352941%);fill-opacity:1;" d="M 64.972656 23.554688 C 64.972656 25.722656 63.214844 27.480469 61.046875 27.480469 C 58.878906 27.480469 57.121094 25.722656 57.121094 23.554688 C 57.121094 21.386719 58.878906 19.628906 61.046875 19.628906 C 63.214844 19.628906 64.972656 21.386719 64.972656 23.554688 Z M 64.972656 23.554688 "/>
<path style=" stroke:none;fill-rule:nonzero;fill:rgb(98.823529%,36.470588%,23.921569%);fill-opacity:1;" d="M 63.628906 27.476562 L 58.464844 27.476562 C 55.667969 27.476562 53.398438 29.75 53.398438 32.546875 L 53.398438 38.953125 L 68.695312 38.953125 L 68.695312 32.546875 C 68.695312 29.75 66.425781 27.476562 63.628906 27.476562 Z M 63.628906 27.476562 "/>
<path style=" stroke:none;fill-rule:nonzero;fill:rgb(100%,79.607843%,76.078431%);fill-opacity:1;" d="M 65.601562 37.179688 C 65.183594 37.179688 64.839844 36.839844 64.839844 36.417969 L 64.839844 32.546875 C 64.839844 31.570312 64.046875 30.773438 63.070312 30.773438 C 62.648438 30.773438 62.308594 30.433594 62.308594 30.011719 C 62.308594 29.59375 62.648438 29.25 63.070312 29.25 C 64.886719 29.25 66.363281 30.730469 66.363281 32.546875 L 66.363281 36.417969 C 66.363281 36.839844 66.023438 37.179688 65.601562 37.179688 Z M 65.601562 37.179688 "/>
<path style=" stroke:none;fill-rule:nonzero;fill:rgb(0%,0%,0%);fill-opacity:1;" d="M 75.792969 51.058594 C 73.972656 49.238281 71.046875 49.261719 69.261719 51.046875 C 69.257812 51.046875 69.257812 51.046875 69.257812 51.050781 L 60.296875 59.816406 L 60.292969 59.824219 C 59.808594 60.304688 59.171875 60.570312 58.492188 60.570312 L 41.429688 60.570312 C 39.726562 60.570312 38.289062 59.242188 38.21875 57.609375 C 38.117188 55.9375 39.496094 54.363281 41.320312 54.359375 L 48.230469 54.359375 C 50.566406 54.359375 52.527344 52.523438 52.582031 50.179688 C 52.582031 47.59375 50.566406 45.808594 48.308594 45.808594 L 33.699219 45.804688 C 29.1875 45.804688 24.886719 47.820312 22.003906 51.296875 L 21.992188 51.3125 C 20.699219 52.953125 18.753906 53.898438 16.65625 53.898438 L 15.878906 53.898438 L 15.878906 52.695312 C 15.878906 51.570312 14.960938 50.652344 13.832031 50.652344 L 9.234375 50.652344 C 8.816406 50.652344 8.472656 50.992188 8.472656 51.414062 C 8.472656 51.832031 8.816406 52.175781 9.234375 52.175781 L 13.832031 52.175781 C 14.121094 52.175781 14.355469 52.410156 14.355469 52.695312 L 14.355469 71.066406 C 14.355469 71.351562 14.121094 71.585938 13.832031 71.585938 L 1.617188 71.585938 C 1.199219 71.585938 0.855469 71.929688 0.855469 72.347656 C 0.855469 72.769531 1.199219 73.109375 1.617188 73.109375 L 13.832031 73.109375 C 14.917969 73.109375 15.808594 72.257812 15.871094 71.1875 L 50.273438 71.1875 C 50.695312 71.1875 51.035156 70.847656 51.035156 70.425781 C 51.035156 70.003906 50.695312 69.664062 50.273438 69.664062 L 15.878906 69.664062 L 15.878906 55.421875 L 16.65625 55.421875 C 19.101562 55.421875 21.539062 54.339844 23.179688 52.261719 C 25.785156 49.128906 29.617188 47.328125 33.699219 47.328125 L 48.308594 47.328125 C 49.753906 47.332031 51.058594 48.480469 51.058594 50.148438 C 51.03125 51.628906 49.765625 52.835938 48.230469 52.835938 L 41.320312 52.835938 C 38.75 52.835938 36.585938 54.960938 36.699219 57.679688 C 36.820312 60.199219 38.964844 62.09375 41.429688 62.09375 L 58.492188 62.09375 C 59.574219 62.09375 60.597656 61.667969 61.363281 60.902344 L 70.324219 52.136719 L 70.332031 52.132812 C 71.554688 50.90625 73.515625 50.933594 74.710938 52.132812 C 75.917969 53.339844 75.921875 55.308594 74.710938 56.511719 L 62.390625 68.640625 L 62.386719 68.644531 C 61.730469 69.304688 60.855469 69.664062 59.929688 69.664062 L 56.367188 69.664062 C 55.945312 69.664062 55.605469 70.003906 55.605469 70.425781 C 55.605469 70.847656 55.945312 71.1875 56.367188 71.1875 L 59.929688 71.1875 C 61.261719 71.1875 62.511719 70.667969 63.457031 69.726562 L 75.785156 57.59375 L 75.789062 57.59375 C 77.589844 55.792969 77.601562 52.875 75.792969 51.058594 Z M 75.792969 51.058594 "/>
<path style=" stroke:none;fill-rule:nonzero;fill:rgb(0%,0%,0%);fill-opacity:1;" d="M 54.082031 70.425781 C 54.082031 70.847656 53.742188 71.1875 53.320312 71.1875 C 52.898438 71.1875 52.558594 70.847656 52.558594 70.425781 C 52.558594 70.003906 52.898438 69.664062 53.320312 69.664062 C 53.742188 69.664062 54.082031 70.003906 54.082031 70.425781 Z M 54.082031 70.425781 "/>
<path style=" stroke:none;fill-rule:nonzero;fill:rgb(0%,0%,0%);fill-opacity:1;" d="M 6.949219 51.414062 C 6.949219 51.832031 6.609375 52.175781 6.1875 52.175781 C 5.769531 52.175781 5.425781 51.832031 5.425781 51.414062 C 5.425781 50.992188 5.769531 50.652344 6.1875 50.652344 C 6.609375 50.652344 6.949219 50.992188 6.949219 51.414062 Z M 6.949219 51.414062 "/>
<path style=" stroke:none;fill-rule:nonzero;fill:rgb(0%,0%,0%);fill-opacity:1;" d="M 1.617188 50.652344 C 1.199219 50.652344 0.855469 50.992188 0.855469 51.414062 C 0.855469 51.832031 1.199219 52.175781 1.617188 52.175781 L 3.140625 52.175781 C 3.5625 52.175781 3.902344 51.832031 3.902344 51.414062 C 3.902344 50.992188 3.5625 50.652344 3.140625 50.652344 Z M 1.617188 50.652344 "/>
<path style=" stroke:none;fill-rule:nonzero;fill:rgb(0%,0%,0%);fill-opacity:1;" d="M 68.695312 39.714844 C 69.113281 39.714844 69.457031 39.371094 69.457031 38.953125 L 69.457031 18.570312 C 69.457031 15.632812 67.269531 13.199219 64.4375 12.804688 C 65.238281 11.964844 65.734375 10.828125 65.734375 9.578125 C 65.734375 6.992188 63.632812 4.890625 61.046875 4.890625 C 58.460938 4.890625 56.359375 6.992188 56.359375 9.578125 C 56.359375 10.828125 56.851562 11.964844 57.65625 12.804688 C 55.828125 13.0625 54.273438 14.160156 53.398438 15.703125 C 52.519531 14.160156 50.964844 13.0625 49.140625 12.804688 C 49.941406 11.964844 50.4375 10.828125 50.4375 9.578125 C 50.4375 6.992188 48.332031 4.890625 45.75 4.890625 C 43.164062 4.890625 41.0625 6.992188 41.0625 9.578125 C 41.0625 10.828125 41.554688 11.964844 42.355469 12.804688 C 40.53125 13.0625 38.976562 14.160156 38.101562 15.703125 C 37.226562 14.160156 35.671875 13.058594 33.84375 12.804688 C 34.644531 11.964844 35.140625 10.828125 35.140625 9.578125 C 35.140625 6.992188 33.039062 4.890625 30.453125 4.890625 C 27.867188 4.890625 25.765625 6.992188 25.765625 9.578125 C 25.765625 10.828125 26.261719 11.964844 27.0625 12.804688 C 24.230469 13.203125 22.042969 15.632812 22.042969 18.570312 L 22.042969 38.953125 C 22.042969 39.371094 22.382812 39.714844 22.804688 39.714844 C 23.222656 39.714844 23.566406 39.371094 23.566406 38.953125 L 23.566406 32.546875 C 23.566406 30.171875 25.496094 28.242188 27.871094 28.242188 L 33.035156 28.242188 C 35.40625 28.242188 37.339844 30.171875 37.339844 32.546875 L 37.339844 38.953125 C 37.339844 39.371094 37.679688 39.714844 38.101562 39.714844 C 38.519531 39.714844 38.863281 39.371094 38.863281 38.953125 L 38.863281 32.546875 C 38.863281 30.171875 40.792969 28.242188 43.167969 28.242188 L 48.328125 28.242188 C 50.703125 28.242188 52.636719 30.171875 52.636719 32.546875 L 52.636719 38.953125 C 52.636719 39.371094 52.976562 39.714844 53.398438 39.714844 C 53.816406 39.714844 54.160156 39.371094 54.160156 38.953125 L 54.160156 32.546875 C 54.160156 30.171875 56.089844 28.242188 58.464844 28.242188 L 63.628906 28.242188 C 66 28.242188 67.933594 30.171875 67.933594 32.546875 L 67.933594 38.953125 C 67.933594 39.371094 68.273438 39.714844 68.695312 39.714844 Z M 61.046875 6.414062 C 62.792969 6.414062 64.210938 7.832031 64.210938 9.578125 C 64.210938 11.320312 62.796875 12.738281 61.054688 12.742188 L 61.039062 12.742188 C 59.296875 12.738281 57.882812 11.320312 57.882812 9.578125 C 57.882812 7.832031 59.300781 6.414062 61.046875 6.414062 Z M 58.464844 14.265625 L 63.628906 14.265625 C 66 14.265625 67.933594 16.195312 67.933594 18.570312 L 67.933594 28.621094 C 66.75 27.324219 65.527344 27.023438 64.4375 26.78125 C 65.238281 25.9375 65.734375 24.804688 65.734375 23.554688 C 65.734375 20.96875 63.632812 18.867188 61.046875 18.867188 C 58.460938 18.867188 56.359375 20.96875 56.359375 23.554688 C 56.359375 24.804688 56.851562 25.9375 57.652344 26.78125 C 56.257812 26.976562 55.027344 27.667969 54.160156 28.621094 L 54.160156 18.570312 C 54.160156 16.195312 56.089844 14.265625 58.464844 14.265625 Z M 57.882812 23.554688 C 57.882812 21.808594 59.300781 20.390625 61.046875 20.390625 C 62.792969 20.390625 64.210938 21.808594 64.210938 23.554688 C 64.210938 25.289062 62.804688 26.703125 61.074219 26.714844 C 59.253906 26.714844 57.882812 25.261719 57.882812 23.554688 Z M 45.75 6.414062 C 47.492188 6.414062 48.914062 7.832031 48.914062 9.578125 C 48.914062 11.320312 47.5 12.738281 45.757812 12.742188 L 45.738281 12.742188 C 44 12.738281 42.585938 11.320312 42.585938 9.578125 C 42.585938 7.832031 44.003906 6.414062 45.75 6.414062 Z M 38.863281 18.570312 C 38.867188 16.195312 40.796875 14.265625 43.167969 14.265625 L 48.328125 14.265625 C 50.703125 14.265625 52.632812 16.195312 52.636719 18.570312 L 52.636719 28.621094 C 51.605469 27.492188 50.511719 27.054688 49.140625 26.78125 C 49.941406 25.9375 50.4375 24.804688 50.4375 23.554688 C 50.4375 20.96875 48.332031 18.867188 45.75 18.867188 C 43.164062 18.867188 41.0625 20.96875 41.0625 23.554688 C 41.0625 24.804688 41.554688 25.9375 42.355469 26.78125 C 40.96875 26.976562 39.746094 27.652344 38.863281 28.621094 Z M 42.585938 23.554688 C 42.585938 21.808594 44.003906 20.390625 45.75 20.390625 C 47.492188 20.390625 48.914062 21.808594 48.914062 23.554688 C 48.914062 25.289062 47.507812 26.703125 45.773438 26.714844 C 43.957031 26.714844 42.585938 25.261719 42.585938 23.554688 Z M 30.453125 6.414062 C 32.199219 6.414062 33.617188 7.832031 33.617188 9.578125 C 33.617188 11.320312 32.203125 12.738281 30.460938 12.742188 L 30.445312 12.742188 C 28.703125 12.738281 27.289062 11.320312 27.289062 9.578125 C 27.289062 7.832031 28.707031 6.414062 30.453125 6.414062 Z M 23.566406 28.621094 L 23.566406 18.570312 C 23.566406 16.195312 25.5 14.265625 27.871094 14.265625 L 33.035156 14.265625 C 35.410156 14.265625 37.339844 16.195312 37.339844 18.570312 L 37.339844 28.621094 C 36.308594 27.492188 35.214844 27.054688 33.847656 26.78125 C 34.644531 25.9375 35.140625 24.804688 35.140625 23.554688 C 35.140625 20.96875 33.039062 18.867188 30.453125 18.867188 C 27.867188 18.867188 25.765625 20.96875 25.765625 23.554688 C 25.765625 24.804688 26.261719 25.9375 27.058594 26.78125 C 25.71875 26.96875 24.472656 27.628906 23.566406 28.621094 Z M 30.425781 26.714844 C 28.695312 26.703125 27.289062 25.289062 27.289062 23.554688 C 27.289062 21.808594 28.707031 20.390625 30.453125 20.390625 C 32.199219 20.390625 33.617188 21.808594 33.617188 23.554688 C 33.617188 25.257812 32.246094 26.714844 30.425781 26.714844 Z M 30.425781 26.714844 "/>
</g>
</svg>
