<?xml version="1.0" encoding="UTF-8"?>
<svg xmlns="http://www.w3.org/2000/svg" xmlns:xlink="http://www.w3.org/1999/xlink" width="78pt" height="78pt" viewBox="0 0 78 78" version="1.1">
<g id="surface1">
<path style=" stroke:none;fill-rule:nonzero;fill:rgb(32.941176%,54.117647%,100%);fill-opacity:1;" d="M 30.46875 59.71875 C 28.449219 59.71875 26.8125 61.355469 26.8125 63.375 L 26.8125 74.34375 L 51.1875 74.34375 L 51.1875 63.375 C 51.1875 61.355469 49.550781 59.71875 47.53125 59.71875 Z M 30.46875 59.71875 "/>
<path style=" stroke:none;fill-rule:nonzero;fill:rgb(100%,80.784314%,71.372549%);fill-opacity:1;" d="M 41.4375 58.5 L 41.4375 62.15625 C 41.4375 63.503906 40.347656 64.59375 39 64.59375 C 37.652344 64.59375 36.5625 63.503906 36.5625 62.15625 L 36.5625 58.5 Z M 41.4375 58.5 "/>
<path style=" stroke:none;fill-rule:nonzero;fill:rgb(32.941176%,54.117647%,100%);fill-opacity:1;" d="M 7.3125 41.4375 C 5.292969 41.4375 3.65625 43.074219 3.65625 45.09375 L 3.65625 56.0625 L 28.03125 56.0625 L 28.03125 45.09375 C 28.03125 43.074219 26.394531 41.4375 24.375 41.4375 Z M 7.3125 41.4375 "/>
<path style=" stroke:none;fill-rule:nonzero;fill:rgb(100%,80.784314%,71.372549%);fill-opacity:1;" d="M 18.28125 40.21875 L 18.28125 43.875 C 18.28125 45.222656 17.191406 46.3125 15.84375 46.3125 C 14.496094 46.3125 13.40625 45.222656 13.40625 43.875 L 13.40625 40.21875 Z M 18.28125 40.21875 "/>
<path style=" stroke:none;fill-rule:nonzero;fill:rgb(32.941176%,54.117647%,100%);fill-opacity:1;" d="M 70.6875 41.4375 C 72.707031 41.4375 74.34375 43.074219 74.34375 45.09375 L 74.34375 56.0625 L 49.96875 56.0625 L 49.96875 45.09375 C 49.96875 43.074219 51.605469 41.4375 53.625 41.4375 Z M 70.6875 41.4375 "/>
<path style=" stroke:none;fill-rule:nonzero;fill:rgb(100%,76.862745%,19.215686%);fill-opacity:1;" d="M 49.65625 23.914062 C 49.84375 23.457031 50.292969 23.15625 50.789062 23.15625 L 54.84375 23.15625 L 54.84375 15.84375 L 50.789062 15.84375 C 50.292969 15.84375 49.84375 15.542969 49.65625 15.085938 C 49.464844 14.628906 49.570312 14.101562 49.921875 13.75 L 52.789062 10.882812 L 47.617188 5.710938 L 44.75 8.578125 C 44.398438 8.929688 43.871094 9.035156 43.414062 8.84375 C 42.957031 8.65625 42.65625 8.207031 42.65625 7.710938 L 42.65625 3.65625 L 35.34375 3.65625 L 35.34375 7.710938 C 35.34375 8.207031 35.042969 8.65625 34.585938 8.84375 C 34.128906 9.035156 33.601562 8.929688 33.25 8.578125 L 30.382812 5.710938 L 25.210938 10.882812 L 28.078125 13.75 C 28.429688 14.101562 28.535156 14.628906 28.34375 15.085938 C 28.15625 15.542969 27.707031 15.84375 27.210938 15.84375 L 23.15625 15.84375 L 23.15625 23.15625 L 27.210938 23.15625 C 27.707031 23.15625 28.15625 23.457031 28.34375 23.914062 C 28.535156 24.371094 28.429688 24.898438 28.078125 25.25 L 25.210938 28.117188 L 30.382812 33.289062 L 33.25 30.421875 C 33.601562 30.070312 34.128906 29.964844 34.585938 30.15625 C 35.042969 30.34375 35.34375 30.792969 35.34375 31.289062 L 35.34375 35.34375 L 42.65625 35.34375 L 42.65625 31.289062 C 42.65625 30.792969 42.957031 30.34375 43.414062 30.15625 C 43.871094 29.964844 44.398438 30.070312 44.75 30.421875 L 47.617188 33.289062 L 52.789062 28.117188 L 49.921875 25.25 C 49.570312 24.898438 49.464844 24.371094 49.65625 23.914062 Z M 39 23.15625 C 36.980469 23.15625 35.34375 21.519531 35.34375 19.5 C 35.34375 17.480469 36.980469 15.84375 39 15.84375 C 41.019531 15.84375 42.65625 17.480469 42.65625 19.5 C 42.65625 21.519531 41.019531 23.15625 39 23.15625 Z M 39 23.15625 "/>
<path style=" stroke:none;fill-rule:nonzero;fill:rgb(100%,80.784314%,71.372549%);fill-opacity:1;" d="M 64.59375 40.21875 L 64.59375 43.875 C 64.59375 45.222656 63.503906 46.3125 62.15625 46.3125 C 60.808594 46.3125 59.71875 45.222656 59.71875 43.875 L 59.71875 40.21875 Z M 64.59375 40.21875 "/>
<path style=" stroke:none;fill-rule:nonzero;fill:rgb(100%,80.784314%,71.372549%);fill-opacity:1;" d="M 39 60.9375 C 36.980469 60.9375 35.34375 59.300781 35.34375 57.28125 L 35.34375 56.0625 L 39 53.625 L 42.65625 53.625 L 42.65625 57.28125 C 42.65625 59.300781 41.019531 60.9375 39 60.9375 Z M 39 60.9375 "/>
<path style=" stroke:none;fill-rule:nonzero;fill:rgb(100%,80.784314%,71.372549%);fill-opacity:1;" d="M 15.84375 42.65625 C 13.824219 42.65625 12.1875 41.019531 12.1875 39 L 12.1875 37.78125 L 15.84375 35.34375 L 19.5 35.34375 L 19.5 39 C 19.5 41.019531 17.863281 42.65625 15.84375 42.65625 Z M 15.84375 42.65625 "/>
<path style=" stroke:none;fill-rule:nonzero;fill:rgb(100%,80.784314%,71.372549%);fill-opacity:1;" d="M 62.15625 42.65625 C 60.136719 42.65625 58.5 41.019531 58.5 39 L 58.5 37.78125 L 62.15625 35.34375 L 65.8125 35.34375 L 65.8125 39 C 65.8125 41.019531 64.175781 42.65625 62.15625 42.65625 Z M 62.15625 42.65625 "/>
<path style=" stroke:none;fill-rule:nonzero;fill:rgb(76.862745%,44.705882%,12.54902%);fill-opacity:1;" d="M 42.65625 53.625 L 43.117188 53.164062 C 43.601562 52.679688 43.875 52.019531 43.875 51.335938 C 43.875 49.90625 42.71875 48.75 41.289062 48.75 L 39 48.75 C 36.980469 48.75 35.34375 50.386719 35.34375 52.40625 L 35.34375 56.0625 L 39 53.625 Z M 42.65625 53.625 "/>
<path style=" stroke:none;fill-rule:nonzero;fill:rgb(76.862745%,44.705882%,12.54902%);fill-opacity:1;" d="M 19.5 35.34375 L 19.960938 34.882812 C 20.445312 34.398438 20.71875 33.738281 20.71875 33.054688 C 20.71875 31.625 19.5625 30.46875 18.132812 30.46875 L 15.84375 30.46875 C 13.824219 30.46875 12.1875 32.105469 12.1875 34.125 L 12.1875 37.78125 L 15.84375 35.34375 Z M 19.5 35.34375 "/>
<path style=" stroke:none;fill-rule:nonzero;fill:rgb(76.862745%,44.705882%,12.54902%);fill-opacity:1;" d="M 65.8125 35.34375 L 66.273438 34.882812 C 66.757812 34.398438 67.03125 33.738281 67.03125 33.054688 C 67.03125 31.625 65.875 30.46875 64.445312 30.46875 L 62.15625 30.46875 C 60.136719 30.46875 58.5 32.105469 58.5 34.125 L 58.5 37.78125 L 62.15625 35.34375 Z M 65.8125 35.34375 "/>
<path style=" stroke:none;fill-rule:nonzero;fill:rgb(0%,0%,0%);fill-opacity:1;" d="M 47.53125 58.5 L 43.722656 58.5 C 43.824219 58.101562 43.875 57.691406 43.875 57.28125 L 43.875 54.128906 L 43.980469 54.023438 C 45.066406 52.9375 45.394531 51.300781 44.804688 49.878906 C 44.214844 48.457031 42.828125 47.53125 41.289062 47.53125 L 39 47.53125 C 36.308594 47.535156 34.128906 49.714844 34.125 52.40625 L 34.125 57.28125 C 34.125 57.691406 34.175781 58.101562 34.277344 58.5 L 30.46875 58.5 C 27.777344 58.503906 25.597656 60.683594 25.59375 63.375 L 25.59375 74.34375 C 25.59375 75.015625 26.140625 75.5625 26.8125 75.5625 L 51.1875 75.5625 C 51.859375 75.5625 52.40625 75.015625 52.40625 74.34375 L 52.40625 63.375 C 52.402344 60.683594 50.222656 58.503906 47.53125 58.5 Z M 39 59.71875 C 37.65625 59.71875 36.5625 58.625 36.5625 57.28125 L 36.5625 56.714844 L 39.367188 54.84375 L 41.4375 54.84375 L 41.4375 57.28125 C 41.4375 58.625 40.34375 59.71875 39 59.71875 Z M 37.78125 62.003906 C 38.582031 62.207031 39.417969 62.207031 40.21875 62.003906 L 40.21875 62.15625 C 40.21875 62.828125 39.671875 63.375 39 63.375 C 38.328125 63.375 37.78125 62.828125 37.78125 62.15625 Z M 39 49.96875 L 41.289062 49.96875 C 41.84375 49.96875 42.339844 50.300781 42.550781 50.8125 C 42.765625 51.324219 42.648438 51.910156 42.257812 52.300781 L 42.152344 52.40625 L 39 52.40625 C 38.757812 52.40625 38.523438 52.476562 38.324219 52.609375 L 36.5625 53.785156 L 36.5625 52.40625 C 36.5625 51.0625 37.65625 49.96875 39 49.96875 Z M 49.96875 73.125 L 46.3125 73.125 L 46.3125 67.03125 L 43.875 67.03125 L 43.875 73.125 L 34.125 73.125 L 34.125 67.03125 L 31.6875 67.03125 L 31.6875 73.125 L 28.03125 73.125 L 28.03125 63.375 C 28.03125 62.03125 29.125 60.9375 30.46875 60.9375 L 35.34375 60.9375 L 35.34375 62.15625 C 35.34375 64.175781 36.980469 65.8125 39 65.8125 C 41.019531 65.8125 42.65625 64.175781 42.65625 62.15625 L 42.65625 60.9375 L 47.53125 60.9375 C 48.875 60.9375 49.96875 62.03125 49.96875 63.375 Z M 49.96875 73.125 "/>
<path style=" stroke:none;fill-rule:nonzero;fill:rgb(0%,0%,0%);fill-opacity:1;" d="M 3.65625 57.28125 L 28.03125 57.28125 C 28.703125 57.28125 29.25 56.734375 29.25 56.0625 L 29.25 45.09375 C 29.246094 42.402344 27.066406 40.222656 24.375 40.21875 L 20.566406 40.21875 C 20.667969 39.820312 20.71875 39.410156 20.71875 39 L 20.71875 35.847656 L 20.824219 35.742188 C 21.910156 34.65625 22.238281 33.019531 21.648438 31.597656 C 21.058594 30.175781 19.671875 29.25 18.132812 29.25 L 15.84375 29.25 C 13.152344 29.253906 10.972656 31.433594 10.96875 34.125 L 10.96875 39 C 10.96875 39.410156 11.019531 39.820312 11.121094 40.21875 L 7.3125 40.21875 C 4.621094 40.222656 2.441406 42.402344 2.4375 45.09375 L 2.4375 56.0625 C 2.4375 56.734375 2.984375 57.28125 3.65625 57.28125 Z M 15.84375 41.4375 C 14.5 41.4375 13.40625 40.34375 13.40625 39 L 13.40625 38.433594 L 16.210938 36.5625 L 18.28125 36.5625 L 18.28125 39 C 18.28125 40.34375 17.1875 41.4375 15.84375 41.4375 Z M 14.625 43.722656 C 15.425781 43.925781 16.261719 43.925781 17.0625 43.722656 L 17.0625 43.875 C 17.0625 44.546875 16.515625 45.09375 15.84375 45.09375 C 15.171875 45.09375 14.625 44.546875 14.625 43.875 Z M 15.84375 31.6875 L 18.132812 31.6875 C 18.6875 31.6875 19.183594 32.019531 19.394531 32.53125 C 19.609375 33.042969 19.492188 33.628906 19.101562 34.019531 L 18.996094 34.125 L 15.84375 34.125 C 15.601562 34.125 15.367188 34.195312 15.167969 34.328125 L 13.40625 35.503906 L 13.40625 34.125 C 13.40625 32.78125 14.5 31.6875 15.84375 31.6875 Z M 4.875 45.09375 C 4.875 43.75 5.96875 42.65625 7.3125 42.65625 L 12.1875 42.65625 L 12.1875 43.875 C 12.1875 45.894531 13.824219 47.53125 15.84375 47.53125 C 17.863281 47.53125 19.5 45.894531 19.5 43.875 L 19.5 42.65625 L 24.375 42.65625 C 25.71875 42.65625 26.8125 43.75 26.8125 45.09375 L 26.8125 54.84375 L 23.15625 54.84375 L 23.15625 48.75 L 20.71875 48.75 L 20.71875 54.84375 L 10.96875 54.84375 L 10.96875 48.75 L 8.53125 48.75 L 8.53125 54.84375 L 4.875 54.84375 Z M 4.875 45.09375 "/>
<path style=" stroke:none;fill-rule:nonzero;fill:rgb(0%,0%,0%);fill-opacity:1;" d="M 70.6875 40.21875 L 66.878906 40.21875 C 66.980469 39.820312 67.03125 39.410156 67.03125 39 L 67.03125 35.847656 L 67.136719 35.742188 C 68.222656 34.65625 68.550781 33.019531 67.960938 31.597656 C 67.371094 30.175781 65.984375 29.25 64.445312 29.25 L 62.15625 29.25 C 59.464844 29.253906 57.285156 31.433594 57.28125 34.125 L 57.28125 39 C 57.28125 39.410156 57.332031 39.820312 57.433594 40.21875 L 53.625 40.21875 C 50.933594 40.222656 48.753906 42.402344 48.75 45.09375 L 48.75 56.0625 C 48.75 56.734375 49.296875 57.28125 49.96875 57.28125 L 74.34375 57.28125 C 75.015625 57.28125 75.5625 56.734375 75.5625 56.0625 L 75.5625 45.09375 C 75.558594 42.402344 73.378906 40.222656 70.6875 40.21875 Z M 62.15625 41.4375 C 60.8125 41.4375 59.71875 40.34375 59.71875 39 L 59.71875 38.433594 L 62.523438 36.5625 L 64.59375 36.5625 L 64.59375 39 C 64.59375 40.34375 63.5 41.4375 62.15625 41.4375 Z M 60.9375 43.722656 C 61.738281 43.925781 62.574219 43.925781 63.375 43.722656 L 63.375 43.875 C 63.375 44.546875 62.828125 45.09375 62.15625 45.09375 C 61.484375 45.09375 60.9375 44.546875 60.9375 43.875 Z M 62.15625 31.6875 L 64.445312 31.6875 C 65 31.6875 65.496094 32.019531 65.707031 32.53125 C 65.921875 33.042969 65.804688 33.628906 65.414062 34.019531 L 65.308594 34.125 L 62.15625 34.125 C 61.914062 34.125 61.679688 34.195312 61.480469 34.328125 L 59.71875 35.503906 L 59.71875 34.125 C 59.71875 32.78125 60.8125 31.6875 62.15625 31.6875 Z M 73.125 54.84375 L 69.46875 54.84375 L 69.46875 48.75 L 67.03125 48.75 L 67.03125 54.84375 L 57.28125 54.84375 L 57.28125 48.75 L 54.84375 48.75 L 54.84375 54.84375 L 51.1875 54.84375 L 51.1875 45.09375 C 51.1875 43.75 52.28125 42.65625 53.625 42.65625 L 58.5 42.65625 L 58.5 43.875 C 58.5 45.894531 60.136719 47.53125 62.15625 47.53125 C 64.175781 47.53125 65.8125 45.894531 65.8125 43.875 L 65.8125 42.65625 L 70.6875 42.65625 C 72.03125 42.65625 73.125 43.75 73.125 45.09375 Z M 73.125 54.84375 "/>
<path style=" stroke:none;fill-rule:nonzero;fill:rgb(0%,0%,0%);fill-opacity:1;" d="M 54.007812 10.882812 C 54.007812 10.558594 53.878906 10.25 53.648438 10.019531 L 48.480469 4.851562 C 48.003906 4.375 47.230469 4.375 46.757812 4.851562 L 43.875 7.710938 L 43.875 3.65625 C 43.875 2.984375 43.328125 2.4375 42.65625 2.4375 L 35.34375 2.4375 C 34.671875 2.4375 34.125 2.984375 34.125 3.65625 L 34.113281 7.71875 L 31.242188 4.851562 C 30.769531 4.375 29.996094 4.375 29.519531 4.851562 L 24.351562 10.019531 C 23.875 10.496094 23.875 11.269531 24.351562 11.742188 L 27.210938 14.625 L 23.15625 14.625 C 22.484375 14.625 21.9375 15.171875 21.9375 15.84375 L 21.9375 18.28125 L 15.84375 18.28125 C 15.171875 18.28125 14.625 18.828125 14.625 19.5 L 14.625 26.8125 L 17.0625 26.8125 L 17.0625 20.71875 L 21.9375 20.71875 L 21.9375 23.15625 C 21.9375 23.828125 22.484375 24.375 23.15625 24.375 L 27.210938 24.375 L 27.21875 24.386719 L 24.351562 27.257812 C 23.875 27.730469 23.875 28.503906 24.351562 28.980469 L 29.519531 34.148438 C 29.996094 34.625 30.769531 34.625 31.242188 34.148438 L 34.125 31.289062 L 34.125 35.34375 C 34.125 36.015625 34.671875 36.5625 35.34375 36.5625 L 37.78125 36.5625 L 37.78125 45.09375 L 40.21875 45.09375 L 40.21875 36.5625 L 42.65625 36.5625 C 43.328125 36.5625 43.875 36.015625 43.875 35.34375 L 43.886719 31.28125 L 46.757812 34.148438 C 47.230469 34.625 48.003906 34.625 48.480469 34.148438 L 53.648438 28.980469 C 54.125 28.503906 54.125 27.730469 53.648438 27.257812 L 50.789062 24.375 L 54.84375 24.375 C 55.515625 24.375 56.0625 23.828125 56.0625 23.15625 L 56.0625 20.71875 L 60.9375 20.71875 L 60.9375 26.8125 L 63.375 26.8125 L 63.375 19.5 C 63.375 18.828125 62.828125 18.28125 62.15625 18.28125 L 56.0625 18.28125 L 56.0625 15.84375 C 56.0625 15.171875 55.515625 14.625 54.84375 14.625 L 50.78125 14.613281 L 53.648438 11.742188 C 53.878906 11.515625 54.007812 11.207031 54.007812 10.882812 Z M 49.058594 12.886719 C 48.359375 13.585938 48.152344 14.640625 48.527344 15.554688 C 48.90625 16.464844 49.800781 17.0625 50.789062 17.0625 L 53.625 17.0625 L 53.625 21.9375 L 50.789062 21.9375 C 49.800781 21.9375 48.90625 22.535156 48.527344 23.445312 C 48.152344 24.359375 48.359375 25.414062 49.058594 26.113281 L 51.066406 28.117188 L 47.617188 31.566406 L 45.613281 29.558594 C 44.914062 28.859375 43.859375 28.652344 42.945312 29.027344 C 42.035156 29.40625 41.4375 30.300781 41.4375 31.289062 L 41.4375 34.125 L 36.5625 34.125 L 36.5625 31.289062 C 36.5625 30.300781 35.964844 29.40625 35.054688 29.027344 C 34.140625 28.652344 33.085938 28.859375 32.386719 29.558594 L 30.382812 31.566406 L 26.933594 28.117188 L 28.941406 26.113281 C 29.640625 25.414062 29.847656 24.359375 29.472656 23.445312 C 29.09375 22.535156 28.199219 21.9375 27.210938 21.9375 L 24.375 21.9375 L 24.375 17.0625 L 27.210938 17.0625 C 28.199219 17.0625 29.09375 16.464844 29.472656 15.554688 C 29.847656 14.640625 29.640625 13.585938 28.941406 12.886719 L 26.933594 10.882812 L 30.382812 7.433594 L 32.386719 9.441406 C 33.085938 10.140625 34.140625 10.347656 35.054688 9.972656 C 35.964844 9.59375 36.5625 8.699219 36.5625 7.710938 L 36.5625 4.875 L 41.4375 4.875 L 41.4375 7.710938 C 41.4375 8.699219 42.035156 9.59375 42.945312 9.972656 C 43.859375 10.347656 44.914062 10.140625 45.613281 9.441406 L 47.617188 7.433594 L 51.066406 10.882812 Z M 49.058594 12.886719 "/>
<path style=" stroke:none;fill-rule:nonzero;fill:rgb(0%,0%,0%);fill-opacity:1;" d="M 39 14.625 C 36.308594 14.625 34.125 16.808594 34.125 19.5 C 34.125 22.191406 36.308594 24.375 39 24.375 C 41.691406 24.375 43.875 22.191406 43.875 19.5 C 43.871094 16.808594 41.691406 14.628906 39 14.625 Z M 39 21.9375 C 37.652344 21.9375 36.5625 20.847656 36.5625 19.5 C 36.5625 18.152344 37.652344 17.0625 39 17.0625 C 40.347656 17.0625 41.4375 18.152344 41.4375 19.5 C 41.4375 20.84375 40.34375 21.9375 39 21.9375 Z M 39 21.9375 "/>
<path style=" stroke:none;fill-rule:nonzero;fill:rgb(0%,0%,0%);fill-opacity:1;" d="M 23.15625 67.03125 L 17.0625 67.03125 L 17.0625 59.71875 L 14.625 59.71875 L 14.625 68.25 C 14.625 68.921875 15.171875 69.46875 15.84375 69.46875 L 23.15625 69.46875 Z M 23.15625 67.03125 "/>
<path style=" stroke:none;fill-rule:nonzero;fill:rgb(0%,0%,0%);fill-opacity:1;" d="M 60.9375 67.03125 L 54.84375 67.03125 L 54.84375 69.46875 L 62.15625 69.46875 C 62.828125 69.46875 63.375 68.921875 63.375 68.25 L 63.375 59.71875 L 60.9375 59.71875 Z M 60.9375 67.03125 "/>
</g>
</svg>
