<?xml version="1.0" encoding="UTF-8"?>
<svg viewBox="0 0 300 300" xmlns="http://www.w3.org/2000/svg" xmlns:xlink="http://www.w3.org/1999/xlink">
 <defs>
  <linearGradient id="c">
   <stop stop-color="#11df40" offset="0"/>
   <stop stop-color="#cbefe0" offset="1"/>
  </linearGradient>
  <linearGradient id="a">
   <stop stop-color="#f44c11" offset="0"/>
   <stop stop-color="#f8f65d" offset="1"/>
  </linearGradient>
  <linearGradient id="g" x1="1323.4" x2="885.42" gradientUnits="userSpaceOnUse" xlink:href="#c" spreadMethod="reflect"/>
  <linearGradient id="d" x1="219.68" x2="910.01" y1="1089.7" y2="945.98" gradientTransform="matrix(.08159 .02186 -.02693 .10049 88.209 601.55)" gradientUnits="userSpaceOnUse" xlink:href="#a"/>
  <linearGradient id="e" x1="36.19" x2="94.503" y1="671.73" y2="656.77" gradientUnits="userSpaceOnUse" xlink:href="#a"/>
  <linearGradient id="f" x1="219.68" x2="910.01" y1="1089.7" y2="945.98" gradientTransform="matrix(-.08447 0 0 .10404 201.24 558.77)" gradientUnits="userSpaceOnUse" xlink:href="#a"/>
  <linearGradient id="b" x1="66.933" x2="900.73" y1="1107" y2="960.43" gradientTransform="matrix(-1 0 0 1 1390.4 -850.6)" gradientUnits="userSpaceOnUse" xlink:href="#c"/>
 </defs>
 <g transform="matrix(1.4162 0 0 1.4162 -11.602 -799.38)">
  <path transform="matrix(-.12107 0 0 .12107 165.86 644.99)" d="m901.37-105.8c167.98 4.768 299.75 279.85 237.61 373.13s-426.76 93.284-486.17 0 75.104-378.06 248.55-373.13z" fill="url(#b)" fill-rule="evenodd" stroke="#383838" stroke-width="6.9111"/>
  <path transform="matrix(-.54295 0 0 .60622 303.12 430.5)" d="m496.96 320.73c0 25.731-20.859 46.59-46.59 46.59s-46.59-20.859-46.59-46.59 20.859-46.59 46.59-46.59c25.584 0 46.382 20.63 46.589 46.213" fill="#fca" fill-rule="evenodd" stroke="#383838" stroke-width="1.4584"/>
  <path transform="matrix(-.12107 0 0 .12107 165.86 644.99)" d="m1007.7-265.76s-80.138 70.8-169.91 65.276c-89.912-5.5324-179.82-37.614-179.82-37.614s-4.9732-204.8 231.54-208.01c162.2-2.2452 227.4 72.076 258.38 208.01 31.311 137.35-55.226 217.96-55.226 217.96s-46.014-44.807-67.253-106.21-17.703-139.41-17.703-139.41z" fill="#4c4c4f" fill-rule="evenodd" stroke="#383838" stroke-width="6.9111"/>
  <path transform="matrix(.12107 0 0 .12107 54.042 645.48)" d="m901.37-105.8c167.98 4.768 299.75 279.85 237.61 373.13s-426.76 93.284-486.17 0 75.104-378.06 248.55-373.13z" fill="url(#b)" fill-rule="evenodd" stroke="#383838" stroke-width="6.9111"/>
  <path transform="matrix(.54295 0 0 .60622 -83.219 431)" d="m496.96 320.73c0 25.731-20.859 46.59-46.59 46.59s-46.59-20.859-46.59-46.59 20.859-46.59 46.59-46.59c25.584 0 46.382 20.63 46.589 46.213" fill="#fca" fill-rule="evenodd" stroke="#383838" stroke-width="1.4584"/>
  <path transform="matrix(.12107 0 0 .12107 54.042 645.48)" d="m1007.7-265.76s-80.138 70.8-169.91 65.276c-89.912-5.5324-179.82-37.614-179.82-37.614s-4.9732-204.8 231.54-208.01c162.2-2.2452 247.93 67.513 278.92 203.44 31.311 137.35-41.629 357.13-73.478 357.13s-61.984-104.13-83.224-165.53-4.0145-214.69-4.0145-214.69z" fill="#4c4c4f" fill-rule="evenodd" stroke="#383838" stroke-width="6.9111"/>
  <path d="m169.45 652.42c2.6786 4.1244-3.1459 7.4329-7.734 10.082s-6.1902 8.7007-10.22 8.7007-4.4557-8.7875-5.6624-11.463-4.428-8.2673-0.96674-12.568c7.1902 6.61 16.794 7.6147 24.583 5.2481z" fill="#fca" stroke="#333537"/>
  <path d="m158.87 653.81-3.3541 4.2917 1.8948 13.836-8.2553 5.851-3.089-9.2722 5.8679-11.121-1.2415-5.8102 8.1773 2.2246z" fill="url(#f)" fill-rule="evenodd" stroke="#383838" stroke-width=".64788"/>
  <path d="m60.004 653.4 3.3541 4.2917-1.8948 13.836 8.2553 5.851 3.089-9.2722-5.8679-11.121 1.2415-5.8102-8.1773 2.2246z" fill="url(#e)" fill-rule="evenodd" stroke="#383838" stroke-width=".64788"/>
  <g transform="matrix(.12107 0 0 .12107 47.147 696.28)" fill-rule="evenodd" stroke="#383838">
   <path transform="matrix(-1 0 0 1 1394.7 0)" d="m901.37-105.8c167.98 4.768 299.75 279.85 237.61 373.13s-426.76 93.284-486.17 0 75.104-378.06 248.55-373.13z" fill="url(#g)" stroke-width="6.9111"/>
   <path transform="matrix(-4.4846 0 0 5.0072 2528.4 -1771.6)" d="m496.96 320.73c0 25.731-20.859 46.59-46.59 46.59s-46.59-20.859-46.59-46.59 20.859-46.59 46.59-46.59c25.584 0 46.382 20.63 46.589 46.213" fill="#fca" stroke-width="1.4584"/>
   <path d="m229.07-223.17c-25.257 124.08 143.67 229.84 143.67 229.84s-62.114-73.403-44.982-128.87 27.692-159.19 27.692-159.19 51.26 47.465 149.5 48.397 149.5-46.532 149.5-46.532 10.559 103.48 27.692 158.95-28.462 129.11-28.462 129.11 152.41-105.99 127.15-230.07c-24.996-122.8-77.582-189.97-277.53-188.67s-250.02 68.075-274.23 187.03z" fill="#4c4c4f" stroke-width="5.8997"/>
  </g>
  <path d="m104.54 704.32 2.1291 5.0136-5.4112 12.874 7.2409 10.523 7.532-10.305-4.9381-12.846 1.9218-5.2908-8.4744 0.0323z" fill="url(#d)" fill-rule="evenodd" stroke="#383838" stroke-width=".64788"/>
  <g transform="translate(-2,-2)">
   <path d="m85.316 708.17h14.983a1.3244 1.8589 0 0 1 1.3244 1.8589v7.3875a1.3244 1.8589 0 0 1 -1.3244 1.8589h-14.983a1.3244 1.8589 0 0 1 -1.3244 -1.8589v-7.3875a1.3244 1.8589 0 0 1 1.3244 -1.8589" fill="#e2ffff" fill-rule="evenodd" stroke="#d4d3d2" stroke-width=".06737"/>
   <path d="m85.28678,708.95477h5.14076a.48228,.73019 0 0,1 .48228.73019v3.70025a.48228,.73019 0 0,1 -.48228.73019h-5.14076a.48228,.73019 0 0,1 -.48228-.73019v-3.70025a.48228,.73019 0 0,1 .48228-.73019" fill="#e4e4e6" stroke="#797b7b" stroke-width=".07458"/>
   <path d="m92.41531,711.47266h6.82499a.48228,.16632 0 0,1 .48228.16632 .48228,.16632 0 0,1 -.48228.16632h-6.82499a.48228,.16632 0 0,1 -.48228-.16632 .48228,.16632 0 0,1 .48228-.16632" fill="#929293" fill-rule="evenodd" stroke="#797b7b" stroke-linejoin="round" stroke-width=".01071"/>
   <path d="m92.38583,712.67065h6.82499a.48228,.16105 0 0,1 .48228.16105 .48228,.16105 0 0,1 -.48228.16105h-6.82499a.48228,.16105 0 0,1 -.48228-.16105 .48228,.16105 0 0,1 .48228-.16105" fill="#929293" fill-rule="evenodd" stroke="#797b7b" stroke-linejoin="round" stroke-width=".01054"/>
   <path d="m85.75581,715.41937h8.76933a.61968,.16428 0 0,1 .61968.16428 .61968,.16428 0 0,1 -.61968.16428h-8.76933a.61968,.16428 0 0,1 -.61968-.16428 .61968,.16428 0 0,1 .61968-.16428" fill="#929293" fill-rule="evenodd" stroke="#797b7b" stroke-linejoin="round" stroke-width=".01207"/>
   <g transform="matrix(.06737 0 0 .06737 80.143 655.68)">
    <path d="m276.17 881.55c-13.866 0-25.107 11.241-25.107 25.107s11.241 25.107 25.107 25.107 25.107-11.241 25.107-25.107v-0.204c-0.11166-13.787-11.32-24.903-25.107-24.903zm-0.21968 7.6263c9.4786 0 17.184 7.6417 17.261 17.12v0.14123c0 9.5331-7.7281 17.261-17.261 17.261s-17.261-7.7281-17.261-17.261 7.7281-17.261 17.261-17.261z" fill="none" stroke="#f00" stroke-linejoin="round" stroke-width="1.0043"/>
    <g transform="matrix(.6032 0 0 .6032 213.2 646)" fill="#f00" font-family="Sans" font-size="40" letter-spacing="0" word-spacing="0">
     <path d="m74.56326,425.39923c-.13136.55552-.27765,1.0787-.44304,1.5719-.09427.37499-.20244.73221-.32456,1.07193-.29866.83082-.66924,1.5297-1.11197,2.09834s-.95185.99322-1.52718,1.27255c-.5814.26377-1.21737.35421-1.90721.26635s-1.276-.35686-1.75773-.81251c-.48774-.47155-.87066-1.06944-1.14866-1.79442s-.4539-1.55455-.52806-2.48672c-.02492-.31335-.03822-.63218-.03991-.95634 .04424-.67742.14957-1.3785.31891-2.09651 .16132-.68392.34358-1.28886.53809-1.81318 .19885-.54006.39277-.99546.57455-1.36767 .1866-.38778.35382-.69448.49685-.92236s.24671-.38175.30879-.46382l.69658.92977c-.09034.12126-.20396.30213-.33867.54412s-.27946.52356-.4321.8456c-.14815.30677-.29294.65705-.43149,1.05079-.14217.37644-.26246.76742-.35991,1.17131-.20091.83271-.28987,1.60282-.27705,2.29781l.0049.0521c.06588.68237.21152,1.27636.43705,1.78108s.528.91215.90724,1.22298c.37323.29489.81325.47684 1.31968.54843 .49062.0694.95079.0298 1.38017-.11636 .43125-.16075.81984-.4297 1.16563-.80588 .33789-.37735.62507-.86317.86165-1.45803 .02986-.0763.05868-.15437.08646-.23419 .22622-.51805.4147-1.11017.57595-1.78059 .21294-.88532.36177-1.62227.4253-2.22541s.109-1.06038.12111-1.37222c.35872-.066.71706-.12719 1.07492-.18355 .007.10045.0015.2735-.01369.51891-.02276.24303-.06223.54238-.11442.89876s-.12477.76762-.21271,1.23558-.19756.97072-.32542,1.51143z"/>
     <path d="m77.1007,415.87445c.20987-.38708.39851-.72489.56102-1.01629 .16238-.30694.29228-.56383.38574-.77334l-1.57852-.98766c-.10913.0989-.26022.28083-.44842.54918-.18779.25206-.39522.5764-.61515.97515-.08817.15986-.17497.32956-.25992.50903-.05418.11423-.10766.23242-.16031.35456-.12879.30127-.21867.59778-.27033.88689-.05268.27294-.05469.52116-.0079.74288 .03954.21841.15926.37053.35613.45828 .36457.16252.70872.0762 1.03929-.24444 .28481-.28541.57093-.69668.87449-1.23048l.12386-.22376zm-5.01261-2.48677c.41241-.77736.83915-1.38711 1.25224-1.83221 .41444-.46264.81754-.77829 1.19508-.95362 .37949-.19261.73596-.26205 1.06545-.21566 .32294.0418.62688.16767.91392.37202l3.18027,2.26436c-.07721.13631-.1846.33067-.31824.58483-.133.23893-.28462.51173-.45183.82005s-.34991.64455-.54519,1.01047c-.18182.35877-.36706.71472-.55627,1.06865l-.01629.0304c-.26408.48897-.52589.93154-.79283,1.32808s-.54559.74226-.82667,1.01104c-.28845.2657-.58715.44776-.9007.54266s-.63824.0825-.97392-.0448c-.32076-.12158-.55402-.33647-.69402-.65035-.1347-.32706-.18887-.72012-.15598-1.17651s.13983-.96584.32776-1.52152c.14744-.43594.33093-.87697.55139-1.31951l.19012-.36497c.0978-.17968.20772-.36113.32991-.54371 .11522-.18652.23194-.35523.34926-.50618 .11786-.16755.22226-.30886.31209-.42468s.15401-.19585.19168-.24095l-.26478-.16567c-.15615-.0977-.32844-.16217-.51748-.19177-.19584-.0338-.40337-.003-.62163.0947-.2251.0936-.46208.27154-.70616.53624-.23243.2363-.47628.58133-.72076,1.03673l-.03467.0654c-.32696.62367-.57332,1.19353-.74843,1.70072-.1759.49003-.28405.86604-.33517,1.12472l-.94957-.12434c.05062-.28221.17987-.73553.40598-1.35483 .20815-.59217.47741-1.21478.81303-1.86019l.05241-.0996z"/>
     <path d="m80.15022,403.28972c.14449-.1233.31334-.25473.50712-.39285 .20095-.15431.40268-.29504.60441-.42222s.3788-.24691.54494-.34136c.174-.11031.30467-.18582.39069-.22855 .08769.33626.1791.6707.27417,1.00329-.15386.0747-.40196.21556-.73934.431-.33032.19968-.73342.4959-1.19602.89911-.30069.26211-.5805.54797-.83733.85549-.25117.29123-.41063.48812-.48626.58524l3.68094,3.726c-.42065.41721-.82851.8501-1.22311,1.2971l-4.46938-3.96445c.27004-.44848.64039-.98115 1.12832-1.58328 .48227-.60777 1.0864-1.23771 1.82085-1.86452z"/>
     <path d="m85.82465,399.60207c1.37013-.72116 2.7849-1.34091 4.23151-1.86631l.31701.87696c-1.4087.51049-2.78407,1.1126-4.11329,1.81338l1.33918,2.53549c.14508.27467.30237.48416.46967.63019 .16362.13896.34289.225.53822.25975 .19173.0276.40327.011.63696-.048s.49298-.15335.78136-.28055c.50465-.22259.90117-.41884 1.18454-.60466 .29284-.19801.50036-.33158.6155-.40649l.6426.75083c-.15378.11155-.43161.27886-.82283.51263-.38838.24121-.84296.47204-1.3629.70498-.61238.27435-1.12847.47764-1.56714.59424-.43124.10361-.81336.13514-1.15393.0864s-.64307-.1709-.90721-.37322c-.25708-.21613-.49779-.49861-.71743-.85121l-2.93972-4.71936c.62892-.46078 1.27261-.89931 1.92953-1.31595z"/>
     <path d="m92.81369,400.11101c-.15901-.52747-.15977-1.02845.014-1.5025 .17156-.48171.46762-.92147.89141-1.30994s.9519-.72349 1.58017-.99316 1.29529-.46089 1.9905-.56965c1.62215-.25372 2.90851-.0963 3.8013.37259 .89224.46086 1.34013,1.24695 1.38635,2.32101 .002.0481.005.11222.008.19238 .003.0721-.001.14059-.0128.20536-2.55941.11515-5.11096.44315-7.57899,1.02556 .23316.61108.66456,1.01338 1.28404,1.22958s1.49801.21817 2.67481.0602c.6628-.0889 1.21734-.17951 1.66296-.28554 .45855-.11529.80486-.20893 1.03524-.28916 .11066.30627.21935.6129.32608.91985-.22526.0867-.62481.18918-1.19219.32166-.55401.13125-1.186.24009-1.89664.33874-.89488.12422-1.67363.18234-2.35463.15773-.66968-.0351-1.24463-.13252-1.73236-.30535s-.89277-.41168-1.21378-.72653c-.31003-.32632-.5378-.71183-.67377-1.16287zm7.50986-2.04338c-.0313-.50526-.30417-.89809-.83443-1.1641-.51609-.2756-1.21504-.35906-2.07621-.22437-.48346.0756-.90453.20294-1.25944.37613-.34143.16248-.62091.35076-.83834.56093s-.37452.43441-.47288.67049c-.08387.23278-.12109.45952-.11399.67988 1.83353-.43239 3.70823-.72677 5.59528-.89896z"/>
     <path d="m119.82435,400.30937c.65879.26864 1.30855.5584 1.94787.87005l-1.69618,3.4805c-.1525-.0392-.37037-.10483-.6554-.19167l-.96584-.2907-1.18553-.35791c-.43463-.1241-.87355-.2555-1.31865-.39447-.90256-.28181-1.71596-.59147-2.44709-.95472s-1.35593-.76632-1.87223-1.22826-.91137-.97643-1.17603-1.55494c-.25061-.57662-.34281-1.21001-.25656-1.90302s.35507-1.28385.82695-1.76122c.48829-.48316 1.11776-.85224 1.8895-1.08856s1.66219-.3438 2.65902-.30033c1.0127.0473 2.07411.24174 3.15817.5946 .73842.24038 1.37748.49679 1.91691.75487 .55488.26401 1.01565.51549 1.38539.74401s.65923.43016.87177.5989c.22749.17567.37719.30087.4522.37241-.37014.17969-.73488.36483-1.09426.55521-.35828-.33021-.87502-.69328-1.5574-1.06755-.67944-.38166-1.40653-.70092-2.17159-.95195-.81097-.26608-1.5833-.41071-2.30125-.44349-.70251-.0287-1.32541.0518-1.86199.22946-.52124.18107-.94792.45648-1.28115.81725-.33175.3529-.53784.78484-.62871,1.28981-.088.48921-.0665.95294.055,1.3914 .13555.44111.37268.84526.70502,1.21804 .3476.3678.78507.69536 1.31051.99357 .53859.30155 1.18173.56182 1.93193.80269 .53403.17147.98412.31458 1.35669.41946 .38784.10206.66636.17555.83861.21116z"/>
     <path d="m129.53645,403.54975c.14449.12235.30083.26724.46778.43537 .18403.17251.35484.34777.5124.52504 .16294.17135.3039.33121.4237.47854 .13666.15235.23217.26781.28821.345-.31618.1436-.63028.29012-.94226.43955-.0989-.13896-.27828-.3597-.54522-.65664-.25029-.2926-.60703-.64155-1.07858-1.033-.30653-.25445-.63311-.48489-.97752-.68941-.32744-.20153-.54727-.32771-.65524-.38694l-3.09258,4.22664c-.4774-.34826-.96595-.67878-1.46513-.99019l3.18664-5.05493c.48813.19512 1.07516.47666 1.74818.86297 .67767.37983 1.39512.87609 2.12962,1.498z"/>
     <path d="m129.32529,412.45923c-.3748-.47304-.76289-.93411-1.16375-1.38184l4.64144-4.17106c.48777.54205.95863,1.09898 1.41208,1.66943zm5.0508-5.4663c-.26124-.30847-.44224-.6112-.54234-.9145-.0833-.29653-.0457-.52058.11952-.67184s.39088-.16684.67631-.0405c.30257.13348.59332.36078.86501.68134s.44236.63764.51359.94425c.0879.31464.04.54077-.13671.6787s-.409.13189-.69802-.0113c-.27262-.13554-.53614-.35763-.79736-.66611z"/>
     <path d="m133.10171,416.74881c.36527.67765.6677,1.16158.9347,1.44117 .27286.29182.52644.38713.76614.27669 .24695-.11382.36587-.37521.34627-.78663s-.1319-1.0561-.37634-1.92743c-.0912-.32308-.18312-.63835-.27513-.94592-.0279-.0932-.0557-.18575-.0837-.27757-.10562-.38569-.17933-.73623-.21736-1.05349s-.0264-.60152.0381-.85395 .21147-.45746.44488-.61257c.46011-.30579 1.0424-.22976 1.73053.27387 .31152.22389.6233.52042.92912.89082 .37554.45387.74293,1.01829 1.08784,1.69248 .15627.30548.29811.6182.42514.93728s.24719.6149.34022.89687c.1003.27863.17795.52426.23489.73608 .0631.22601.10647.40087.13215.52426-.34593.002-.69129.008-1.03602.0156-.0308-.23377-.11378-.58616-.25876-1.05482s-.35797-1.01811-.67055-1.62904c-.27093-.5295-.5753-.95607-.90241-1.27772-.12154-.12359-.2372-.21342-.34616-.27-.17816-.0927-.33819-.0963-.47964-.0138-.11747.0686-.19841.16784-.2438.297-.0123.046-.0216.0955-.028.14856-.0134.11091-.0139.23732-.002.37933 .0315.21887.0862.47392.16159.76584s.17144.63739.28351,1.03737c.14245.53134.24695,1.0116.32008,1.43898 .0804.42401.10827.79707.0886,1.11708-.0141.33314-.0899.61128-.22373.83397s-.32822.38328-.60289.49359c-.53451.2146-1.07264.0302-1.63227-.51554-.5543-.53344-1.10149-1.38348-1.71938-2.52926-.16639-.30854-.31706-.59165-.45017-.85105-.20956-.40764-.37531-.75694-.49112-1.05261-.1955-.4776-.33245-.80382-.39507-.98297 .32808-.0861.65758-.16904.98845-.24874 .0787.20715.20636.53514.37046.98611 .088.24188.20807.51486.35744.82117 .13004.26693.28222.55922.45456.87894z"/>
     <path d="m137.71633,421.57248c.52166-.18097 1.02353-.20155 1.5054-.0486 .48944.15037.9418.42482 1.34953.82633s.76772.90695 1.06998,1.51344c.22124.44393.40289.90986.54341,1.39446 .0516.17736.0978.35741.13834.54001 .32283,1.4531.29372,2.66424-.0283,3.56404-.0302.0845-.0631.1665-.0985.24587-.17927.40955-.43067.73776-.74803.97868-.19533.14989-.41589.26477-.6604.345-.0376.0354.0232.0557.0989.067l.17311.0136 .00054-1e-005-.00065,2e-005-.33555.002-.0559.0003-1.11742.006c-.006-.0797-.014-.16172-.0224-.2462-.0328-.33543-.0742-.67454-.12102-1.01746-.16848-1.23335-.40409-2.46339-.69031-3.68729-.19034-.81108-.40262-1.61692-.63726-2.41564-.59774.26531-.97519.72085-1.15162,1.35776-.11002.39716-.1297.89291-.0695,1.49295 .0358.36256.10035.76199.18961,1.19969 .13355.6549.25967,1.19567.3923,1.62661 .0836.25973.15669.48141.2215.66471 .0457.12947.0873.23838.12517.32777-.29883.12443-.59852.24527-.89913.36194-.0579-.1229-.12529-.30542-.2061-.55561-.0531-.16434-.11184-.35487-.17754-.57156-.16361-.53332-.3135-1.14861-.46085-1.85299-.0703-.33633-.1305-.65878-.17899-.96784-.0805-.5054-.12902-.97139-.14207-1.40125-.01-.68146.052-1.2712.19686-1.77467s.36293-.92482.66265-1.26263c.31178-.32712.68811-.57191 1.13418-.72665zm2.48448,7.39074c.50021-.0631.87357-.35912 1.10342-.90396 .2403-.53136.27658-1.23223.0883-2.07791-.0396-.17775-.0857-.34631-.13795-.50554-.0872-.26616-.19181-.5065-.31259-.72041-.18161-.32916-.38482-.59595-.60634-.80043s-.45366-.34875-.69458-.43425c-.23685-.0712-.46527-.0966-.685-.0781 .23452.80125.44682,1.6092.6373,2.42207 .24025,1.02663.44579,2.05998.60743,3.09849z"/>
    </g>
    <g transform="matrix(-.6032 0 0 -.6032 338.89 1167.7)" fill="#f00" font-family="Sans" font-size="40" letter-spacing="0" word-spacing="0">
     <path d="m74.56326,425.39923c-.13136.55552-.27765,1.0787-.44304,1.5719-.09427.37499-.20244.73221-.32456,1.07193-.29866.83082-.66924,1.5297-1.11197,2.09834s-.95185.99322-1.52718,1.27255c-.5814.26377-1.21737.35421-1.90721.26635s-1.276-.35686-1.75773-.81251c-.48774-.47155-.87066-1.06944-1.14866-1.79442s-.4539-1.55455-.52806-2.48672c-.02492-.31335-.03822-.63218-.03991-.95634 .04424-.67742.14957-1.3785.31891-2.09651 .16132-.68392.34358-1.28886.53809-1.81318 .19885-.54006.39277-.99546.57455-1.36767 .1866-.38778.35382-.69448.49685-.92236s.24671-.38175.30879-.46382l.69658.92977c-.09034.12126-.20396.30213-.33867.54412s-.27946.52356-.4321.8456c-.14815.30677-.29294.65705-.43149,1.05079-.14217.37644-.26246.76742-.35991,1.17131-.20091.83271-.28987,1.60282-.27705,2.29781l.0049.0521c.06588.68237.21152,1.27636.43705,1.78108s.528.91215.90724,1.22298c.37323.29489.81325.47684 1.31968.54843 .49062.0694.95079.0298 1.38017-.11636 .43125-.16075.81984-.4297 1.16563-.80588 .33789-.37735.62507-.86317.86165-1.45803 .02986-.0763.05868-.15437.08646-.23419 .22622-.51805.4147-1.11017.57595-1.78059 .21294-.88532.36177-1.62227.4253-2.22541s.109-1.06038.12111-1.37222c.35872-.066.71706-.12719 1.07492-.18355 .007.10045.0015.2735-.01369.51891-.02276.24303-.06223.54238-.11442.89876s-.12477.76762-.21271,1.23558-.19756.97072-.32542,1.51143z"/>
     <path d="m77.1007,415.87445c.20987-.38708.39851-.72489.56102-1.01629 .16238-.30694.29228-.56383.38574-.77334l-1.57852-.98766c-.10913.0989-.26022.28083-.44842.54918-.18779.25206-.39522.5764-.61515.97515-.08817.15986-.17497.32956-.25992.50903-.05418.11423-.10766.23242-.16031.35456-.12879.30127-.21867.59778-.27033.88689-.05268.27294-.05469.52116-.0079.74288 .03954.21841.15926.37053.35613.45828 .36457.16252.70872.0762 1.03929-.24444 .28481-.28541.57093-.69668.87449-1.23048l.12386-.22376zm-5.01261-2.48677c.41241-.77736.83915-1.38711 1.25224-1.83221 .41444-.46264.81754-.77829 1.19508-.95362 .37949-.19261.73596-.26205 1.06545-.21566 .32294.0418.62688.16767.91392.37202l3.18027,2.26436c-.07721.13631-.1846.33067-.31824.58483-.133.23893-.28462.51173-.45183.82005s-.34991.64455-.54519,1.01047c-.18182.35877-.36706.71472-.55627,1.06865l-.01629.0304c-.26408.48897-.52589.93154-.79283,1.32808s-.54559.74226-.82667,1.01104c-.28845.2657-.58715.44776-.9007.54266s-.63824.0825-.97392-.0448c-.32076-.12158-.55402-.33647-.69402-.65035-.1347-.32706-.18887-.72012-.15598-1.17651s.13983-.96584.32776-1.52152c.14744-.43594.33093-.87697.55139-1.31951l.19012-.36497c.0978-.17968.20772-.36113.32991-.54371 .11522-.18652.23194-.35523.34926-.50618 .11786-.16755.22226-.30886.31209-.42468s.15401-.19585.19168-.24095l-.26478-.16567c-.15615-.0977-.32844-.16217-.51748-.19177-.19584-.0338-.40337-.003-.62163.0947-.2251.0936-.46208.27154-.70616.53624-.23243.2363-.47628.58133-.72076,1.03673l-.03467.0654c-.32696.62367-.57332,1.19353-.74843,1.70072-.1759.49003-.28405.86604-.33517,1.12472l-.94957-.12434c.05062-.28221.17987-.73553.40598-1.35483 .20815-.59217.47741-1.21478.81303-1.86019l.05241-.0996z"/>
     <path d="m80.15022,403.28972c.14449-.1233.31334-.25473.50712-.39285 .20095-.15431.40268-.29504.60441-.42222s.3788-.24691.54494-.34136c.174-.11031.30467-.18582.39069-.22855 .08769.33626.1791.6707.27417,1.00329-.15386.0747-.40196.21556-.73934.431-.33032.19968-.73342.4959-1.19602.89911-.30069.26211-.5805.54797-.83733.85549-.25117.29123-.41063.48812-.48626.58524l3.68094,3.726c-.42065.41721-.82851.8501-1.22311,1.2971l-4.46938-3.96445c.27004-.44848.64039-.98115 1.12832-1.58328 .48227-.60777 1.0864-1.23771 1.82085-1.86452z"/>
     <path d="m85.82465,399.60207c1.37013-.72116 2.7849-1.34091 4.23151-1.86631l.31701.87696c-1.4087.51049-2.78407,1.1126-4.11329,1.81338l1.33918,2.53549c.14508.27467.30237.48416.46967.63019 .16362.13896.34289.225.53822.25975 .19173.0276.40327.011.63696-.048s.49298-.15335.78136-.28055c.50465-.22259.90117-.41884 1.18454-.60466 .29284-.19801.50036-.33158.6155-.40649l.6426.75083c-.15378.11155-.43161.27886-.82283.51263-.38838.24121-.84296.47204-1.3629.70498-.61238.27435-1.12847.47764-1.56714.59424-.43124.10361-.81336.13514-1.15393.0864s-.64307-.1709-.90721-.37322c-.25708-.21613-.49779-.49861-.71743-.85121l-2.93972-4.71936c.62892-.46078 1.27261-.89931 1.92953-1.31595z"/>
     <path d="m92.81369,400.11101c-.15901-.52747-.15977-1.02845.014-1.5025 .17156-.48171.46762-.92147.89141-1.30994s.9519-.72349 1.58017-.99316 1.29529-.46089 1.9905-.56965c1.62215-.25372 2.90851-.0963 3.8013.37259 .89224.46086 1.34013,1.24695 1.38635,2.32101 .002.0481.005.11222.008.19238 .003.0721-.001.14059-.0128.20536-2.55941.11515-5.11096.44315-7.57899,1.02556 .23316.61108.66456,1.01338 1.28404,1.22958s1.49801.21817 2.67481.0602c.6628-.0889 1.21734-.17951 1.66296-.28554 .45855-.11529.80486-.20893 1.03524-.28916 .11066.30627.21935.6129.32608.91985-.22526.0867-.62481.18918-1.19219.32166-.55401.13125-1.186.24009-1.89664.33874-.89488.12422-1.67363.18234-2.35463.15773-.66968-.0351-1.24463-.13252-1.73236-.30535s-.89277-.41168-1.21378-.72653c-.31003-.32632-.5378-.71183-.67377-1.16287zm7.50986-2.04338c-.0313-.50526-.30417-.89809-.83443-1.1641-.51609-.2756-1.21504-.35906-2.07621-.22437-.48346.0756-.90453.20294-1.25944.37613-.34143.16248-.62091.35076-.83834.56093s-.37452.43441-.47288.67049c-.08387.23278-.12109.45952-.11399.67988 1.83353-.43239 3.70823-.72677 5.59528-.89896z"/>
     <path d="m119.82435,400.30937c.65879.26864 1.30855.5584 1.94787.87005l-1.69618,3.4805c-.1525-.0392-.37037-.10483-.6554-.19167l-.96584-.2907-1.18553-.35791c-.43463-.1241-.87355-.2555-1.31865-.39447-.90256-.28181-1.71596-.59147-2.44709-.95472s-1.35593-.76632-1.87223-1.22826-.91137-.97643-1.17603-1.55494c-.25061-.57662-.34281-1.21001-.25656-1.90302s.35507-1.28385.82695-1.76122c.48829-.48316 1.11776-.85224 1.8895-1.08856s1.66219-.3438 2.65902-.30033c1.0127.0473 2.07411.24174 3.15817.5946 .73842.24038 1.37748.49679 1.91691.75487 .55488.26401 1.01565.51549 1.38539.74401s.65923.43016.87177.5989c.22749.17567.37719.30087.4522.37241-.37014.17969-.73488.36483-1.09426.55521-.35828-.33021-.87502-.69328-1.5574-1.06755-.67944-.38166-1.40653-.70092-2.17159-.95195-.81097-.26608-1.5833-.41071-2.30125-.44349-.70251-.0287-1.32541.0518-1.86199.22946-.52124.18107-.94792.45648-1.28115.81725-.33175.3529-.53784.78484-.62871,1.28981-.088.48921-.0665.95294.055,1.3914 .13555.44111.37268.84526.70502,1.21804 .3476.3678.78507.69536 1.31051.99357 .53859.30155 1.18173.56182 1.93193.80269 .53403.17147.98412.31458 1.35669.41946 .38784.10206.66636.17555.83861.21116z"/>
     <path d="m129.53645,403.54975c.14449.12235.30083.26724.46778.43537 .18403.17251.35484.34777.5124.52504 .16294.17135.3039.33121.4237.47854 .13666.15235.23217.26781.28821.345-.31618.1436-.63028.29012-.94226.43955-.0989-.13896-.27828-.3597-.54522-.65664-.25029-.2926-.60703-.64155-1.07858-1.033-.30653-.25445-.63311-.48489-.97752-.68941-.32744-.20153-.54727-.32771-.65524-.38694l-3.09258,4.22664c-.4774-.34826-.96595-.67878-1.46513-.99019l3.18664-5.05493c.48813.19512 1.07516.47666 1.74818.86297 .67767.37983 1.39512.87609 2.12962,1.498z"/>
     <path d="m129.32529,412.45923c-.3748-.47304-.76289-.93411-1.16375-1.38184l4.64144-4.17106c.48777.54205.95863,1.09898 1.41208,1.66943zm5.0508-5.4663c-.26124-.30847-.44224-.6112-.54234-.9145-.0833-.29653-.0457-.52058.11952-.67184s.39088-.16684.67631-.0405c.30257.13348.59332.36078.86501.68134s.44236.63764.51359.94425c.0879.31464.04.54077-.13671.6787s-.409.13189-.69802-.0113c-.27262-.13554-.53614-.35763-.79736-.66611z"/>
     <path d="m133.10171,416.74881c.36527.67765.6677,1.16158.9347,1.44117 .27286.29182.52644.38713.76614.27669 .24695-.11382.36587-.37521.34627-.78663s-.1319-1.0561-.37634-1.92743c-.0912-.32308-.18312-.63835-.27513-.94592-.0279-.0932-.0557-.18575-.0837-.27757-.10562-.38569-.17933-.73623-.21736-1.05349s-.0264-.60152.0381-.85395 .21147-.45746.44488-.61257c.46011-.30579 1.0424-.22976 1.73053.27387 .31152.22389.6233.52042.92912.89082 .37554.45387.74293,1.01829 1.08784,1.69248 .15627.30548.29811.6182.42514.93728s.24719.6149.34022.89687c.1003.27863.17795.52426.23489.73608 .0631.22601.10647.40087.13215.52426-.34593.002-.69129.008-1.03602.0156-.0308-.23377-.11378-.58616-.25876-1.05482s-.35797-1.01811-.67055-1.62904c-.27093-.5295-.5753-.95607-.90241-1.27772-.12154-.12359-.2372-.21342-.34616-.27-.17816-.0927-.33819-.0963-.47964-.0138-.11747.0686-.19841.16784-.2438.297-.0123.046-.0216.0955-.028.14856-.0134.11091-.0139.23732-.002.37933 .0315.21887.0862.47392.16159.76584s.17144.63739.28351,1.03737c.14245.53134.24695,1.0116.32008,1.43898 .0804.42401.10827.79707.0886,1.11708-.0141.33314-.0899.61128-.22373.83397s-.32822.38328-.60289.49359c-.53451.2146-1.07264.0302-1.63227-.51554-.5543-.53344-1.10149-1.38348-1.71938-2.52926-.16639-.30854-.31706-.59165-.45017-.85105-.20956-.40764-.37531-.75694-.49112-1.05261-.1955-.4776-.33245-.80382-.39507-.98297 .32808-.0861.65758-.16904.98845-.24874 .0787.20715.20636.53514.37046.98611 .088.24188.20807.51486.35744.82117 .13004.26693.28222.55922.45456.87894z"/>
     <path d="m137.71633,421.57248c.52166-.18097 1.02353-.20155 1.5054-.0486 .48944.15037.9418.42482 1.34953.82633s.76772.90695 1.06998,1.51344c.22124.44393.40289.90986.54341,1.39446 .0516.17736.0978.35741.13834.54001 .32283,1.4531.29372,2.66424-.0283,3.56404-.0302.0845-.0631.1665-.0985.24587-.17927.40955-.43067.73776-.74803.97868-.19533.14989-.41589.26477-.6604.345-.0376.0354.0232.0557.0989.067l.17311.0136 .00054-1e-005-.00065,2e-005-.33555.002-.0559.0003-1.11742.006c-.006-.0797-.014-.16172-.0224-.2462-.0328-.33543-.0742-.67454-.12102-1.01746-.16848-1.23335-.40409-2.46339-.69031-3.68729-.19034-.81108-.40262-1.61692-.63726-2.41564-.59774.26531-.97519.72085-1.15162,1.35776-.11002.39716-.1297.89291-.0695,1.49295 .0358.36256.10035.76199.18961,1.19969 .13355.6549.25967,1.19567.3923,1.62661 .0836.25973.15669.48141.2215.66471 .0457.12947.0873.23838.12517.32777-.29883.12443-.59852.24527-.89913.36194-.0579-.1229-.12529-.30542-.2061-.55561-.0531-.16434-.11184-.35487-.17754-.57156-.16361-.53332-.3135-1.14861-.46085-1.85299-.0703-.33633-.1305-.65878-.17899-.96784-.0805-.5054-.12902-.97139-.14207-1.40125-.01-.68146.052-1.2712.19686-1.77467s.36293-.92482.66265-1.26263c.31178-.32712.68811-.57191 1.13418-.72665zm2.48448,7.39074c.50021-.0631.87357-.35912 1.10342-.90396 .2403-.53136.27658-1.23223.0883-2.07791-.0396-.17775-.0857-.34631-.13795-.50554-.0872-.26616-.19181-.5065-.31259-.72041-.18161-.32916-.38482-.59595-.60634-.80043s-.45366-.34875-.69458-.43425c-.23685-.0712-.46527-.0966-.685-.0781 .23452.80125.44682,1.6092.6373,2.42207 .24025,1.02663.44579,2.05998.60743,3.09849z"/>
    </g>
    <path d="m284.78841,912.47492c-2.1729.76918-4.34536,1.53728-6.53218,2.26654-1.40599.43779-2.81068.89505-4.25676,1.1858-.3001.0603-.6012.13013-.907.14375-1.52988.0681-1.3698.41198-1.49356-.34897 .15441-.15998.29112-.33919.46324-.47994 .51085-.41773 1.5409-1.03511 2.06194-1.35442 1.15766-.70942 2.33587-1.38114 3.51001-2.06255 .2494-.15939.51576-.29492.74819-.47817 .12096-.0954.27658-.19787.30197-.3498 .0175-.10462-.11219-.1898-.20244-.24554-.53436-.33-1.60816-.52753-2.22117-.68753-.0264-.007-1.09378-.26905-1.22503-.32342-.0436-.0181-.13972-.0987-.0932-.1064 1.32905-.21929 2.24589-.007 3.5447.19757 3.1015.61916 6.20986,1.34343 9.17702,2.45783 .40173.15088.79152.33182 1.18728.49772 .10527.0609 1.07995.44929 1.01583.88208-.0702.47371-1.08266.77756-1.29633.85098-.92961.31945-1.77631.46094-2.73947.66079-1.56956.23261-3.19865.65313-4.80126.4396-.0727-.01-.14161-.11288-.12158-.18346 .0379-.13363.17664-.21443.26495-.32165 .49833-.33385 1.0421-.58971 1.57834-.85493 .12032-.0595.24461-.11135.36176-.17689 .0389-.0218.0598-.0859.10435-.0839 .23506.0108.46368.0805.69552.12075-2.14495.33035-4.28353.70489-6.42981,1.03061-.80256.0905-1.69454.35596-2.5057.1789-.079-.0172.0468-.16744.11207-.21521 .18914-.13844.93121-.34528 1.08864-.39446 1.01975-.26677 2.08967-.54258 3.15643-.36562 .0737.0122.10103.13229.0886.206-.0217.12853-.1211.23085-.18165.34627-.14372.14614-.27411.3067-.43116.4384-.54913.46053-1.18943.8438-1.80975,1.19251-1.19203.67008-2.43,1.21037-3.69139,1.73249-.99383.32693-2.03104.74591-3.10184.70897-.7819-.027-1.57112.12844-2.06018-.55349-.13322-.18576-.1763-.42183-.26445-.63275-.0422-.26837-.10285-.53448-.12665-.8051-.0468-.5322-.0155-1.28014.01-1.80961 .0395-.83189.10594-1.66294.16536-2.49358 .0534-.42002.0394-.84907.0965-1.26881 .005-.0401.0333-.27268.13138-.28316 .36864-.0394.74132-.0156 1.11197-.0234 1.72883.57039 3.46255,1.12539 5.20004,1.669 2.98512.88735 5.95321,1.83087 8.92815,2.75151l.90226.29861-.90315.11333-.88582-.2989c-2.96064-.93345-5.91791-1.8792-8.89613-2.75543-1.76597-.54395-3.52432-1.1235-5.29994-1.63127 .269-.0123.53772-.039.80699-.0369 .0339.00026-.0735.0143-.0924.0425-.0317.047-.0364.10785-.0464.16366-.0751.41715-.0658.84798-.12769,1.2665-.0702.82887-.1405,1.65834-.17903,2.48944-.0243.52368-.0537,1.26483-.002,1.79146 .026.26331.0905.52138.13578.78207 .0886.19583.13442.41745.26591.58749 .11939.15438.38423.17871.46427.3567 .0382.0848-.33148.13074-.23934.14351 .29046.0403.58793-.012.878-.055 .89137-.13209 1.38519-.33755 2.25278-.62118 1.25906-.516 2.49377-1.04941 3.68058-1.72008 .62174-.35134 1.21797-.71374 1.76494-1.17373 .14938-.12563.27454-.27752.41181-.41628 .0564-.0837.14182-.15403.1693-.25118 .0115-.0409-.0452-.0719-.0677-.10786l.60259-.0262c.16048.0796-.35703.0325-.534.0602-.57518.0901-.78801.15991-1.36034.30666-.20901.0646-.42007.12276-.62701.19364-.14294.0489-.2766.12428-.42193.1656-.0398.0113-.0822-.011-.12357-.0105-.24088.003-.48982.0829-.7224.0202-.44952-.12124 2.26569.004 1.38459-.18371 2.13123-.31519 4.25591-.66904 6.376-1.0512 .40454.0376.81524.0329 1.21362.11267 .0533.0107-.0774.0786-.12478.10525-.1195.0672-.24892.11506-.37248.17447-.23721.11405-.85149.41615-1.06836.53504-.16742.0918-.32872.19426-.49308.29139-.0836.0617-.19972.0947-.25091.18521-.0222.0392.12943.0843.0882.10239-.12002.0527-.52271.0401-.39197.0309 1.14186-.0801 2.27747-.21586 3.4-.44735 1.02703-.21162 1.71759-.31984 2.70273-.64791 .009-.003 1.18342-.36944 1.25516-.69744 .0842-.38518-.93119-.81238-.95422-.82597-.38732-.16493-.76857-.34493-1.16196-.4948-2.96712-1.13037-6.08487-1.84923-9.19715-2.43927-.43582-.0645-.87035-.13845-1.30746-.19352-.30606-.0386-.64647.0528-.92131-.0873-.15976-.0814.34715-.0971.52561-.1144 .0275-.003.0334.0483.0594.0576 .21443.0776 1.0591.28799 1.2012.3246 .37698.0993 2.5674.52864 2.45553,1.12102-.031.16408-.20136.27166-.33343.37383-.23909.18498-.51313.31975-.76969.47963-1.18134.67509-2.36457,1.34187-3.52187,2.05804-.72426.44819-1.34333.82207-2.00778,1.34008-.15369.11981-.28928.26119-.43392.39178 .007.0615.0726.15118.0204.18436-.10995.0699-.51652.0693-.38778.0492 .30962-.0482.62264-.0753.9305-.13373 1.4548-.27603 2.86562-.73433 4.27638-1.1745 2.15878-.72573 4.30604-1.48213 6.44089-2.27552l.95018.1167z" fill="#ef0000"/>
   </g>
   <path d="m98.05393,708.99792h1.62098a.11455,.12109 0 0,1 .11455.12109 .11455,.12109 0 0,1 -.11455.12109h-1.62098a.11455,.12109 0 0,1 -.11455-.12109 .11455,.12109 0 0,1 .11455-.12109" fill="#929293" fill-rule="evenodd" stroke="#797b7b" stroke-linejoin="round" stroke-width=".00445"/>
   <path d="m98.08391,709.43768h1.62098a.11455,.12109 0 0,1 .11455.12109 .11455,.12109 0 0,1 -.11455.12109h-1.62098a.11455,.12109 0 0,1 -.11455-.12109 .11455,.12109 0 0,1 .11455-.12109" fill="#929293" fill-rule="evenodd" stroke="#797b7b" stroke-linejoin="round" stroke-width=".00445"/>
   <path d="m98.05209,709.86261h1.62098a.11455,.12109 0 0,1 .11455.12109 .11455,.12109 0 0,1 -.11455.12109h-1.62098a.11455,.12109 0 0,1 -.11455-.12109 .11455,.12109 0 0,1 .11455-.12109" fill="#929293" fill-rule="evenodd" stroke="#797b7b" stroke-linejoin="round" stroke-width=".00445"/>
   <path d="m86.00313,717.56989h3.01603a.21313,.12109 0 0,1 .21313.12109 .21313,.12109 0 0,1 -.21313.12109h-3.01603a.21313,.12109 0 0,1 -.21313-.12109 .21313,.12109 0 0,1 .21313-.12109" fill="#929293" fill-rule="evenodd" stroke="#797b7b" stroke-linejoin="round" stroke-width=".00608"/>
   <path d="m86.05892,718.00958h3.01603a.21313,.12109 0 0,1 .21313.12109 .21313,.12109 0 0,1 -.21313.12109h-3.01603a.21313,.12109 0 0,1 -.21313-.12109 .21313,.12109 0 0,1 .21313-.12109" fill="#929293" fill-rule="evenodd" stroke="#797b7b" stroke-linejoin="round" stroke-width=".00608"/>
   <path d="m93.828 718.01h1.621a0.11455 0.095368 0 0 1 0.11455 0.09537 0.11455 0.095368 0 0 1 -0.11455 0.09537h-1.621a0.11455 0.095368 0 0 1 -0.11455 -0.09537 0.11455 0.095368 0 0 1 0.11455 -0.09537" fill="#929293" fill-rule="evenodd" stroke="#797b7b" stroke-linejoin="round" stroke-width=".00395"/>
   <path transform="matrix(-.03849 0 0 .04298 105.15 697.87)" d="m496.96 320.73c0 25.731-20.859 46.59-46.59 46.59s-46.59-20.859-46.59-46.59 20.859-46.59 46.59-46.59c25.584 0 46.382 20.63 46.589 46.213" fill="#fca" fill-rule="evenodd" stroke="#383838" stroke-width="1.4584"/>
   <path d="m85.416 711.16c-0.21698 1.065 1.2332 1.9728 1.2332 1.9728s-0.53315-0.63002-0.38614-1.1062 0.23747-1.3663 0.23747-1.3663 0.43997 0.40738 1.2832 0.41538 1.2832-0.39939 1.2832-0.39939 0.09041 0.88822 0.23747 1.3644-0.2443 1.1081-0.2443 1.1081 1.3082-0.90976 1.0914-1.9748c-0.21456-1.054-0.66587-1.6306-2.3821-1.6194s-2.146 0.58431-2.3538 1.6053z" fill="#4c4c4f" fill-rule="evenodd" stroke="#383838" stroke-width=".05064"/>
  </g>
  <g transform="translate(84.864 -43.985)">
   <path d="m85.316 708.17h14.983a1.3244 1.8589 0 0 1 1.3244 1.8589v7.3875a1.3244 1.8589 0 0 1 -1.3244 1.8589h-14.983a1.3244 1.8589 0 0 1 -1.3244 -1.8589v-7.3875a1.3244 1.8589 0 0 1 1.3244 -1.8589" fill="#e2ffff" fill-rule="evenodd" stroke="#d4d3d2" stroke-width=".06737"/>
   <path d="m85.28678,708.95477h5.14076a.48228,.73019 0 0,1 .48228.73019v3.70025a.48228,.73019 0 0,1 -.48228.73019h-5.14076a.48228,.73019 0 0,1 -.48228-.73019v-3.70025a.48228,.73019 0 0,1 .48228-.73019" fill="#e4e4e6" stroke="#797b7b" stroke-width=".07458"/>
   <path d="m92.41531,711.47266h6.82499a.48228,.16632 0 0,1 .48228.16632 .48228,.16632 0 0,1 -.48228.16632h-6.82499a.48228,.16632 0 0,1 -.48228-.16632 .48228,.16632 0 0,1 .48228-.16632" fill="#929293" fill-rule="evenodd" stroke="#797b7b" stroke-linejoin="round" stroke-width=".01071"/>
   <path d="m92.38583,712.67065h6.82499a.48228,.16105 0 0,1 .48228.16105 .48228,.16105 0 0,1 -.48228.16105h-6.82499a.48228,.16105 0 0,1 -.48228-.16105 .48228,.16105 0 0,1 .48228-.16105" fill="#929293" fill-rule="evenodd" stroke="#797b7b" stroke-linejoin="round" stroke-width=".01054"/>
   <path d="m85.75581,715.41937h8.76933a.61968,.16428 0 0,1 .61968.16428 .61968,.16428 0 0,1 -.61968.16428h-8.76933a.61968,.16428 0 0,1 -.61968-.16428 .61968,.16428 0 0,1 .61968-.16428" fill="#929293" fill-rule="evenodd" stroke="#797b7b" stroke-linejoin="round" stroke-width=".01207"/>
   <g transform="matrix(.06737 0 0 .06737 80.143 655.68)">
    <path d="m276.17 881.55c-13.866 0-25.107 11.241-25.107 25.107s11.241 25.107 25.107 25.107 25.107-11.241 25.107-25.107v-0.204c-0.11166-13.787-11.32-24.903-25.107-24.903zm-0.21968 7.6263c9.4786 0 17.184 7.6417 17.261 17.12v0.14123c0 9.5331-7.7281 17.261-17.261 17.261s-17.261-7.7281-17.261-17.261 7.7281-17.261 17.261-17.261z" fill="none" stroke="#f00" stroke-linejoin="round" stroke-width="1.0043"/>
    <g transform="matrix(.6032 0 0 .6032 213.2 646)" fill="#f00" font-family="Sans" font-size="40" letter-spacing="0" word-spacing="0">
     <path d="m74.56326,425.39923c-.13136.55552-.27765,1.0787-.44304,1.5719-.09427.37499-.20244.73221-.32456,1.07193-.29866.83082-.66924,1.5297-1.11197,2.09834s-.95185.99322-1.52718,1.27255c-.5814.26377-1.21737.35421-1.90721.26635s-1.276-.35686-1.75773-.81251c-.48774-.47155-.87066-1.06944-1.14866-1.79442s-.4539-1.55455-.52806-2.48672c-.02492-.31335-.03822-.63218-.03991-.95634 .04424-.67742.14957-1.3785.31891-2.09651 .16132-.68392.34358-1.28886.53809-1.81318 .19885-.54006.39277-.99546.57455-1.36767 .1866-.38778.35382-.69448.49685-.92236s.24671-.38175.30879-.46382l.69658.92977c-.09034.12126-.20396.30213-.33867.54412s-.27946.52356-.4321.8456c-.14815.30677-.29294.65705-.43149,1.05079-.14217.37644-.26246.76742-.35991,1.17131-.20091.83271-.28987,1.60282-.27705,2.29781l.0049.0521c.06588.68237.21152,1.27636.43705,1.78108s.528.91215.90724,1.22298c.37323.29489.81325.47684 1.31968.54843 .49062.0694.95079.0298 1.38017-.11636 .43125-.16075.81984-.4297 1.16563-.80588 .33789-.37735.62507-.86317.86165-1.45803 .02986-.0763.05868-.15437.08646-.23419 .22622-.51805.4147-1.11017.57595-1.78059 .21294-.88532.36177-1.62227.4253-2.22541s.109-1.06038.12111-1.37222c.35872-.066.71706-.12719 1.07492-.18355 .007.10045.0015.2735-.01369.51891-.02276.24303-.06223.54238-.11442.89876s-.12477.76762-.21271,1.23558-.19756.97072-.32542,1.51143z"/>
     <path d="m77.1007,415.87445c.20987-.38708.39851-.72489.56102-1.01629 .16238-.30694.29228-.56383.38574-.77334l-1.57852-.98766c-.10913.0989-.26022.28083-.44842.54918-.18779.25206-.39522.5764-.61515.97515-.08817.15986-.17497.32956-.25992.50903-.05418.11423-.10766.23242-.16031.35456-.12879.30127-.21867.59778-.27033.88689-.05268.27294-.05469.52116-.0079.74288 .03954.21841.15926.37053.35613.45828 .36457.16252.70872.0762 1.03929-.24444 .28481-.28541.57093-.69668.87449-1.23048l.12386-.22376zm-5.01261-2.48677c.41241-.77736.83915-1.38711 1.25224-1.83221 .41444-.46264.81754-.77829 1.19508-.95362 .37949-.19261.73596-.26205 1.06545-.21566 .32294.0418.62688.16767.91392.37202l3.18027,2.26436c-.07721.13631-.1846.33067-.31824.58483-.133.23893-.28462.51173-.45183.82005s-.34991.64455-.54519,1.01047c-.18182.35877-.36706.71472-.55627,1.06865l-.01629.0304c-.26408.48897-.52589.93154-.79283,1.32808s-.54559.74226-.82667,1.01104c-.28845.2657-.58715.44776-.9007.54266s-.63824.0825-.97392-.0448c-.32076-.12158-.55402-.33647-.69402-.65035-.1347-.32706-.18887-.72012-.15598-1.17651s.13983-.96584.32776-1.52152c.14744-.43594.33093-.87697.55139-1.31951l.19012-.36497c.0978-.17968.20772-.36113.32991-.54371 .11522-.18652.23194-.35523.34926-.50618 .11786-.16755.22226-.30886.31209-.42468s.15401-.19585.19168-.24095l-.26478-.16567c-.15615-.0977-.32844-.16217-.51748-.19177-.19584-.0338-.40337-.003-.62163.0947-.2251.0936-.46208.27154-.70616.53624-.23243.2363-.47628.58133-.72076,1.03673l-.03467.0654c-.32696.62367-.57332,1.19353-.74843,1.70072-.1759.49003-.28405.86604-.33517,1.12472l-.94957-.12434c.05062-.28221.17987-.73553.40598-1.35483 .20815-.59217.47741-1.21478.81303-1.86019l.05241-.0996z"/>
     <path d="m80.15022,403.28972c.14449-.1233.31334-.25473.50712-.39285 .20095-.15431.40268-.29504.60441-.42222s.3788-.24691.54494-.34136c.174-.11031.30467-.18582.39069-.22855 .08769.33626.1791.6707.27417,1.00329-.15386.0747-.40196.21556-.73934.431-.33032.19968-.73342.4959-1.19602.89911-.30069.26211-.5805.54797-.83733.85549-.25117.29123-.41063.48812-.48626.58524l3.68094,3.726c-.42065.41721-.82851.8501-1.22311,1.2971l-4.46938-3.96445c.27004-.44848.64039-.98115 1.12832-1.58328 .48227-.60777 1.0864-1.23771 1.82085-1.86452z"/>
     <path d="m85.82465,399.60207c1.37013-.72116 2.7849-1.34091 4.23151-1.86631l.31701.87696c-1.4087.51049-2.78407,1.1126-4.11329,1.81338l1.33918,2.53549c.14508.27467.30237.48416.46967.63019 .16362.13896.34289.225.53822.25975 .19173.0276.40327.011.63696-.048s.49298-.15335.78136-.28055c.50465-.22259.90117-.41884 1.18454-.60466 .29284-.19801.50036-.33158.6155-.40649l.6426.75083c-.15378.11155-.43161.27886-.82283.51263-.38838.24121-.84296.47204-1.3629.70498-.61238.27435-1.12847.47764-1.56714.59424-.43124.10361-.81336.13514-1.15393.0864s-.64307-.1709-.90721-.37322c-.25708-.21613-.49779-.49861-.71743-.85121l-2.93972-4.71936c.62892-.46078 1.27261-.89931 1.92953-1.31595z"/>
     <path d="m92.81369,400.11101c-.15901-.52747-.15977-1.02845.014-1.5025 .17156-.48171.46762-.92147.89141-1.30994s.9519-.72349 1.58017-.99316 1.29529-.46089 1.9905-.56965c1.62215-.25372 2.90851-.0963 3.8013.37259 .89224.46086 1.34013,1.24695 1.38635,2.32101 .002.0481.005.11222.008.19238 .003.0721-.001.14059-.0128.20536-2.55941.11515-5.11096.44315-7.57899,1.02556 .23316.61108.66456,1.01338 1.28404,1.22958s1.49801.21817 2.67481.0602c.6628-.0889 1.21734-.17951 1.66296-.28554 .45855-.11529.80486-.20893 1.03524-.28916 .11066.30627.21935.6129.32608.91985-.22526.0867-.62481.18918-1.19219.32166-.55401.13125-1.186.24009-1.89664.33874-.89488.12422-1.67363.18234-2.35463.15773-.66968-.0351-1.24463-.13252-1.73236-.30535s-.89277-.41168-1.21378-.72653c-.31003-.32632-.5378-.71183-.67377-1.16287zm7.50986-2.04338c-.0313-.50526-.30417-.89809-.83443-1.1641-.51609-.2756-1.21504-.35906-2.07621-.22437-.48346.0756-.90453.20294-1.25944.37613-.34143.16248-.62091.35076-.83834.56093s-.37452.43441-.47288.67049c-.08387.23278-.12109.45952-.11399.67988 1.83353-.43239 3.70823-.72677 5.59528-.89896z"/>
     <path d="m119.82435,400.30937c.65879.26864 1.30855.5584 1.94787.87005l-1.69618,3.4805c-.1525-.0392-.37037-.10483-.6554-.19167l-.96584-.2907-1.18553-.35791c-.43463-.1241-.87355-.2555-1.31865-.39447-.90256-.28181-1.71596-.59147-2.44709-.95472s-1.35593-.76632-1.87223-1.22826-.91137-.97643-1.17603-1.55494c-.25061-.57662-.34281-1.21001-.25656-1.90302s.35507-1.28385.82695-1.76122c.48829-.48316 1.11776-.85224 1.8895-1.08856s1.66219-.3438 2.65902-.30033c1.0127.0473 2.07411.24174 3.15817.5946 .73842.24038 1.37748.49679 1.91691.75487 .55488.26401 1.01565.51549 1.38539.74401s.65923.43016.87177.5989c.22749.17567.37719.30087.4522.37241-.37014.17969-.73488.36483-1.09426.55521-.35828-.33021-.87502-.69328-1.5574-1.06755-.67944-.38166-1.40653-.70092-2.17159-.95195-.81097-.26608-1.5833-.41071-2.30125-.44349-.70251-.0287-1.32541.0518-1.86199.22946-.52124.18107-.94792.45648-1.28115.81725-.33175.3529-.53784.78484-.62871,1.28981-.088.48921-.0665.95294.055,1.3914 .13555.44111.37268.84526.70502,1.21804 .3476.3678.78507.69536 1.31051.99357 .53859.30155 1.18173.56182 1.93193.80269 .53403.17147.98412.31458 1.35669.41946 .38784.10206.66636.17555.83861.21116z"/>
     <path d="m129.53645,403.54975c.14449.12235.30083.26724.46778.43537 .18403.17251.35484.34777.5124.52504 .16294.17135.3039.33121.4237.47854 .13666.15235.23217.26781.28821.345-.31618.1436-.63028.29012-.94226.43955-.0989-.13896-.27828-.3597-.54522-.65664-.25029-.2926-.60703-.64155-1.07858-1.033-.30653-.25445-.63311-.48489-.97752-.68941-.32744-.20153-.54727-.32771-.65524-.38694l-3.09258,4.22664c-.4774-.34826-.96595-.67878-1.46513-.99019l3.18664-5.05493c.48813.19512 1.07516.47666 1.74818.86297 .67767.37983 1.39512.87609 2.12962,1.498z"/>
     <path d="m129.32529,412.45923c-.3748-.47304-.76289-.93411-1.16375-1.38184l4.64144-4.17106c.48777.54205.95863,1.09898 1.41208,1.66943zm5.0508-5.4663c-.26124-.30847-.44224-.6112-.54234-.9145-.0833-.29653-.0457-.52058.11952-.67184s.39088-.16684.67631-.0405c.30257.13348.59332.36078.86501.68134s.44236.63764.51359.94425c.0879.31464.04.54077-.13671.6787s-.409.13189-.69802-.0113c-.27262-.13554-.53614-.35763-.79736-.66611z"/>
     <path d="m133.10171,416.74881c.36527.67765.6677,1.16158.9347,1.44117 .27286.29182.52644.38713.76614.27669 .24695-.11382.36587-.37521.34627-.78663s-.1319-1.0561-.37634-1.92743c-.0912-.32308-.18312-.63835-.27513-.94592-.0279-.0932-.0557-.18575-.0837-.27757-.10562-.38569-.17933-.73623-.21736-1.05349s-.0264-.60152.0381-.85395 .21147-.45746.44488-.61257c.46011-.30579 1.0424-.22976 1.73053.27387 .31152.22389.6233.52042.92912.89082 .37554.45387.74293,1.01829 1.08784,1.69248 .15627.30548.29811.6182.42514.93728s.24719.6149.34022.89687c.1003.27863.17795.52426.23489.73608 .0631.22601.10647.40087.13215.52426-.34593.002-.69129.008-1.03602.0156-.0308-.23377-.11378-.58616-.25876-1.05482s-.35797-1.01811-.67055-1.62904c-.27093-.5295-.5753-.95607-.90241-1.27772-.12154-.12359-.2372-.21342-.34616-.27-.17816-.0927-.33819-.0963-.47964-.0138-.11747.0686-.19841.16784-.2438.297-.0123.046-.0216.0955-.028.14856-.0134.11091-.0139.23732-.002.37933 .0315.21887.0862.47392.16159.76584s.17144.63739.28351,1.03737c.14245.53134.24695,1.0116.32008,1.43898 .0804.42401.10827.79707.0886,1.11708-.0141.33314-.0899.61128-.22373.83397s-.32822.38328-.60289.49359c-.53451.2146-1.07264.0302-1.63227-.51554-.5543-.53344-1.10149-1.38348-1.71938-2.52926-.16639-.30854-.31706-.59165-.45017-.85105-.20956-.40764-.37531-.75694-.49112-1.05261-.1955-.4776-.33245-.80382-.39507-.98297 .32808-.0861.65758-.16904.98845-.24874 .0787.20715.20636.53514.37046.98611 .088.24188.20807.51486.35744.82117 .13004.26693.28222.55922.45456.87894z"/>
     <path d="m137.71633,421.57248c.52166-.18097 1.02353-.20155 1.5054-.0486 .48944.15037.9418.42482 1.34953.82633s.76772.90695 1.06998,1.51344c.22124.44393.40289.90986.54341,1.39446 .0516.17736.0978.35741.13834.54001 .32283,1.4531.29372,2.66424-.0283,3.56404-.0302.0845-.0631.1665-.0985.24587-.17927.40955-.43067.73776-.74803.97868-.19533.14989-.41589.26477-.6604.345-.0376.0354.0232.0557.0989.067l.17311.0136 .00054-1e-005-.00065,2e-005-.33555.002-.0559.0003-1.11742.006c-.006-.0797-.014-.16172-.0224-.2462-.0328-.33543-.0742-.67454-.12102-1.01746-.16848-1.23335-.40409-2.46339-.69031-3.68729-.19034-.81108-.40262-1.61692-.63726-2.41564-.59774.26531-.97519.72085-1.15162,1.35776-.11002.39716-.1297.89291-.0695,1.49295 .0358.36256.10035.76199.18961,1.19969 .13355.6549.25967,1.19567.3923,1.62661 .0836.25973.15669.48141.2215.66471 .0457.12947.0873.23838.12517.32777-.29883.12443-.59852.24527-.89913.36194-.0579-.1229-.12529-.30542-.2061-.55561-.0531-.16434-.11184-.35487-.17754-.57156-.16361-.53332-.3135-1.14861-.46085-1.85299-.0703-.33633-.1305-.65878-.17899-.96784-.0805-.5054-.12902-.97139-.14207-1.40125-.01-.68146.052-1.2712.19686-1.77467s.36293-.92482.66265-1.26263c.31178-.32712.68811-.57191 1.13418-.72665zm2.48448,7.39074c.50021-.0631.87357-.35912 1.10342-.90396 .2403-.53136.27658-1.23223.0883-2.07791-.0396-.17775-.0857-.34631-.13795-.50554-.0872-.26616-.19181-.5065-.31259-.72041-.18161-.32916-.38482-.59595-.60634-.80043s-.45366-.34875-.69458-.43425c-.23685-.0712-.46527-.0966-.685-.0781 .23452.80125.44682,1.6092.6373,2.42207 .24025,1.02663.44579,2.05998.60743,3.09849z"/>
    </g>
    <g transform="matrix(-.6032 0 0 -.6032 338.89 1167.7)" fill="#f00" font-family="Sans" font-size="40" letter-spacing="0" word-spacing="0">
     <path d="m74.56326,425.39923c-.13136.55552-.27765,1.0787-.44304,1.5719-.09427.37499-.20244.73221-.32456,1.07193-.29866.83082-.66924,1.5297-1.11197,2.09834s-.95185.99322-1.52718,1.27255c-.5814.26377-1.21737.35421-1.90721.26635s-1.276-.35686-1.75773-.81251c-.48774-.47155-.87066-1.06944-1.14866-1.79442s-.4539-1.55455-.52806-2.48672c-.02492-.31335-.03822-.63218-.03991-.95634 .04424-.67742.14957-1.3785.31891-2.09651 .16132-.68392.34358-1.28886.53809-1.81318 .19885-.54006.39277-.99546.57455-1.36767 .1866-.38778.35382-.69448.49685-.92236s.24671-.38175.30879-.46382l.69658.92977c-.09034.12126-.20396.30213-.33867.54412s-.27946.52356-.4321.8456c-.14815.30677-.29294.65705-.43149,1.05079-.14217.37644-.26246.76742-.35991,1.17131-.20091.83271-.28987,1.60282-.27705,2.29781l.0049.0521c.06588.68237.21152,1.27636.43705,1.78108s.528.91215.90724,1.22298c.37323.29489.81325.47684 1.31968.54843 .49062.0694.95079.0298 1.38017-.11636 .43125-.16075.81984-.4297 1.16563-.80588 .33789-.37735.62507-.86317.86165-1.45803 .02986-.0763.05868-.15437.08646-.23419 .22622-.51805.4147-1.11017.57595-1.78059 .21294-.88532.36177-1.62227.4253-2.22541s.109-1.06038.12111-1.37222c.35872-.066.71706-.12719 1.07492-.18355 .007.10045.0015.2735-.01369.51891-.02276.24303-.06223.54238-.11442.89876s-.12477.76762-.21271,1.23558-.19756.97072-.32542,1.51143z"/>
     <path d="m77.1007,415.87445c.20987-.38708.39851-.72489.56102-1.01629 .16238-.30694.29228-.56383.38574-.77334l-1.57852-.98766c-.10913.0989-.26022.28083-.44842.54918-.18779.25206-.39522.5764-.61515.97515-.08817.15986-.17497.32956-.25992.50903-.05418.11423-.10766.23242-.16031.35456-.12879.30127-.21867.59778-.27033.88689-.05268.27294-.05469.52116-.0079.74288 .03954.21841.15926.37053.35613.45828 .36457.16252.70872.0762 1.03929-.24444 .28481-.28541.57093-.69668.87449-1.23048l.12386-.22376zm-5.01261-2.48677c.41241-.77736.83915-1.38711 1.25224-1.83221 .41444-.46264.81754-.77829 1.19508-.95362 .37949-.19261.73596-.26205 1.06545-.21566 .32294.0418.62688.16767.91392.37202l3.18027,2.26436c-.07721.13631-.1846.33067-.31824.58483-.133.23893-.28462.51173-.45183.82005s-.34991.64455-.54519,1.01047c-.18182.35877-.36706.71472-.55627,1.06865l-.01629.0304c-.26408.48897-.52589.93154-.79283,1.32808s-.54559.74226-.82667,1.01104c-.28845.2657-.58715.44776-.9007.54266s-.63824.0825-.97392-.0448c-.32076-.12158-.55402-.33647-.69402-.65035-.1347-.32706-.18887-.72012-.15598-1.17651s.13983-.96584.32776-1.52152c.14744-.43594.33093-.87697.55139-1.31951l.19012-.36497c.0978-.17968.20772-.36113.32991-.54371 .11522-.18652.23194-.35523.34926-.50618 .11786-.16755.22226-.30886.31209-.42468s.15401-.19585.19168-.24095l-.26478-.16567c-.15615-.0977-.32844-.16217-.51748-.19177-.19584-.0338-.40337-.003-.62163.0947-.2251.0936-.46208.27154-.70616.53624-.23243.2363-.47628.58133-.72076,1.03673l-.03467.0654c-.32696.62367-.57332,1.19353-.74843,1.70072-.1759.49003-.28405.86604-.33517,1.12472l-.94957-.12434c.05062-.28221.17987-.73553.40598-1.35483 .20815-.59217.47741-1.21478.81303-1.86019l.05241-.0996z"/>
     <path d="m80.15022,403.28972c.14449-.1233.31334-.25473.50712-.39285 .20095-.15431.40268-.29504.60441-.42222s.3788-.24691.54494-.34136c.174-.11031.30467-.18582.39069-.22855 .08769.33626.1791.6707.27417,1.00329-.15386.0747-.40196.21556-.73934.431-.33032.19968-.73342.4959-1.19602.89911-.30069.26211-.5805.54797-.83733.85549-.25117.29123-.41063.48812-.48626.58524l3.68094,3.726c-.42065.41721-.82851.8501-1.22311,1.2971l-4.46938-3.96445c.27004-.44848.64039-.98115 1.12832-1.58328 .48227-.60777 1.0864-1.23771 1.82085-1.86452z"/>
     <path d="m85.82465,399.60207c1.37013-.72116 2.7849-1.34091 4.23151-1.86631l.31701.87696c-1.4087.51049-2.78407,1.1126-4.11329,1.81338l1.33918,2.53549c.14508.27467.30237.48416.46967.63019 .16362.13896.34289.225.53822.25975 .19173.0276.40327.011.63696-.048s.49298-.15335.78136-.28055c.50465-.22259.90117-.41884 1.18454-.60466 .29284-.19801.50036-.33158.6155-.40649l.6426.75083c-.15378.11155-.43161.27886-.82283.51263-.38838.24121-.84296.47204-1.3629.70498-.61238.27435-1.12847.47764-1.56714.59424-.43124.10361-.81336.13514-1.15393.0864s-.64307-.1709-.90721-.37322c-.25708-.21613-.49779-.49861-.71743-.85121l-2.93972-4.71936c.62892-.46078 1.27261-.89931 1.92953-1.31595z"/>
     <path d="m92.81369,400.11101c-.15901-.52747-.15977-1.02845.014-1.5025 .17156-.48171.46762-.92147.89141-1.30994s.9519-.72349 1.58017-.99316 1.29529-.46089 1.9905-.56965c1.62215-.25372 2.90851-.0963 3.8013.37259 .89224.46086 1.34013,1.24695 1.38635,2.32101 .002.0481.005.11222.008.19238 .003.0721-.001.14059-.0128.20536-2.55941.11515-5.11096.44315-7.57899,1.02556 .23316.61108.66456,1.01338 1.28404,1.22958s1.49801.21817 2.67481.0602c.6628-.0889 1.21734-.17951 1.66296-.28554 .45855-.11529.80486-.20893 1.03524-.28916 .11066.30627.21935.6129.32608.91985-.22526.0867-.62481.18918-1.19219.32166-.55401.13125-1.186.24009-1.89664.33874-.89488.12422-1.67363.18234-2.35463.15773-.66968-.0351-1.24463-.13252-1.73236-.30535s-.89277-.41168-1.21378-.72653c-.31003-.32632-.5378-.71183-.67377-1.16287zm7.50986-2.04338c-.0313-.50526-.30417-.89809-.83443-1.1641-.51609-.2756-1.21504-.35906-2.07621-.22437-.48346.0756-.90453.20294-1.25944.37613-.34143.16248-.62091.35076-.83834.56093s-.37452.43441-.47288.67049c-.08387.23278-.12109.45952-.11399.67988 1.83353-.43239 3.70823-.72677 5.59528-.89896z"/>
     <path d="m119.82435,400.30937c.65879.26864 1.30855.5584 1.94787.87005l-1.69618,3.4805c-.1525-.0392-.37037-.10483-.6554-.19167l-.96584-.2907-1.18553-.35791c-.43463-.1241-.87355-.2555-1.31865-.39447-.90256-.28181-1.71596-.59147-2.44709-.95472s-1.35593-.76632-1.87223-1.22826-.91137-.97643-1.17603-1.55494c-.25061-.57662-.34281-1.21001-.25656-1.90302s.35507-1.28385.82695-1.76122c.48829-.48316 1.11776-.85224 1.8895-1.08856s1.66219-.3438 2.65902-.30033c1.0127.0473 2.07411.24174 3.15817.5946 .73842.24038 1.37748.49679 1.91691.75487 .55488.26401 1.01565.51549 1.38539.74401s.65923.43016.87177.5989c.22749.17567.37719.30087.4522.37241-.37014.17969-.73488.36483-1.09426.55521-.35828-.33021-.87502-.69328-1.5574-1.06755-.67944-.38166-1.40653-.70092-2.17159-.95195-.81097-.26608-1.5833-.41071-2.30125-.44349-.70251-.0287-1.32541.0518-1.86199.22946-.52124.18107-.94792.45648-1.28115.81725-.33175.3529-.53784.78484-.62871,1.28981-.088.48921-.0665.95294.055,1.3914 .13555.44111.37268.84526.70502,1.21804 .3476.3678.78507.69536 1.31051.99357 .53859.30155 1.18173.56182 1.93193.80269 .53403.17147.98412.31458 1.35669.41946 .38784.10206.66636.17555.83861.21116z"/>
     <path d="m129.53645,403.54975c.14449.12235.30083.26724.46778.43537 .18403.17251.35484.34777.5124.52504 .16294.17135.3039.33121.4237.47854 .13666.15235.23217.26781.28821.345-.31618.1436-.63028.29012-.94226.43955-.0989-.13896-.27828-.3597-.54522-.65664-.25029-.2926-.60703-.64155-1.07858-1.033-.30653-.25445-.63311-.48489-.97752-.68941-.32744-.20153-.54727-.32771-.65524-.38694l-3.09258,4.22664c-.4774-.34826-.96595-.67878-1.46513-.99019l3.18664-5.05493c.48813.19512 1.07516.47666 1.74818.86297 .67767.37983 1.39512.87609 2.12962,1.498z"/>
     <path d="m129.32529,412.45923c-.3748-.47304-.76289-.93411-1.16375-1.38184l4.64144-4.17106c.48777.54205.95863,1.09898 1.41208,1.66943zm5.0508-5.4663c-.26124-.30847-.44224-.6112-.54234-.9145-.0833-.29653-.0457-.52058.11952-.67184s.39088-.16684.67631-.0405c.30257.13348.59332.36078.86501.68134s.44236.63764.51359.94425c.0879.31464.04.54077-.13671.6787s-.409.13189-.69802-.0113c-.27262-.13554-.53614-.35763-.79736-.66611z"/>
     <path d="m133.10171,416.74881c.36527.67765.6677,1.16158.9347,1.44117 .27286.29182.52644.38713.76614.27669 .24695-.11382.36587-.37521.34627-.78663s-.1319-1.0561-.37634-1.92743c-.0912-.32308-.18312-.63835-.27513-.94592-.0279-.0932-.0557-.18575-.0837-.27757-.10562-.38569-.17933-.73623-.21736-1.05349s-.0264-.60152.0381-.85395 .21147-.45746.44488-.61257c.46011-.30579 1.0424-.22976 1.73053.27387 .31152.22389.6233.52042.92912.89082 .37554.45387.74293,1.01829 1.08784,1.69248 .15627.30548.29811.6182.42514.93728s.24719.6149.34022.89687c.1003.27863.17795.52426.23489.73608 .0631.22601.10647.40087.13215.52426-.34593.002-.69129.008-1.03602.0156-.0308-.23377-.11378-.58616-.25876-1.05482s-.35797-1.01811-.67055-1.62904c-.27093-.5295-.5753-.95607-.90241-1.27772-.12154-.12359-.2372-.21342-.34616-.27-.17816-.0927-.33819-.0963-.47964-.0138-.11747.0686-.19841.16784-.2438.297-.0123.046-.0216.0955-.028.14856-.0134.11091-.0139.23732-.002.37933 .0315.21887.0862.47392.16159.76584s.17144.63739.28351,1.03737c.14245.53134.24695,1.0116.32008,1.43898 .0804.42401.10827.79707.0886,1.11708-.0141.33314-.0899.61128-.22373.83397s-.32822.38328-.60289.49359c-.53451.2146-1.07264.0302-1.63227-.51554-.5543-.53344-1.10149-1.38348-1.71938-2.52926-.16639-.30854-.31706-.59165-.45017-.85105-.20956-.40764-.37531-.75694-.49112-1.05261-.1955-.4776-.33245-.80382-.39507-.98297 .32808-.0861.65758-.16904.98845-.24874 .0787.20715.20636.53514.37046.98611 .088.24188.20807.51486.35744.82117 .13004.26693.28222.55922.45456.87894z"/>
     <path d="m137.71633,421.57248c.52166-.18097 1.02353-.20155 1.5054-.0486 .48944.15037.9418.42482 1.34953.82633s.76772.90695 1.06998,1.51344c.22124.44393.40289.90986.54341,1.39446 .0516.17736.0978.35741.13834.54001 .32283,1.4531.29372,2.66424-.0283,3.56404-.0302.0845-.0631.1665-.0985.24587-.17927.40955-.43067.73776-.74803.97868-.19533.14989-.41589.26477-.6604.345-.0376.0354.0232.0557.0989.067l.17311.0136 .00054-1e-005-.00065,2e-005-.33555.002-.0559.0003-1.11742.006c-.006-.0797-.014-.16172-.0224-.2462-.0328-.33543-.0742-.67454-.12102-1.01746-.16848-1.23335-.40409-2.46339-.69031-3.68729-.19034-.81108-.40262-1.61692-.63726-2.41564-.59774.26531-.97519.72085-1.15162,1.35776-.11002.39716-.1297.89291-.0695,1.49295 .0358.36256.10035.76199.18961,1.19969 .13355.6549.25967,1.19567.3923,1.62661 .0836.25973.15669.48141.2215.66471 .0457.12947.0873.23838.12517.32777-.29883.12443-.59852.24527-.89913.36194-.0579-.1229-.12529-.30542-.2061-.55561-.0531-.16434-.11184-.35487-.17754-.57156-.16361-.53332-.3135-1.14861-.46085-1.85299-.0703-.33633-.1305-.65878-.17899-.96784-.0805-.5054-.12902-.97139-.14207-1.40125-.01-.68146.052-1.2712.19686-1.77467s.36293-.92482.66265-1.26263c.31178-.32712.68811-.57191 1.13418-.72665zm2.48448,7.39074c.50021-.0631.87357-.35912 1.10342-.90396 .2403-.53136.27658-1.23223.0883-2.07791-.0396-.17775-.0857-.34631-.13795-.50554-.0872-.26616-.19181-.5065-.31259-.72041-.18161-.32916-.38482-.59595-.60634-.80043s-.45366-.34875-.69458-.43425c-.23685-.0712-.46527-.0966-.685-.0781 .23452.80125.44682,1.6092.6373,2.42207 .24025,1.02663.44579,2.05998.60743,3.09849z"/>
    </g>
    <path d="m284.78841,912.47492c-2.1729.76918-4.34536,1.53728-6.53218,2.26654-1.40599.43779-2.81068.89505-4.25676,1.1858-.3001.0603-.6012.13013-.907.14375-1.52988.0681-1.3698.41198-1.49356-.34897 .15441-.15998.29112-.33919.46324-.47994 .51085-.41773 1.5409-1.03511 2.06194-1.35442 1.15766-.70942 2.33587-1.38114 3.51001-2.06255 .2494-.15939.51576-.29492.74819-.47817 .12096-.0954.27658-.19787.30197-.3498 .0175-.10462-.11219-.1898-.20244-.24554-.53436-.33-1.60816-.52753-2.22117-.68753-.0264-.007-1.09378-.26905-1.22503-.32342-.0436-.0181-.13972-.0987-.0932-.1064 1.32905-.21929 2.24589-.007 3.5447.19757 3.1015.61916 6.20986,1.34343 9.17702,2.45783 .40173.15088.79152.33182 1.18728.49772 .10527.0609 1.07995.44929 1.01583.88208-.0702.47371-1.08266.77756-1.29633.85098-.92961.31945-1.77631.46094-2.73947.66079-1.56956.23261-3.19865.65313-4.80126.4396-.0727-.01-.14161-.11288-.12158-.18346 .0379-.13363.17664-.21443.26495-.32165 .49833-.33385 1.0421-.58971 1.57834-.85493 .12032-.0595.24461-.11135.36176-.17689 .0389-.0218.0598-.0859.10435-.0839 .23506.0108.46368.0805.69552.12075-2.14495.33035-4.28353.70489-6.42981,1.03061-.80256.0905-1.69454.35596-2.5057.1789-.079-.0172.0468-.16744.11207-.21521 .18914-.13844.93121-.34528 1.08864-.39446 1.01975-.26677 2.08967-.54258 3.15643-.36562 .0737.0122.10103.13229.0886.206-.0217.12853-.1211.23085-.18165.34627-.14372.14614-.27411.3067-.43116.4384-.54913.46053-1.18943.8438-1.80975,1.19251-1.19203.67008-2.43,1.21037-3.69139,1.73249-.99383.32693-2.03104.74591-3.10184.70897-.7819-.027-1.57112.12844-2.06018-.55349-.13322-.18576-.1763-.42183-.26445-.63275-.0422-.26837-.10285-.53448-.12665-.8051-.0468-.5322-.0155-1.28014.01-1.80961 .0395-.83189.10594-1.66294.16536-2.49358 .0534-.42002.0394-.84907.0965-1.26881 .005-.0401.0333-.27268.13138-.28316 .36864-.0394.74132-.0156 1.11197-.0234 1.72883.57039 3.46255,1.12539 5.20004,1.669 2.98512.88735 5.95321,1.83087 8.92815,2.75151l.90226.29861-.90315.11333-.88582-.2989c-2.96064-.93345-5.91791-1.8792-8.89613-2.75543-1.76597-.54395-3.52432-1.1235-5.29994-1.63127 .269-.0123.53772-.039.80699-.0369 .0339.00026-.0735.0143-.0924.0425-.0317.047-.0364.10785-.0464.16366-.0751.41715-.0658.84798-.12769,1.2665-.0702.82887-.1405,1.65834-.17903,2.48944-.0243.52368-.0537,1.26483-.002,1.79146 .026.26331.0905.52138.13578.78207 .0886.19583.13442.41745.26591.58749 .11939.15438.38423.17871.46427.3567 .0382.0848-.33148.13074-.23934.14351 .29046.0403.58793-.012.878-.055 .89137-.13209 1.38519-.33755 2.25278-.62118 1.25906-.516 2.49377-1.04941 3.68058-1.72008 .62174-.35134 1.21797-.71374 1.76494-1.17373 .14938-.12563.27454-.27752.41181-.41628 .0564-.0837.14182-.15403.1693-.25118 .0115-.0409-.0452-.0719-.0677-.10786l.60259-.0262c.16048.0796-.35703.0325-.534.0602-.57518.0901-.78801.15991-1.36034.30666-.20901.0646-.42007.12276-.62701.19364-.14294.0489-.2766.12428-.42193.1656-.0398.0113-.0822-.011-.12357-.0105-.24088.003-.48982.0829-.7224.0202-.44952-.12124 2.26569.004 1.38459-.18371 2.13123-.31519 4.25591-.66904 6.376-1.0512 .40454.0376.81524.0329 1.21362.11267 .0533.0107-.0774.0786-.12478.10525-.1195.0672-.24892.11506-.37248.17447-.23721.11405-.85149.41615-1.06836.53504-.16742.0918-.32872.19426-.49308.29139-.0836.0617-.19972.0947-.25091.18521-.0222.0392.12943.0843.0882.10239-.12002.0527-.52271.0401-.39197.0309 1.14186-.0801 2.27747-.21586 3.4-.44735 1.02703-.21162 1.71759-.31984 2.70273-.64791 .009-.003 1.18342-.36944 1.25516-.69744 .0842-.38518-.93119-.81238-.95422-.82597-.38732-.16493-.76857-.34493-1.16196-.4948-2.96712-1.13037-6.08487-1.84923-9.19715-2.43927-.43582-.0645-.87035-.13845-1.30746-.19352-.30606-.0386-.64647.0528-.92131-.0873-.15976-.0814.34715-.0971.52561-.1144 .0275-.003.0334.0483.0594.0576 .21443.0776 1.0591.28799 1.2012.3246 .37698.0993 2.5674.52864 2.45553,1.12102-.031.16408-.20136.27166-.33343.37383-.23909.18498-.51313.31975-.76969.47963-1.18134.67509-2.36457,1.34187-3.52187,2.05804-.72426.44819-1.34333.82207-2.00778,1.34008-.15369.11981-.28928.26119-.43392.39178 .007.0615.0726.15118.0204.18436-.10995.0699-.51652.0693-.38778.0492 .30962-.0482.62264-.0753.9305-.13373 1.4548-.27603 2.86562-.73433 4.27638-1.1745 2.15878-.72573 4.30604-1.48213 6.44089-2.27552l.95018.1167z" fill="#ef0000"/>
   </g>
   <path d="m98.05393,708.99792h1.62098a.11455,.12109 0 0,1 .11455.12109 .11455,.12109 0 0,1 -.11455.12109h-1.62098a.11455,.12109 0 0,1 -.11455-.12109 .11455,.12109 0 0,1 .11455-.12109" fill="#929293" fill-rule="evenodd" stroke="#797b7b" stroke-linejoin="round" stroke-width=".00445"/>
   <path d="m98.08391,709.43768h1.62098a.11455,.12109 0 0,1 .11455.12109 .11455,.12109 0 0,1 -.11455.12109h-1.62098a.11455,.12109 0 0,1 -.11455-.12109 .11455,.12109 0 0,1 .11455-.12109" fill="#929293" fill-rule="evenodd" stroke="#797b7b" stroke-linejoin="round" stroke-width=".00445"/>
   <path d="m98.05209,709.86261h1.62098a.11455,.12109 0 0,1 .11455.12109 .11455,.12109 0 0,1 -.11455.12109h-1.62098a.11455,.12109 0 0,1 -.11455-.12109 .11455,.12109 0 0,1 .11455-.12109" fill="#929293" fill-rule="evenodd" stroke="#797b7b" stroke-linejoin="round" stroke-width=".00445"/>
   <path d="m86.00313,717.56989h3.01603a.21313,.12109 0 0,1 .21313.12109 .21313,.12109 0 0,1 -.21313.12109h-3.01603a.21313,.12109 0 0,1 -.21313-.12109 .21313,.12109 0 0,1 .21313-.12109" fill="#929293" fill-rule="evenodd" stroke="#797b7b" stroke-linejoin="round" stroke-width=".00608"/>
   <path d="m86.05892,718.00958h3.01603a.21313,.12109 0 0,1 .21313.12109 .21313,.12109 0 0,1 -.21313.12109h-3.01603a.21313,.12109 0 0,1 -.21313-.12109 .21313,.12109 0 0,1 .21313-.12109" fill="#929293" fill-rule="evenodd" stroke="#797b7b" stroke-linejoin="round" stroke-width=".00608"/>
   <path d="m93.828 718.01h1.621a0.11455 0.095368 0 0 1 0.11455 0.09537 0.11455 0.095368 0 0 1 -0.11455 0.09537h-1.621a0.11455 0.095368 0 0 1 -0.11455 -0.09537 0.11455 0.095368 0 0 1 0.11455 -0.09537" fill="#929293" fill-rule="evenodd" stroke="#797b7b" stroke-linejoin="round" stroke-width=".00395"/>
   <path transform="matrix(-.03849 0 0 .04298 105.15 697.87)" d="m496.96 320.73c0 25.731-20.859 46.59-46.59 46.59s-46.59-20.859-46.59-46.59 20.859-46.59 46.59-46.59c25.584 0 46.382 20.63 46.589 46.213" fill="#fca" fill-rule="evenodd" stroke="#383838" stroke-width="1.4584"/>
   <path d="m85.416 711.16c-0.21698 1.065 1.2332 1.9728 1.2332 1.9728s-0.53315-0.63002-0.38614-1.1062 0.23747-1.3663 0.23747-1.3663 0.43997 0.40738 1.2832 0.41538 1.2832-0.39939 1.2832-0.39939 0.09041 0.88822 0.23747 1.3644-0.2443 1.1081-0.2443 1.1081 1.3082-0.90976 1.0914-1.9748c-0.21456-1.054-0.66587-1.6306-2.3821-1.6194s-2.146 0.58431-2.3538 1.6053z" fill="#4c4c4f" fill-rule="evenodd" stroke="#383838" stroke-width=".05064"/>
  </g>
  <g transform="translate(-49.718 -44.404)">
   <path d="m85.316 708.17h14.983a1.3244 1.8589 0 0 1 1.3244 1.8589v7.3875a1.3244 1.8589 0 0 1 -1.3244 1.8589h-14.983a1.3244 1.8589 0 0 1 -1.3244 -1.8589v-7.3875a1.3244 1.8589 0 0 1 1.3244 -1.8589" fill="#e2ffff" fill-rule="evenodd" stroke="#d4d3d2" stroke-width=".06737"/>
   <path d="m85.28678,708.95477h5.14076a.48228,.73019 0 0,1 .48228.73019v3.70025a.48228,.73019 0 0,1 -.48228.73019h-5.14076a.48228,.73019 0 0,1 -.48228-.73019v-3.70025a.48228,.73019 0 0,1 .48228-.73019" fill="#e4e4e6" stroke="#797b7b" stroke-width=".07458"/>
   <path d="m92.41531,711.47266h6.82499a.48228,.16632 0 0,1 .48228.16632 .48228,.16632 0 0,1 -.48228.16632h-6.82499a.48228,.16632 0 0,1 -.48228-.16632 .48228,.16632 0 0,1 .48228-.16632" fill="#929293" fill-rule="evenodd" stroke="#797b7b" stroke-linejoin="round" stroke-width=".01071"/>
   <path d="m92.38583,712.67065h6.82499a.48228,.16105 0 0,1 .48228.16105 .48228,.16105 0 0,1 -.48228.16105h-6.82499a.48228,.16105 0 0,1 -.48228-.16105 .48228,.16105 0 0,1 .48228-.16105" fill="#929293" fill-rule="evenodd" stroke="#797b7b" stroke-linejoin="round" stroke-width=".01054"/>
   <path d="m85.75581,715.41937h8.76933a.61968,.16428 0 0,1 .61968.16428 .61968,.16428 0 0,1 -.61968.16428h-8.76933a.61968,.16428 0 0,1 -.61968-.16428 .61968,.16428 0 0,1 .61968-.16428" fill="#929293" fill-rule="evenodd" stroke="#797b7b" stroke-linejoin="round" stroke-width=".01207"/>
   <g transform="matrix(.06737 0 0 .06737 80.143 655.68)">
    <path d="m276.17 881.55c-13.866 0-25.107 11.241-25.107 25.107s11.241 25.107 25.107 25.107 25.107-11.241 25.107-25.107v-0.204c-0.11166-13.787-11.32-24.903-25.107-24.903zm-0.21968 7.6263c9.4786 0 17.184 7.6417 17.261 17.12v0.14123c0 9.5331-7.7281 17.261-17.261 17.261s-17.261-7.7281-17.261-17.261 7.7281-17.261 17.261-17.261z" fill="none" stroke="#f00" stroke-linejoin="round" stroke-width="1.0043"/>
    <g transform="matrix(.6032 0 0 .6032 213.2 646)" fill="#f00" font-family="Sans" font-size="40" letter-spacing="0" word-spacing="0">
     <path d="m74.56326,425.39923c-.13136.55552-.27765,1.0787-.44304,1.5719-.09427.37499-.20244.73221-.32456,1.07193-.29866.83082-.66924,1.5297-1.11197,2.09834s-.95185.99322-1.52718,1.27255c-.5814.26377-1.21737.35421-1.90721.26635s-1.276-.35686-1.75773-.81251c-.48774-.47155-.87066-1.06944-1.14866-1.79442s-.4539-1.55455-.52806-2.48672c-.02492-.31335-.03822-.63218-.03991-.95634 .04424-.67742.14957-1.3785.31891-2.09651 .16132-.68392.34358-1.28886.53809-1.81318 .19885-.54006.39277-.99546.57455-1.36767 .1866-.38778.35382-.69448.49685-.92236s.24671-.38175.30879-.46382l.69658.92977c-.09034.12126-.20396.30213-.33867.54412s-.27946.52356-.4321.8456c-.14815.30677-.29294.65705-.43149,1.05079-.14217.37644-.26246.76742-.35991,1.17131-.20091.83271-.28987,1.60282-.27705,2.29781l.0049.0521c.06588.68237.21152,1.27636.43705,1.78108s.528.91215.90724,1.22298c.37323.29489.81325.47684 1.31968.54843 .49062.0694.95079.0298 1.38017-.11636 .43125-.16075.81984-.4297 1.16563-.80588 .33789-.37735.62507-.86317.86165-1.45803 .02986-.0763.05868-.15437.08646-.23419 .22622-.51805.4147-1.11017.57595-1.78059 .21294-.88532.36177-1.62227.4253-2.22541s.109-1.06038.12111-1.37222c.35872-.066.71706-.12719 1.07492-.18355 .007.10045.0015.2735-.01369.51891-.02276.24303-.06223.54238-.11442.89876s-.12477.76762-.21271,1.23558-.19756.97072-.32542,1.51143z"/>
     <path d="m77.1007,415.87445c.20987-.38708.39851-.72489.56102-1.01629 .16238-.30694.29228-.56383.38574-.77334l-1.57852-.98766c-.10913.0989-.26022.28083-.44842.54918-.18779.25206-.39522.5764-.61515.97515-.08817.15986-.17497.32956-.25992.50903-.05418.11423-.10766.23242-.16031.35456-.12879.30127-.21867.59778-.27033.88689-.05268.27294-.05469.52116-.0079.74288 .03954.21841.15926.37053.35613.45828 .36457.16252.70872.0762 1.03929-.24444 .28481-.28541.57093-.69668.87449-1.23048l.12386-.22376zm-5.01261-2.48677c.41241-.77736.83915-1.38711 1.25224-1.83221 .41444-.46264.81754-.77829 1.19508-.95362 .37949-.19261.73596-.26205 1.06545-.21566 .32294.0418.62688.16767.91392.37202l3.18027,2.26436c-.07721.13631-.1846.33067-.31824.58483-.133.23893-.28462.51173-.45183.82005s-.34991.64455-.54519,1.01047c-.18182.35877-.36706.71472-.55627,1.06865l-.01629.0304c-.26408.48897-.52589.93154-.79283,1.32808s-.54559.74226-.82667,1.01104c-.28845.2657-.58715.44776-.9007.54266s-.63824.0825-.97392-.0448c-.32076-.12158-.55402-.33647-.69402-.65035-.1347-.32706-.18887-.72012-.15598-1.17651s.13983-.96584.32776-1.52152c.14744-.43594.33093-.87697.55139-1.31951l.19012-.36497c.0978-.17968.20772-.36113.32991-.54371 .11522-.18652.23194-.35523.34926-.50618 .11786-.16755.22226-.30886.31209-.42468s.15401-.19585.19168-.24095l-.26478-.16567c-.15615-.0977-.32844-.16217-.51748-.19177-.19584-.0338-.40337-.003-.62163.0947-.2251.0936-.46208.27154-.70616.53624-.23243.2363-.47628.58133-.72076,1.03673l-.03467.0654c-.32696.62367-.57332,1.19353-.74843,1.70072-.1759.49003-.28405.86604-.33517,1.12472l-.94957-.12434c.05062-.28221.17987-.73553.40598-1.35483 .20815-.59217.47741-1.21478.81303-1.86019l.05241-.0996z"/>
     <path d="m80.15022,403.28972c.14449-.1233.31334-.25473.50712-.39285 .20095-.15431.40268-.29504.60441-.42222s.3788-.24691.54494-.34136c.174-.11031.30467-.18582.39069-.22855 .08769.33626.1791.6707.27417,1.00329-.15386.0747-.40196.21556-.73934.431-.33032.19968-.73342.4959-1.19602.89911-.30069.26211-.5805.54797-.83733.85549-.25117.29123-.41063.48812-.48626.58524l3.68094,3.726c-.42065.41721-.82851.8501-1.22311,1.2971l-4.46938-3.96445c.27004-.44848.64039-.98115 1.12832-1.58328 .48227-.60777 1.0864-1.23771 1.82085-1.86452z"/>
     <path d="m85.82465,399.60207c1.37013-.72116 2.7849-1.34091 4.23151-1.86631l.31701.87696c-1.4087.51049-2.78407,1.1126-4.11329,1.81338l1.33918,2.53549c.14508.27467.30237.48416.46967.63019 .16362.13896.34289.225.53822.25975 .19173.0276.40327.011.63696-.048s.49298-.15335.78136-.28055c.50465-.22259.90117-.41884 1.18454-.60466 .29284-.19801.50036-.33158.6155-.40649l.6426.75083c-.15378.11155-.43161.27886-.82283.51263-.38838.24121-.84296.47204-1.3629.70498-.61238.27435-1.12847.47764-1.56714.59424-.43124.10361-.81336.13514-1.15393.0864s-.64307-.1709-.90721-.37322c-.25708-.21613-.49779-.49861-.71743-.85121l-2.93972-4.71936c.62892-.46078 1.27261-.89931 1.92953-1.31595z"/>
     <path d="m92.81369,400.11101c-.15901-.52747-.15977-1.02845.014-1.5025 .17156-.48171.46762-.92147.89141-1.30994s.9519-.72349 1.58017-.99316 1.29529-.46089 1.9905-.56965c1.62215-.25372 2.90851-.0963 3.8013.37259 .89224.46086 1.34013,1.24695 1.38635,2.32101 .002.0481.005.11222.008.19238 .003.0721-.001.14059-.0128.20536-2.55941.11515-5.11096.44315-7.57899,1.02556 .23316.61108.66456,1.01338 1.28404,1.22958s1.49801.21817 2.67481.0602c.6628-.0889 1.21734-.17951 1.66296-.28554 .45855-.11529.80486-.20893 1.03524-.28916 .11066.30627.21935.6129.32608.91985-.22526.0867-.62481.18918-1.19219.32166-.55401.13125-1.186.24009-1.89664.33874-.89488.12422-1.67363.18234-2.35463.15773-.66968-.0351-1.24463-.13252-1.73236-.30535s-.89277-.41168-1.21378-.72653c-.31003-.32632-.5378-.71183-.67377-1.16287zm7.50986-2.04338c-.0313-.50526-.30417-.89809-.83443-1.1641-.51609-.2756-1.21504-.35906-2.07621-.22437-.48346.0756-.90453.20294-1.25944.37613-.34143.16248-.62091.35076-.83834.56093s-.37452.43441-.47288.67049c-.08387.23278-.12109.45952-.11399.67988 1.83353-.43239 3.70823-.72677 5.59528-.89896z"/>
     <path d="m119.82435,400.30937c.65879.26864 1.30855.5584 1.94787.87005l-1.69618,3.4805c-.1525-.0392-.37037-.10483-.6554-.19167l-.96584-.2907-1.18553-.35791c-.43463-.1241-.87355-.2555-1.31865-.39447-.90256-.28181-1.71596-.59147-2.44709-.95472s-1.35593-.76632-1.87223-1.22826-.91137-.97643-1.17603-1.55494c-.25061-.57662-.34281-1.21001-.25656-1.90302s.35507-1.28385.82695-1.76122c.48829-.48316 1.11776-.85224 1.8895-1.08856s1.66219-.3438 2.65902-.30033c1.0127.0473 2.07411.24174 3.15817.5946 .73842.24038 1.37748.49679 1.91691.75487 .55488.26401 1.01565.51549 1.38539.74401s.65923.43016.87177.5989c.22749.17567.37719.30087.4522.37241-.37014.17969-.73488.36483-1.09426.55521-.35828-.33021-.87502-.69328-1.5574-1.06755-.67944-.38166-1.40653-.70092-2.17159-.95195-.81097-.26608-1.5833-.41071-2.30125-.44349-.70251-.0287-1.32541.0518-1.86199.22946-.52124.18107-.94792.45648-1.28115.81725-.33175.3529-.53784.78484-.62871,1.28981-.088.48921-.0665.95294.055,1.3914 .13555.44111.37268.84526.70502,1.21804 .3476.3678.78507.69536 1.31051.99357 .53859.30155 1.18173.56182 1.93193.80269 .53403.17147.98412.31458 1.35669.41946 .38784.10206.66636.17555.83861.21116z"/>
     <path d="m129.53645,403.54975c.14449.12235.30083.26724.46778.43537 .18403.17251.35484.34777.5124.52504 .16294.17135.3039.33121.4237.47854 .13666.15235.23217.26781.28821.345-.31618.1436-.63028.29012-.94226.43955-.0989-.13896-.27828-.3597-.54522-.65664-.25029-.2926-.60703-.64155-1.07858-1.033-.30653-.25445-.63311-.48489-.97752-.68941-.32744-.20153-.54727-.32771-.65524-.38694l-3.09258,4.22664c-.4774-.34826-.96595-.67878-1.46513-.99019l3.18664-5.05493c.48813.19512 1.07516.47666 1.74818.86297 .67767.37983 1.39512.87609 2.12962,1.498z"/>
     <path d="m129.32529,412.45923c-.3748-.47304-.76289-.93411-1.16375-1.38184l4.64144-4.17106c.48777.54205.95863,1.09898 1.41208,1.66943zm5.0508-5.4663c-.26124-.30847-.44224-.6112-.54234-.9145-.0833-.29653-.0457-.52058.11952-.67184s.39088-.16684.67631-.0405c.30257.13348.59332.36078.86501.68134s.44236.63764.51359.94425c.0879.31464.04.54077-.13671.6787s-.409.13189-.69802-.0113c-.27262-.13554-.53614-.35763-.79736-.66611z"/>
     <path d="m133.10171,416.74881c.36527.67765.6677,1.16158.9347,1.44117 .27286.29182.52644.38713.76614.27669 .24695-.11382.36587-.37521.34627-.78663s-.1319-1.0561-.37634-1.92743c-.0912-.32308-.18312-.63835-.27513-.94592-.0279-.0932-.0557-.18575-.0837-.27757-.10562-.38569-.17933-.73623-.21736-1.05349s-.0264-.60152.0381-.85395 .21147-.45746.44488-.61257c.46011-.30579 1.0424-.22976 1.73053.27387 .31152.22389.6233.52042.92912.89082 .37554.45387.74293,1.01829 1.08784,1.69248 .15627.30548.29811.6182.42514.93728s.24719.6149.34022.89687c.1003.27863.17795.52426.23489.73608 .0631.22601.10647.40087.13215.52426-.34593.002-.69129.008-1.03602.0156-.0308-.23377-.11378-.58616-.25876-1.05482s-.35797-1.01811-.67055-1.62904c-.27093-.5295-.5753-.95607-.90241-1.27772-.12154-.12359-.2372-.21342-.34616-.27-.17816-.0927-.33819-.0963-.47964-.0138-.11747.0686-.19841.16784-.2438.297-.0123.046-.0216.0955-.028.14856-.0134.11091-.0139.23732-.002.37933 .0315.21887.0862.47392.16159.76584s.17144.63739.28351,1.03737c.14245.53134.24695,1.0116.32008,1.43898 .0804.42401.10827.79707.0886,1.11708-.0141.33314-.0899.61128-.22373.83397s-.32822.38328-.60289.49359c-.53451.2146-1.07264.0302-1.63227-.51554-.5543-.53344-1.10149-1.38348-1.71938-2.52926-.16639-.30854-.31706-.59165-.45017-.85105-.20956-.40764-.37531-.75694-.49112-1.05261-.1955-.4776-.33245-.80382-.39507-.98297 .32808-.0861.65758-.16904.98845-.24874 .0787.20715.20636.53514.37046.98611 .088.24188.20807.51486.35744.82117 .13004.26693.28222.55922.45456.87894z"/>
     <path d="m137.71633,421.57248c.52166-.18097 1.02353-.20155 1.5054-.0486 .48944.15037.9418.42482 1.34953.82633s.76772.90695 1.06998,1.51344c.22124.44393.40289.90986.54341,1.39446 .0516.17736.0978.35741.13834.54001 .32283,1.4531.29372,2.66424-.0283,3.56404-.0302.0845-.0631.1665-.0985.24587-.17927.40955-.43067.73776-.74803.97868-.19533.14989-.41589.26477-.6604.345-.0376.0354.0232.0557.0989.067l.17311.0136 .00054-1e-005-.00065,2e-005-.33555.002-.0559.0003-1.11742.006c-.006-.0797-.014-.16172-.0224-.2462-.0328-.33543-.0742-.67454-.12102-1.01746-.16848-1.23335-.40409-2.46339-.69031-3.68729-.19034-.81108-.40262-1.61692-.63726-2.41564-.59774.26531-.97519.72085-1.15162,1.35776-.11002.39716-.1297.89291-.0695,1.49295 .0358.36256.10035.76199.18961,1.19969 .13355.6549.25967,1.19567.3923,1.62661 .0836.25973.15669.48141.2215.66471 .0457.12947.0873.23838.12517.32777-.29883.12443-.59852.24527-.89913.36194-.0579-.1229-.12529-.30542-.2061-.55561-.0531-.16434-.11184-.35487-.17754-.57156-.16361-.53332-.3135-1.14861-.46085-1.85299-.0703-.33633-.1305-.65878-.17899-.96784-.0805-.5054-.12902-.97139-.14207-1.40125-.01-.68146.052-1.2712.19686-1.77467s.36293-.92482.66265-1.26263c.31178-.32712.68811-.57191 1.13418-.72665zm2.48448,7.39074c.50021-.0631.87357-.35912 1.10342-.90396 .2403-.53136.27658-1.23223.0883-2.07791-.0396-.17775-.0857-.34631-.13795-.50554-.0872-.26616-.19181-.5065-.31259-.72041-.18161-.32916-.38482-.59595-.60634-.80043s-.45366-.34875-.69458-.43425c-.23685-.0712-.46527-.0966-.685-.0781 .23452.80125.44682,1.6092.6373,2.42207 .24025,1.02663.44579,2.05998.60743,3.09849z"/>
    </g>
    <g transform="matrix(-.6032 0 0 -.6032 338.89 1167.7)" fill="#f00" font-family="Sans" font-size="40" letter-spacing="0" word-spacing="0">
     <path d="m74.56326,425.39923c-.13136.55552-.27765,1.0787-.44304,1.5719-.09427.37499-.20244.73221-.32456,1.07193-.29866.83082-.66924,1.5297-1.11197,2.09834s-.95185.99322-1.52718,1.27255c-.5814.26377-1.21737.35421-1.90721.26635s-1.276-.35686-1.75773-.81251c-.48774-.47155-.87066-1.06944-1.14866-1.79442s-.4539-1.55455-.52806-2.48672c-.02492-.31335-.03822-.63218-.03991-.95634 .04424-.67742.14957-1.3785.31891-2.09651 .16132-.68392.34358-1.28886.53809-1.81318 .19885-.54006.39277-.99546.57455-1.36767 .1866-.38778.35382-.69448.49685-.92236s.24671-.38175.30879-.46382l.69658.92977c-.09034.12126-.20396.30213-.33867.54412s-.27946.52356-.4321.8456c-.14815.30677-.29294.65705-.43149,1.05079-.14217.37644-.26246.76742-.35991,1.17131-.20091.83271-.28987,1.60282-.27705,2.29781l.0049.0521c.06588.68237.21152,1.27636.43705,1.78108s.528.91215.90724,1.22298c.37323.29489.81325.47684 1.31968.54843 .49062.0694.95079.0298 1.38017-.11636 .43125-.16075.81984-.4297 1.16563-.80588 .33789-.37735.62507-.86317.86165-1.45803 .02986-.0763.05868-.15437.08646-.23419 .22622-.51805.4147-1.11017.57595-1.78059 .21294-.88532.36177-1.62227.4253-2.22541s.109-1.06038.12111-1.37222c.35872-.066.71706-.12719 1.07492-.18355 .007.10045.0015.2735-.01369.51891-.02276.24303-.06223.54238-.11442.89876s-.12477.76762-.21271,1.23558-.19756.97072-.32542,1.51143z"/>
     <path d="m77.1007,415.87445c.20987-.38708.39851-.72489.56102-1.01629 .16238-.30694.29228-.56383.38574-.77334l-1.57852-.98766c-.10913.0989-.26022.28083-.44842.54918-.18779.25206-.39522.5764-.61515.97515-.08817.15986-.17497.32956-.25992.50903-.05418.11423-.10766.23242-.16031.35456-.12879.30127-.21867.59778-.27033.88689-.05268.27294-.05469.52116-.0079.74288 .03954.21841.15926.37053.35613.45828 .36457.16252.70872.0762 1.03929-.24444 .28481-.28541.57093-.69668.87449-1.23048l.12386-.22376zm-5.01261-2.48677c.41241-.77736.83915-1.38711 1.25224-1.83221 .41444-.46264.81754-.77829 1.19508-.95362 .37949-.19261.73596-.26205 1.06545-.21566 .32294.0418.62688.16767.91392.37202l3.18027,2.26436c-.07721.13631-.1846.33067-.31824.58483-.133.23893-.28462.51173-.45183.82005s-.34991.64455-.54519,1.01047c-.18182.35877-.36706.71472-.55627,1.06865l-.01629.0304c-.26408.48897-.52589.93154-.79283,1.32808s-.54559.74226-.82667,1.01104c-.28845.2657-.58715.44776-.9007.54266s-.63824.0825-.97392-.0448c-.32076-.12158-.55402-.33647-.69402-.65035-.1347-.32706-.18887-.72012-.15598-1.17651s.13983-.96584.32776-1.52152c.14744-.43594.33093-.87697.55139-1.31951l.19012-.36497c.0978-.17968.20772-.36113.32991-.54371 .11522-.18652.23194-.35523.34926-.50618 .11786-.16755.22226-.30886.31209-.42468s.15401-.19585.19168-.24095l-.26478-.16567c-.15615-.0977-.32844-.16217-.51748-.19177-.19584-.0338-.40337-.003-.62163.0947-.2251.0936-.46208.27154-.70616.53624-.23243.2363-.47628.58133-.72076,1.03673l-.03467.0654c-.32696.62367-.57332,1.19353-.74843,1.70072-.1759.49003-.28405.86604-.33517,1.12472l-.94957-.12434c.05062-.28221.17987-.73553.40598-1.35483 .20815-.59217.47741-1.21478.81303-1.86019l.05241-.0996z"/>
     <path d="m80.15022,403.28972c.14449-.1233.31334-.25473.50712-.39285 .20095-.15431.40268-.29504.60441-.42222s.3788-.24691.54494-.34136c.174-.11031.30467-.18582.39069-.22855 .08769.33626.1791.6707.27417,1.00329-.15386.0747-.40196.21556-.73934.431-.33032.19968-.73342.4959-1.19602.89911-.30069.26211-.5805.54797-.83733.85549-.25117.29123-.41063.48812-.48626.58524l3.68094,3.726c-.42065.41721-.82851.8501-1.22311,1.2971l-4.46938-3.96445c.27004-.44848.64039-.98115 1.12832-1.58328 .48227-.60777 1.0864-1.23771 1.82085-1.86452z"/>
     <path d="m85.82465,399.60207c1.37013-.72116 2.7849-1.34091 4.23151-1.86631l.31701.87696c-1.4087.51049-2.78407,1.1126-4.11329,1.81338l1.33918,2.53549c.14508.27467.30237.48416.46967.63019 .16362.13896.34289.225.53822.25975 .19173.0276.40327.011.63696-.048s.49298-.15335.78136-.28055c.50465-.22259.90117-.41884 1.18454-.60466 .29284-.19801.50036-.33158.6155-.40649l.6426.75083c-.15378.11155-.43161.27886-.82283.51263-.38838.24121-.84296.47204-1.3629.70498-.61238.27435-1.12847.47764-1.56714.59424-.43124.10361-.81336.13514-1.15393.0864s-.64307-.1709-.90721-.37322c-.25708-.21613-.49779-.49861-.71743-.85121l-2.93972-4.71936c.62892-.46078 1.27261-.89931 1.92953-1.31595z"/>
     <path d="m92.81369,400.11101c-.15901-.52747-.15977-1.02845.014-1.5025 .17156-.48171.46762-.92147.89141-1.30994s.9519-.72349 1.58017-.99316 1.29529-.46089 1.9905-.56965c1.62215-.25372 2.90851-.0963 3.8013.37259 .89224.46086 1.34013,1.24695 1.38635,2.32101 .002.0481.005.11222.008.19238 .003.0721-.001.14059-.0128.20536-2.55941.11515-5.11096.44315-7.57899,1.02556 .23316.61108.66456,1.01338 1.28404,1.22958s1.49801.21817 2.67481.0602c.6628-.0889 1.21734-.17951 1.66296-.28554 .45855-.11529.80486-.20893 1.03524-.28916 .11066.30627.21935.6129.32608.91985-.22526.0867-.62481.18918-1.19219.32166-.55401.13125-1.186.24009-1.89664.33874-.89488.12422-1.67363.18234-2.35463.15773-.66968-.0351-1.24463-.13252-1.73236-.30535s-.89277-.41168-1.21378-.72653c-.31003-.32632-.5378-.71183-.67377-1.16287zm7.50986-2.04338c-.0313-.50526-.30417-.89809-.83443-1.1641-.51609-.2756-1.21504-.35906-2.07621-.22437-.48346.0756-.90453.20294-1.25944.37613-.34143.16248-.62091.35076-.83834.56093s-.37452.43441-.47288.67049c-.08387.23278-.12109.45952-.11399.67988 1.83353-.43239 3.70823-.72677 5.59528-.89896z"/>
     <path d="m119.82435,400.30937c.65879.26864 1.30855.5584 1.94787.87005l-1.69618,3.4805c-.1525-.0392-.37037-.10483-.6554-.19167l-.96584-.2907-1.18553-.35791c-.43463-.1241-.87355-.2555-1.31865-.39447-.90256-.28181-1.71596-.59147-2.44709-.95472s-1.35593-.76632-1.87223-1.22826-.91137-.97643-1.17603-1.55494c-.25061-.57662-.34281-1.21001-.25656-1.90302s.35507-1.28385.82695-1.76122c.48829-.48316 1.11776-.85224 1.8895-1.08856s1.66219-.3438 2.65902-.30033c1.0127.0473 2.07411.24174 3.15817.5946 .73842.24038 1.37748.49679 1.91691.75487 .55488.26401 1.01565.51549 1.38539.74401s.65923.43016.87177.5989c.22749.17567.37719.30087.4522.37241-.37014.17969-.73488.36483-1.09426.55521-.35828-.33021-.87502-.69328-1.5574-1.06755-.67944-.38166-1.40653-.70092-2.17159-.95195-.81097-.26608-1.5833-.41071-2.30125-.44349-.70251-.0287-1.32541.0518-1.86199.22946-.52124.18107-.94792.45648-1.28115.81725-.33175.3529-.53784.78484-.62871,1.28981-.088.48921-.0665.95294.055,1.3914 .13555.44111.37268.84526.70502,1.21804 .3476.3678.78507.69536 1.31051.99357 .53859.30155 1.18173.56182 1.93193.80269 .53403.17147.98412.31458 1.35669.41946 .38784.10206.66636.17555.83861.21116z"/>
     <path d="m129.53645,403.54975c.14449.12235.30083.26724.46778.43537 .18403.17251.35484.34777.5124.52504 .16294.17135.3039.33121.4237.47854 .13666.15235.23217.26781.28821.345-.31618.1436-.63028.29012-.94226.43955-.0989-.13896-.27828-.3597-.54522-.65664-.25029-.2926-.60703-.64155-1.07858-1.033-.30653-.25445-.63311-.48489-.97752-.68941-.32744-.20153-.54727-.32771-.65524-.38694l-3.09258,4.22664c-.4774-.34826-.96595-.67878-1.46513-.99019l3.18664-5.05493c.48813.19512 1.07516.47666 1.74818.86297 .67767.37983 1.39512.87609 2.12962,1.498z"/>
     <path d="m129.32529,412.45923c-.3748-.47304-.76289-.93411-1.16375-1.38184l4.64144-4.17106c.48777.54205.95863,1.09898 1.41208,1.66943zm5.0508-5.4663c-.26124-.30847-.44224-.6112-.54234-.9145-.0833-.29653-.0457-.52058.11952-.67184s.39088-.16684.67631-.0405c.30257.13348.59332.36078.86501.68134s.44236.63764.51359.94425c.0879.31464.04.54077-.13671.6787s-.409.13189-.69802-.0113c-.27262-.13554-.53614-.35763-.79736-.66611z"/>
     <path d="m133.10171,416.74881c.36527.67765.6677,1.16158.9347,1.44117 .27286.29182.52644.38713.76614.27669 .24695-.11382.36587-.37521.34627-.78663s-.1319-1.0561-.37634-1.92743c-.0912-.32308-.18312-.63835-.27513-.94592-.0279-.0932-.0557-.18575-.0837-.27757-.10562-.38569-.17933-.73623-.21736-1.05349s-.0264-.60152.0381-.85395 .21147-.45746.44488-.61257c.46011-.30579 1.0424-.22976 1.73053.27387 .31152.22389.6233.52042.92912.89082 .37554.45387.74293,1.01829 1.08784,1.69248 .15627.30548.29811.6182.42514.93728s.24719.6149.34022.89687c.1003.27863.17795.52426.23489.73608 .0631.22601.10647.40087.13215.52426-.34593.002-.69129.008-1.03602.0156-.0308-.23377-.11378-.58616-.25876-1.05482s-.35797-1.01811-.67055-1.62904c-.27093-.5295-.5753-.95607-.90241-1.27772-.12154-.12359-.2372-.21342-.34616-.27-.17816-.0927-.33819-.0963-.47964-.0138-.11747.0686-.19841.16784-.2438.297-.0123.046-.0216.0955-.028.14856-.0134.11091-.0139.23732-.002.37933 .0315.21887.0862.47392.16159.76584s.17144.63739.28351,1.03737c.14245.53134.24695,1.0116.32008,1.43898 .0804.42401.10827.79707.0886,1.11708-.0141.33314-.0899.61128-.22373.83397s-.32822.38328-.60289.49359c-.53451.2146-1.07264.0302-1.63227-.51554-.5543-.53344-1.10149-1.38348-1.71938-2.52926-.16639-.30854-.31706-.59165-.45017-.85105-.20956-.40764-.37531-.75694-.49112-1.05261-.1955-.4776-.33245-.80382-.39507-.98297 .32808-.0861.65758-.16904.98845-.24874 .0787.20715.20636.53514.37046.98611 .088.24188.20807.51486.35744.82117 .13004.26693.28222.55922.45456.87894z"/>
     <path d="m137.71633,421.57248c.52166-.18097 1.02353-.20155 1.5054-.0486 .48944.15037.9418.42482 1.34953.82633s.76772.90695 1.06998,1.51344c.22124.44393.40289.90986.54341,1.39446 .0516.17736.0978.35741.13834.54001 .32283,1.4531.29372,2.66424-.0283,3.56404-.0302.0845-.0631.1665-.0985.24587-.17927.40955-.43067.73776-.74803.97868-.19533.14989-.41589.26477-.6604.345-.0376.0354.0232.0557.0989.067l.17311.0136 .00054-1e-005-.00065,2e-005-.33555.002-.0559.0003-1.11742.006c-.006-.0797-.014-.16172-.0224-.2462-.0328-.33543-.0742-.67454-.12102-1.01746-.16848-1.23335-.40409-2.46339-.69031-3.68729-.19034-.81108-.40262-1.61692-.63726-2.41564-.59774.26531-.97519.72085-1.15162,1.35776-.11002.39716-.1297.89291-.0695,1.49295 .0358.36256.10035.76199.18961,1.19969 .13355.6549.25967,1.19567.3923,1.62661 .0836.25973.15669.48141.2215.66471 .0457.12947.0873.23838.12517.32777-.29883.12443-.59852.24527-.89913.36194-.0579-.1229-.12529-.30542-.2061-.55561-.0531-.16434-.11184-.35487-.17754-.57156-.16361-.53332-.3135-1.14861-.46085-1.85299-.0703-.33633-.1305-.65878-.17899-.96784-.0805-.5054-.12902-.97139-.14207-1.40125-.01-.68146.052-1.2712.19686-1.77467s.36293-.92482.66265-1.26263c.31178-.32712.68811-.57191 1.13418-.72665zm2.48448,7.39074c.50021-.0631.87357-.35912 1.10342-.90396 .2403-.53136.27658-1.23223.0883-2.07791-.0396-.17775-.0857-.34631-.13795-.50554-.0872-.26616-.19181-.5065-.31259-.72041-.18161-.32916-.38482-.59595-.60634-.80043s-.45366-.34875-.69458-.43425c-.23685-.0712-.46527-.0966-.685-.0781 .23452.80125.44682,1.6092.6373,2.42207 .24025,1.02663.44579,2.05998.60743,3.09849z"/>
    </g>
    <path d="m284.78841,912.47492c-2.1729.76918-4.34536,1.53728-6.53218,2.26654-1.40599.43779-2.81068.89505-4.25676,1.1858-.3001.0603-.6012.13013-.907.14375-1.52988.0681-1.3698.41198-1.49356-.34897 .15441-.15998.29112-.33919.46324-.47994 .51085-.41773 1.5409-1.03511 2.06194-1.35442 1.15766-.70942 2.33587-1.38114 3.51001-2.06255 .2494-.15939.51576-.29492.74819-.47817 .12096-.0954.27658-.19787.30197-.3498 .0175-.10462-.11219-.1898-.20244-.24554-.53436-.33-1.60816-.52753-2.22117-.68753-.0264-.007-1.09378-.26905-1.22503-.32342-.0436-.0181-.13972-.0987-.0932-.1064 1.32905-.21929 2.24589-.007 3.5447.19757 3.1015.61916 6.20986,1.34343 9.17702,2.45783 .40173.15088.79152.33182 1.18728.49772 .10527.0609 1.07995.44929 1.01583.88208-.0702.47371-1.08266.77756-1.29633.85098-.92961.31945-1.77631.46094-2.73947.66079-1.56956.23261-3.19865.65313-4.80126.4396-.0727-.01-.14161-.11288-.12158-.18346 .0379-.13363.17664-.21443.26495-.32165 .49833-.33385 1.0421-.58971 1.57834-.85493 .12032-.0595.24461-.11135.36176-.17689 .0389-.0218.0598-.0859.10435-.0839 .23506.0108.46368.0805.69552.12075-2.14495.33035-4.28353.70489-6.42981,1.03061-.80256.0905-1.69454.35596-2.5057.1789-.079-.0172.0468-.16744.11207-.21521 .18914-.13844.93121-.34528 1.08864-.39446 1.01975-.26677 2.08967-.54258 3.15643-.36562 .0737.0122.10103.13229.0886.206-.0217.12853-.1211.23085-.18165.34627-.14372.14614-.27411.3067-.43116.4384-.54913.46053-1.18943.8438-1.80975,1.19251-1.19203.67008-2.43,1.21037-3.69139,1.73249-.99383.32693-2.03104.74591-3.10184.70897-.7819-.027-1.57112.12844-2.06018-.55349-.13322-.18576-.1763-.42183-.26445-.63275-.0422-.26837-.10285-.53448-.12665-.8051-.0468-.5322-.0155-1.28014.01-1.80961 .0395-.83189.10594-1.66294.16536-2.49358 .0534-.42002.0394-.84907.0965-1.26881 .005-.0401.0333-.27268.13138-.28316 .36864-.0394.74132-.0156 1.11197-.0234 1.72883.57039 3.46255,1.12539 5.20004,1.669 2.98512.88735 5.95321,1.83087 8.92815,2.75151l.90226.29861-.90315.11333-.88582-.2989c-2.96064-.93345-5.91791-1.8792-8.89613-2.75543-1.76597-.54395-3.52432-1.1235-5.29994-1.63127 .269-.0123.53772-.039.80699-.0369 .0339.00026-.0735.0143-.0924.0425-.0317.047-.0364.10785-.0464.16366-.0751.41715-.0658.84798-.12769,1.2665-.0702.82887-.1405,1.65834-.17903,2.48944-.0243.52368-.0537,1.26483-.002,1.79146 .026.26331.0905.52138.13578.78207 .0886.19583.13442.41745.26591.58749 .11939.15438.38423.17871.46427.3567 .0382.0848-.33148.13074-.23934.14351 .29046.0403.58793-.012.878-.055 .89137-.13209 1.38519-.33755 2.25278-.62118 1.25906-.516 2.49377-1.04941 3.68058-1.72008 .62174-.35134 1.21797-.71374 1.76494-1.17373 .14938-.12563.27454-.27752.41181-.41628 .0564-.0837.14182-.15403.1693-.25118 .0115-.0409-.0452-.0719-.0677-.10786l.60259-.0262c.16048.0796-.35703.0325-.534.0602-.57518.0901-.78801.15991-1.36034.30666-.20901.0646-.42007.12276-.62701.19364-.14294.0489-.2766.12428-.42193.1656-.0398.0113-.0822-.011-.12357-.0105-.24088.003-.48982.0829-.7224.0202-.44952-.12124 2.26569.004 1.38459-.18371 2.13123-.31519 4.25591-.66904 6.376-1.0512 .40454.0376.81524.0329 1.21362.11267 .0533.0107-.0774.0786-.12478.10525-.1195.0672-.24892.11506-.37248.17447-.23721.11405-.85149.41615-1.06836.53504-.16742.0918-.32872.19426-.49308.29139-.0836.0617-.19972.0947-.25091.18521-.0222.0392.12943.0843.0882.10239-.12002.0527-.52271.0401-.39197.0309 1.14186-.0801 2.27747-.21586 3.4-.44735 1.02703-.21162 1.71759-.31984 2.70273-.64791 .009-.003 1.18342-.36944 1.25516-.69744 .0842-.38518-.93119-.81238-.95422-.82597-.38732-.16493-.76857-.34493-1.16196-.4948-2.96712-1.13037-6.08487-1.84923-9.19715-2.43927-.43582-.0645-.87035-.13845-1.30746-.19352-.30606-.0386-.64647.0528-.92131-.0873-.15976-.0814.34715-.0971.52561-.1144 .0275-.003.0334.0483.0594.0576 .21443.0776 1.0591.28799 1.2012.3246 .37698.0993 2.5674.52864 2.45553,1.12102-.031.16408-.20136.27166-.33343.37383-.23909.18498-.51313.31975-.76969.47963-1.18134.67509-2.36457,1.34187-3.52187,2.05804-.72426.44819-1.34333.82207-2.00778,1.34008-.15369.11981-.28928.26119-.43392.39178 .007.0615.0726.15118.0204.18436-.10995.0699-.51652.0693-.38778.0492 .30962-.0482.62264-.0753.9305-.13373 1.4548-.27603 2.86562-.73433 4.27638-1.1745 2.15878-.72573 4.30604-1.48213 6.44089-2.27552l.95018.1167z" fill="#ef0000"/>
   </g>
   <path d="m98.05393,708.99792h1.62098a.11455,.12109 0 0,1 .11455.12109 .11455,.12109 0 0,1 -.11455.12109h-1.62098a.11455,.12109 0 0,1 -.11455-.12109 .11455,.12109 0 0,1 .11455-.12109" fill="#929293" fill-rule="evenodd" stroke="#797b7b" stroke-linejoin="round" stroke-width=".00445"/>
   <path d="m98.08391,709.43768h1.62098a.11455,.12109 0 0,1 .11455.12109 .11455,.12109 0 0,1 -.11455.12109h-1.62098a.11455,.12109 0 0,1 -.11455-.12109 .11455,.12109 0 0,1 .11455-.12109" fill="#929293" fill-rule="evenodd" stroke="#797b7b" stroke-linejoin="round" stroke-width=".00445"/>
   <path d="m98.05209,709.86261h1.62098a.11455,.12109 0 0,1 .11455.12109 .11455,.12109 0 0,1 -.11455.12109h-1.62098a.11455,.12109 0 0,1 -.11455-.12109 .11455,.12109 0 0,1 .11455-.12109" fill="#929293" fill-rule="evenodd" stroke="#797b7b" stroke-linejoin="round" stroke-width=".00445"/>
   <path d="m86.00313,717.56989h3.01603a.21313,.12109 0 0,1 .21313.12109 .21313,.12109 0 0,1 -.21313.12109h-3.01603a.21313,.12109 0 0,1 -.21313-.12109 .21313,.12109 0 0,1 .21313-.12109" fill="#929293" fill-rule="evenodd" stroke="#797b7b" stroke-linejoin="round" stroke-width=".00608"/>
   <path d="m86.05892,718.00958h3.01603a.21313,.12109 0 0,1 .21313.12109 .21313,.12109 0 0,1 -.21313.12109h-3.01603a.21313,.12109 0 0,1 -.21313-.12109 .21313,.12109 0 0,1 .21313-.12109" fill="#929293" fill-rule="evenodd" stroke="#797b7b" stroke-linejoin="round" stroke-width=".00608"/>
   <path d="m93.828 718.01h1.621a0.11455 0.095368 0 0 1 0.11455 0.09537 0.11455 0.095368 0 0 1 -0.11455 0.09537h-1.621a0.11455 0.095368 0 0 1 -0.11455 -0.09537 0.11455 0.095368 0 0 1 0.11455 -0.09537" fill="#929293" fill-rule="evenodd" stroke="#797b7b" stroke-linejoin="round" stroke-width=".00395"/>
   <path transform="matrix(-.03849 0 0 .04298 105.15 697.87)" d="m496.96 320.73c0 25.731-20.859 46.59-46.59 46.59s-46.59-20.859-46.59-46.59 20.859-46.59 46.59-46.59c25.584 0 46.382 20.63 46.589 46.213" fill="#fca" fill-rule="evenodd" stroke="#383838" stroke-width="1.4584"/>
   <path d="m85.416 711.16c-0.21698 1.065 1.2332 1.9728 1.2332 1.9728s-0.53315-0.63002-0.38614-1.1062 0.23747-1.3663 0.23747-1.3663 0.43997 0.40738 1.2832 0.41538 1.2832-0.39939 1.2832-0.39939 0.09041 0.88822 0.23747 1.3644-0.2443 1.1081-0.2443 1.1081 1.3082-0.90976 1.0914-1.9748c-0.21456-1.054-0.66587-1.6306-2.3821-1.6194s-2.146 0.58431-2.3538 1.6053z" fill="#4c4c4f" fill-rule="evenodd" stroke="#383838" stroke-width=".05064"/>
  </g>
 </g>
</svg>
